<?xml version="1.0" standalone="no"?>
<!DOCTYPE svg PUBLIC "-//W3C//DTD SVG 1.1//EN" "http://www.w3.org/Graphics/SVG/1.1/DTD/svg11.dtd" >
<svg>
<metadata>
Created by FontForge 20090914 at Wed Jul 29 11:12:18 2015
 By www-data
Copyright (c) The Font Bureau, Inc., 2003. All rights reserved.
</metadata>
<defs>
<font id="BureauGrotesque-ThreeSeven" horiz-adv-x="0" >
  <font-face 
    font-family="BureauGrotesque-ThreeSeven"
    font-weight="700"
    font-stretch="condensed"
    units-per-em="2048"
    panose-1="2 0 6 6 5 0 0 2 0 4"
    ascent="1638"
    descent="-410"
    x-height="1176"
    cap-height="1573"
    bbox="-207.002 -690 2576 2132"
    underline-thickness="23"
    underline-position="-111"
    unicode-range="U+0020-U+FB04"
  />
<missing-glyph horiz-adv-x="1024" 
 />
    <glyph glyph-name="uniFB00" unicode="ff" horiz-adv-x="1266" 
d="M1309 1372c0 -18.667 -1.83496 -38.3291 -5.50195 -58.9961s-8.16699 -39.334 -13.5 -56.001l-188 9c4 20 6 44.333 6 73c0 20.667 -3.5 38.5 -10.5 53.5s-21.833 22.5 -44.5 22.5s-38.667 -11 -48 -33s-14 -58 -14 -108c0 -14.667 0.333008 -30.834 1 -48.501
s1.66699 -34.167 3 -49.5h267v-222h-256v-954h-324v954h-203v-954h-323v954h-156v222h156v118c0 46.667 7.83301 88.667 23.5 126s38.167 69.166 67.5 95.499s65 46.5 107 60.5s89.333 21 142 21c64.667 0 120 -4.66699 166 -14s86.667 -28.333 122 -57
c16.667 11.333 33.5 21.333 50.5 30s35 16 54 22s39.333 10.667 61 14s45.834 5 72.501 5c56.667 0 103.5 -5.5 140.5 -16.5s66.333 -26.333 88 -46s36.834 -43.334 45.501 -71.001s13 -58.167 13 -91.5zM681.998 1348c-17.333 23.333 -34.666 40.333 -51.999 51
s-37.666 16 -60.999 16c-14 0 -27.333 -1.5 -40 -4.5s-23.834 -7.66699 -33.501 -14s-17.5 -14.5 -23.5 -24.5s-9 -21.667 -9 -35c0 -28 0.666992 -55.667 2 -83s2.66602 -53.333 3.99902 -78h213v172z" />
    <glyph glyph-name="uniFB01" unicode="fi" horiz-adv-x="1100" 
d="M782 1372c0 -21.333 -1.66797 -41.667 -5.00098 -61s-7.66602 -37.333 -12.999 -54l-189 9c2.66699 12 4.5 23.333 5.5 34s1.5 23.667 1.5 39c0 20.667 -3.66699 38.5 -11 53.5s-22.333 22.5 -45 22.5c-24.667 0 -41 -12 -49 -36s-12 -59 -12 -105
c0 -17.333 0.333008 -34.166 1 -50.499s1.66699 -32.166 3 -47.499h156v-222h-146v-954h-323v954h-156v222h156v118c0 46.667 7.83301 88.667 23.5 126s38.167 69.166 67.5 95.499s65 46.5 107 60.5s89.333 21 142 21c56.667 0 103.5 -5.5 140.5 -16.5
s66.167 -26.333 87.5 -46s36.333 -43.334 45 -71.001s13 -58.167 13 -91.5zM679.999 -0.000976562v1176h324v-1176h-324z" />
    <glyph glyph-name="uniFB02" unicode="fl" horiz-adv-x="1102" 
d="M682 0l-0.000976562 1350c-19.333 25.333 -38.166 42.5 -56.499 51.5s-37.833 13.5 -58.5 13.5c-36.667 0 -63.167 -8.16699 -79.5 -24.5s-24.5 -36.833 -24.5 -61.5c0 -32.667 0.666992 -60.167 2 -82.5l4 -70.5h154v-222h-144v-954h-323v954h-156v222h156v118
c0 52.667 9 98.167 27 136.5s42.5 69.833 73.5 94.5s67.167 42.834 108.5 54.501s85 17.5 131 17.5c32.667 0 67.667 -1.5 105 -4.5s70.333 -9.5 99 -19.5h306v-1573h-324z" />
    <glyph glyph-name="uniFB03" unicode="ffi" horiz-adv-x="1626" 
d="M1309 1372c0 -21.333 -1.83105 -41.668 -5.49805 -61.001s-8.16699 -37.333 -13.5 -54l-188 9c2 12 3.5 23.333 4.5 34s1.5 23.667 1.5 39c0 20.667 -3.5 38.5 -10.5 53.5s-21.833 22.5 -44.5 22.5c-24.667 0 -41.167 -12.167 -49.5 -36.5s-12.5 -58.5 -12.5 -102.5
c0 -18.667 0.333008 -36.167 1 -52.5s1.66699 -32.166 3 -47.499h156v-222h-145v-954h-324v954h-203v-954h-323v954h-156v222h156v118c0 46.667 7.83301 88.667 23.5 126s38.167 69.166 67.5 95.499s65 46.5 107 60.5s89.333 21 142 21c64.667 0 120 -4.66699 166 -14
s86.667 -28.333 122 -57c30.667 22.667 64.667 40.167 102 52.5s82.666 18.5 135.999 18.5c59.333 0 107.666 -6 144.999 -18s66.5 -28.167 87.5 -48.5s35.333 -44.166 43 -71.499s11.5 -56.333 11.5 -87zM1206 -0.00195312v1176h324v-1176h-324zM682.002 1348
c-17.333 23.333 -34.666 40.333 -51.999 51s-37.666 16 -60.999 16c-14 0 -27.333 -1.5 -40 -4.5s-23.834 -7.66699 -33.501 -14s-17.5 -14.5 -23.5 -24.5s-9 -21.667 -9 -35c0 -28 0.666992 -55.667 2 -83s2.66602 -53.333 3.99902 -78h213v172z" />
    <glyph glyph-name="uniFB04" unicode="ffl" horiz-adv-x="1628" 
d="M1208 0l0.00195312 1350c-7.33301 7.33301 -14.333 14.833 -21 22.5s-14.334 14.667 -23.001 21s-18.5 11.5 -29.5 15.5s-24.5 6 -40.5 6c-37.333 0 -64.166 -8.16699 -80.499 -24.5s-24.5 -36.833 -24.5 -61.5c0 -32.667 0.666992 -60.167 2 -82.5l4 -70.5h154v-222
h-143v-954h-324v954h-203v-954h-323v954h-156v222h156v118c0 46.667 7.83301 88.667 23.5 126s38.167 69.166 67.5 95.499s65 46.5 107 60.5s89.333 21 142 21c64.667 0 120 -4.66699 166 -14s86.667 -28.333 122 -57c8.66699 6.66699 20.167 14.167 34.5 22.5
s31.333 16.166 51 23.499s42.167 13.333 67.5 18s53.666 7 84.999 7c32.667 0 67.667 -1.5 105 -4.5s70.666 -9.5 99.999 -19.5h305v-1573h-324zM682.002 1348c-17.333 23.333 -34.666 40.333 -51.999 51s-37.666 16 -60.999 16c-14 0 -27.333 -1.5 -40 -4.5
s-23.834 -7.66699 -33.501 -14s-17.5 -14.5 -23.5 -24.5s-9 -21.667 -9 -35c0 -28 0.666992 -55.667 2 -83s2.66602 -53.333 3.99902 -78h213v172z" />
    <glyph glyph-name=".notdef" horiz-adv-x="1024" 
 />
    <glyph glyph-name="space" unicode=" " horiz-adv-x="520" 
 />
    <glyph glyph-name="exclam" unicode="!" horiz-adv-x="426" 
d="M301 508h-166l-72 532v533h299v-533zM63 0v344h299v-344h-299z" />
    <glyph glyph-name="quotedbl" unicode="&#x22;" horiz-adv-x="920" 
d="M782 862h-225l-61 711h350zM360 862h-225l-61 711h350z" />
    <glyph glyph-name="numbersign" unicode="#" horiz-adv-x="1192" 
d="M1081 930h-184l-37 -287h182l-38 -315h-183l-41 -328h-184l41 328h-197l-43 -328h-182l39 328h-180l37 315h184l37 287h-182l38 315h183l41 328h184l-41 -328h197l43 328h182l-39 -328h180zM516 930l-37 -287h197l37 287h-197z" />
    <glyph glyph-name="dollar" unicode="$" horiz-adv-x="1096" 
d="M1028 463c0 -66 -6.49414 -128.832 -19.4941 -188.499s-35.5 -112 -67.5 -157s-75.333 -81.167 -130 -108.5s-123.667 -41.333 -207 -42v-194h-145v194c-59.333 0 -113.5 6.83301 -162.5 20.5s-91.333 35.167 -127 64.5s-63.334 66.5 -83.001 111.5
s-29.5 99.167 -29.5 162.5c0 14.667 0.666992 31.667 2 51s3.33301 38.833 6 58.5s6.16699 38.5 10.5 56.5s9.16602 33.667 14.499 47l287 24c-4 -10.667 -7.33301 -23.167 -10 -37.5s-5 -29 -7 -44s-3.5 -29.667 -4.5 -44s-1.5 -27.166 -1.5 -38.499
c0 -29.333 2.83301 -53.833 8.5 -73.5s13.334 -36.334 23.001 -50.001s20.834 -25 33.501 -34s26 -17.167 40 -24.5v451l-185 92c-36 18 -68 38.667 -96 62s-51.333 51.333 -70 84s-32.834 71 -42.501 115s-14.5 95.667 -14.5 155c0 50 9 100 27 150s44.5 95.167 79.5 135.5
s77.667 73 128 98s108.166 37.5 173.499 37.5v86h145v-86c57.333 -4 108.666 -14.833 153.999 -32.5s83.666 -42.334 114.999 -74.001s55.166 -70.5 71.499 -116.5s24.5 -99.333 24.5 -160c0 -19.333 -1.5 -39.166 -4.5 -59.499s-7.83301 -39.833 -14.5 -58.5h-262
c3.33301 15.333 6.16602 33 8.49902 53s3.5 42.667 3.5 68c0 19.333 -1.83301 37.833 -5.5 55.5s-9.33398 33.667 -17.001 48s-17.667 26.333 -30 36s-26.833 16.167 -43.5 19.5v-372l146 -60c40.667 -16 78 -36.333 112 -61s63.333 -55.834 88 -93.501
s43.834 -83 57.501 -136s20.5 -116.5 20.5 -190.5zM459.006 1376c-6 -2 -15.001 -6.16699 -27.001 -12.5s-23.667 -15.333 -35 -27s-21.333 -26.667 -30 -45s-13 -40.5 -13 -66.5c0 -16.667 1.5 -33.167 4.5 -49.5s8.33301 -31.833 16 -46.5s18.334 -28.167 32.001 -40.5
s31.167 -22.833 52.5 -31.5v319zM713.005 422.001c0 40 -7.66699 76.001 -23 108.001s-44 58.667 -86 80v-387c19.333 6 36 13.167 50 21.5s25.333 19.666 34 33.999s15 32.833 19 55.5s6 52 6 88z" />
    <glyph glyph-name="percent" unicode="%" horiz-adv-x="1808" 
d="M780 1053c0 -85.333 -6.50098 -157.333 -19.501 -216s-34 -106.167 -63 -142.5s-67.333 -62.5 -115 -78.5s-105.834 -24 -174.501 -24c-68 0 -125.333 8 -172 24s-84.667 42 -114 78s-50.5 83 -63.5 141s-19.5 129.333 -19.5 214c0 100.667 5.5 185.834 16.5 255.501
s30.5 126.167 58.5 169.5s65.833 74.666 113.5 93.999s107.834 29 180.501 29s132.834 -9.33301 180.501 -28s85.667 -49.334 114 -92.001s48.333 -98.667 60 -168s17.5 -154.666 17.5 -255.999zM661.999 -33h-173l660 1630h172zM1765 428
c0 -81.333 -6.50098 -150.998 -19.501 -208.998s-34 -105.667 -63 -143s-67.333 -64.833 -115 -82.5s-105.834 -26.5 -174.501 -26.5c-68 0 -125.333 8.16699 -172 24.5s-84.667 42.666 -114 78.999s-50.5 83.5 -63.5 141.5s-19.5 128.667 -19.5 212
c0 101.333 5.5 186.833 16.5 256.5s30.5 126.167 58.5 169.5s65.833 74.666 113.5 93.999s107.834 29 180.501 29s132.834 -9.5 180.501 -28.5s85.667 -50 114 -93s48.333 -99.167 60 -168.5s17.5 -154.333 17.5 -255zM501.998 1098
c0 62.667 -0.667969 114.336 -2.00098 155.003s-5 72.667 -11 96s-15 39.5 -27 48.5s-28.667 13.5 -50 13.5c-22 0 -39.333 -4.5 -52 -13.5s-22.167 -25.167 -28.5 -48.5s-10.333 -55.333 -12 -96s-2.5 -92.334 -2.5 -155.001s0.833008 -112.667 2.5 -150s5.5 -66 11.5 -86
s15 -33.167 27 -39.5s28.667 -9.5 50 -9.5c22.667 0 40.334 3.16699 53.001 9.5s22 19.666 28 39.999s9.66699 49.166 11 86.499s2 87 2 149zM1487 473.004c0 62.667 -0.667969 114.336 -2.00098 155.003s-5 72.667 -11 96s-15 39.5 -27 48.5s-28.667 13.5 -50 13.5
c-22 0 -39.333 -4.5 -52 -13.5s-22 -25.167 -28 -48.5s-9.83301 -55.333 -11.5 -96s-2.5 -92.334 -2.5 -155.001s0.666992 -112.667 2 -150s5 -66 11 -86s15 -33.167 27 -39.5s28.667 -9.5 50 -9.5c22.667 0 40.334 3.16699 53.001 9.5s22 19.666 28 39.999
s9.66699 49.166 11 86.499s2 87 2 149z" />
    <glyph glyph-name="ampersand" unicode="&#x26;" horiz-adv-x="1311" 
d="M1278 289c0 -70.667 -7.83203 -127.163 -23.499 -169.496s-37 -74.833 -64 -97.5s-58.5 -37.5 -94.5 -44.5s-74.333 -10.5 -115 -10.5c-36 0 -67 2.33301 -93 7s-49.167 12.167 -69.5 22.5s-38.833 24 -55.5 41s-33.334 37.833 -50.001 62.5
c-27.333 -28 -53.666 -50.667 -78.999 -68s-50.166 -30.833 -74.499 -40.5s-48.833 -16.167 -73.5 -19.5s-50 -5 -76 -5c-70 0 -129 12.5 -177 37.5s-86.667 58.5 -116 100.5s-50.333 90.5 -63 145.5s-19 112.167 -19 171.5s6.33301 114.333 19 165
s31.834 98.167 57.501 142.5s57.667 86.166 96 125.499s83.166 77.333 134.499 114l35 24c-6.66699 15.333 -13.167 31.666 -19.5 48.999s-11.833 36.5 -16.5 57.5s-8.33398 44.5 -11.001 70.5s-4 55 -4 87c0 53.333 9 101 27 143s42.333 77.667 73 107
s66.5 51.666 107.5 66.999s84.5 23 130.5 23c45.333 0 87.333 -7.83301 126 -23.5s72 -37.334 100 -65.001s49.833 -60.167 65.5 -97.5s23.5 -77.666 23.5 -120.999c0 -36 -3.5 -69.333 -10.5 -100s-20.167 -59 -39.5 -85s-45.833 -50.167 -79.5 -72.5
s-77.167 -42.833 -130.5 -61.5l125 -316l20.5 36.5c6.33301 11.667 12.166 23.334 17.499 35.001s10.5 23.667 15.5 36s10.167 25.833 15.5 40.5c6 14.667 12.333 31.667 19 51s13 39 19 59l17 59c5.33301 19.333 9.66602 36.666 12.999 51.999h193
c-14.667 -60.667 -31.5 -122.834 -50.5 -186.501s-41.167 -124.5 -66.5 -182.5c-10 -24.667 -19.667 -46.834 -29 -66.501l-28.5 -57.5l-30.5 -57.5l-35 -65.5l22 -64c4 -12 9 -24.5 15 -37.5s12.833 -24.667 20.5 -35s16.167 -18.833 25.5 -25.5s19.333 -10 30 -10
c11.333 0 20.333 3.33301 27 10s11.834 14.667 15.501 24s6 19.5 7 30.5s1.5 20.833 1.5 29.5c0 11.333 -0.333008 24.833 -1 40.5s-1.66699 31.5 -3 47.5s-3 31.333 -5 46s-4 26.667 -6 36h174c4 -15.333 7.5 -32 10.5 -50s5.16699 -36.333 6.5 -55
s2.33301 -37.167 3 -55.5s1 -35.166 1 -50.499zM764.001 1303c0 32 -6.33398 57.0029 -19.001 75.0029s-31.667 27 -57 27c-11.333 0 -21.5 -1.16699 -30.5 -3.5s-16.833 -7 -23.5 -14s-11.667 -16.5 -15 -28.5s-5 -27.333 -5 -46c0 -12.667 1.66699 -26.834 5 -42.501
s7.5 -31.334 12.5 -47.001s10.333 -30.334 16 -44.001s11.167 -25.167 16.5 -34.5c8.66699 4 18.834 10.167 30.501 18.5s22.667 19 33 32s19 28.333 26 46s10.5 38.167 10.5 61.5zM438 778.007c-26.667 -32.667 -46.3301 -67.833 -58.9971 -105.5s-19 -77.5 -19 -119.5
c0 -33.333 3 -67 9 -101s15.167 -64.833 27.5 -92.5s28.166 -50.167 47.499 -67.5s42.666 -26 69.999 -26c21.333 0 41.666 5.83301 60.999 17.5s35.333 25.167 48 40.5z" />
    <glyph glyph-name="quotesingle" unicode="'" horiz-adv-x="498" 
d="M360 862h-225l-61 711h350z" />
    <glyph glyph-name="parenleft" unicode="(" horiz-adv-x="674" 
d="M639 1597c-56 -70 -103.829 -143.832 -143.496 -221.499s-71.834 -156 -96.501 -235s-42.667 -156.667 -54 -233s-17 -148.166 -17 -215.499c0 -60 0.666992 -116.333 2 -169s4.83301 -103.334 10.5 -152.001s14 -96.334 25 -143.001s26 -94.334 45 -143.001
s42.833 -99 71.5 -151s63.334 -107.667 104.001 -167h-121c-76 62.667 -140.333 127 -193 193s-95.334 136.167 -128.001 210.5s-56.334 154.5 -71.001 240.5s-22 180.333 -22 283c0 100 11.167 195.333 33.5 286s54.166 174.667 95.499 252s91.166 146.833 149.499 208.5
s123.833 113.834 196.5 156.501h113z" />
    <glyph glyph-name="parenright" unicode=")" horiz-adv-x="674" 
d="M623 694c-0.666992 -102.667 -9.49805 -196.834 -26.498 -282.501s-42.5 -165.667 -76.5 -240s-76.833 -144.5 -128.5 -210.5s-112.5 -130.667 -182.5 -194h-121c40.667 59.333 75.334 115 104.001 167s52.5 102.333 71.5 151s34 96.334 45 143.001
s19.333 94.334 25 143.001s9.16699 99.334 10.5 152.001s2 109 2 169c0 67.333 -5.66699 139.166 -17 215.499s-29.333 154 -54 233s-56.834 157.333 -96.501 235s-87.5 151.5 -143.5 221.5h112c72.667 -42.667 138.5 -94.834 197.5 -156.501s109.167 -131.167 150.5 -208.5
s73.166 -161.333 95.499 -252s33.166 -186 32.499 -286z" />
    <glyph glyph-name="asterisk" unicode="*" horiz-adv-x="764" 
d="M612 1028l-147 84v-166h-166v166l-147 -84l-82 148l147 84l-147 81l82 148l147 -84v166h166v-166l147 84l82 -148l-147 -81l147 -84z" />
    <glyph glyph-name="plus" unicode="+" horiz-adv-x="877" 
d="M559 565v-243h-242v243h-243v242h243v242h242v-242h244v-242h-244z" />
    <glyph glyph-name="comma" unicode="," horiz-adv-x="463" 
d="M389 0c0 -37.333 -3.16699 -72.165 -9.5 -104.498s-16.833 -62 -31.5 -89s-34 -51 -58 -72s-53.667 -38.833 -89 -53.5c-19.333 -8.66699 -38.5 -15.167 -57.5 -19.5s-40.167 -8.16602 -63.5 -11.499l-25 112c22.667 7.33301 43.667 16.166 63 26.499
s36.666 22.166 51.999 35.499c14 12 24.833 24.5 32.5 37.5s13.334 26.833 17.001 41.5s5.5 30.167 5.5 46.5s-0.666992 33.166 -2 50.499h-149v344h315v-344z" />
    <glyph glyph-name="hyphen" unicode="-" horiz-adv-x="877" 
d="M74 565v242h729v-242h-729z" />
    <glyph glyph-name="hyphen" unicode="&#xad;" horiz-adv-x="877" 
d="M74 565v242h729v-242h-729z" />
    <glyph glyph-name="period" unicode="." horiz-adv-x="463" 
d="M74 0v344h315v-344h-315z" />
    <glyph glyph-name="slash" unicode="/" horiz-adv-x="954" 
d="M205 0h-203l750 1573h200z" />
    <glyph glyph-name="zero" unicode="0" horiz-adv-x="1024" 
d="M969 715c0 -146 -7.99805 -266.665 -23.998 -361.998s-42.167 -171 -78.5 -227s-83.833 -95.167 -142.5 -117.5s-130.667 -33.5 -216 -33.5c-56.667 0 -107.334 4.66699 -152.001 14s-83.834 25.166 -117.501 47.499s-62.167 52 -85.5 89s-42.5 82.667 -57.5 137
s-25.833 118.5 -32.5 192.5s-10 159.333 -10 256c0 114 3 215 9 303s16 164.833 30 230.5s32.333 121 55 166s50.834 81.333 84.501 109s73.334 47.5 119.001 59.5s98.167 18 157.5 18s112 -6 158 -18s86 -31.833 120 -59.5s62.667 -63.834 86 -108.501
s42.166 -99.667 56.499 -165s24.666 -141.833 30.999 -229.5s9.5 -188.167 9.5 -301.5zM621.002 770.002c0 124.667 -0.834961 227.502 -2.50195 308.502s-6 145.167 -13 192.5s-17.833 80.166 -32.5 98.499s-35 27.5 -61 27.5s-46.5 -9.16699 -61.5 -27.5
s-26.333 -51.166 -34 -98.499s-12.5 -111.5 -14.5 -192.5s-3 -183.833 -3 -308.5c0 -82 0.333008 -152.833 1 -212.5s2.33398 -110 5.00098 -151s6.33398 -74 11.001 -99s11 -44.333 19 -58s18 -22.834 30 -27.501s26.333 -7 43 -7c18 0 33.333 2.33301 46 7
s23.167 14 31.5 28s14.833 33.667 19.5 59s8.16699 58.5 10.5 99.5s3.83301 91.167 4.5 150.5s1 129.666 1 210.999z" />
    <glyph glyph-name="one" unicode="1" horiz-adv-x="768" 
d="M358 0v1120c-20.667 -7.33301 -45.834 -12.166 -75.501 -14.499s-69.167 -3.5 -118.5 -3.5c-23.333 0 -46.666 0.5 -69.999 1.5s-41.666 2.5 -54.999 4.5v182c19.333 2 42.166 5.16699 68.499 9.5s53.166 10 80.499 17s53.833 15.833 79.5 26.5s47.834 23 66.501 37
c17.333 13.333 32.833 26.833 46.5 40.5s26 28.334 37 44.001s21.333 32.334 31 50.001s19.167 37.167 28.5 58.5h195v-1573h-314z" />
    <glyph glyph-name="two" unicode="2" horiz-adv-x="973" 
d="M913 1100c0 -70 -13.333 -140.334 -40 -211.001s-61.667 -138.667 -105 -204s-92.333 -126.5 -147 -183.5s-110 -106.833 -166 -149.5l-70 -53h492v-299h-828v293l62 55c22 20 48.833 45.833 80.5 77.5s64.667 67.334 99 107.001s68.5 82.667 102.5 129
s64.5 94.166 91.5 143.499s48.833 99.5 65.5 150.5s25 101.167 25 150.5c0 71.333 -8.16699 125.333 -24.5 162s-46.833 55 -91.5 55c-39.333 0 -67.333 -19.5 -84 -58.5s-25 -91.167 -25 -156.5c0 -35.333 1.83301 -73 5.5 -113s8.16699 -78 13.5 -114l4 -29h-287l-10 66
c-5.33301 38.667 -9.5 78.334 -12.5 119.001s-4.5 80.667 -4.5 120c0 68.667 9.5 130.167 28.5 184.5s46.167 100.5 81.5 138.5s78.5 67 129.5 87s108.5 30 172.5 30c72.667 0 136.667 -8 192 -24s101.5 -43.167 138.5 -81.5s64.833 -89.333 83.5 -153
s28 -143.167 28 -238.5z" />
    <glyph glyph-name="three" unicode="3" horiz-adv-x="961" 
d="M918 518c0 -103.333 -11.165 -189.832 -33.498 -259.499s-53.666 -125.5 -93.999 -167.5s-89.166 -71.833 -146.499 -89.5s-121 -26.5 -191 -26.5c-60.667 0 -115.5 7.5 -164.5 22.5s-91 37.5 -126 67.5s-62 67.5 -81 112.5s-28.5 97.833 -28.5 158.5
c0 39.333 1 79.166 3 119.499s9.33301 76.833 22 109.5l293 17c-2 -19.333 -3.5 -39.5 -4.5 -60.5s-1.5 -47.5 -1.5 -79.5c0 -58.667 6.83301 -104.667 20.5 -138s36.167 -50 67.5 -50c18.667 0 35 3.33301 49 10s25.667 19.5 35 38.5s16.333 46 21 81s7 80.5 7 136.5
c0 46.667 -3.16699 86.834 -9.5 120.501s-15.333 61.167 -27 82.5s-25.834 37.166 -42.501 47.499s-35.334 15.5 -56.001 15.5c-18.667 0 -33.334 -2.66699 -44.001 -8s-18.667 -10 -24 -14l-18 -12l-139 159l305 371h-412v291h746v-287l-266 -323
c20 0 38.333 -1.83301 55 -5.5s31.667 -8.16699 45 -13.5c26.667 -10 54.167 -24.833 82.5 -44.5s54.166 -46.167 77.499 -79.5s42.5 -74.5 57.5 -123.5s22.5 -108.5 22.5 -178.5z" />
    <glyph glyph-name="four" unicode="4" horiz-adv-x="991" 
d="M795 233v-233h-318v233h-420v375l424 965h314v-1079h155v-261h-155zM477 1010l-219 -516h219v516z" />
    <glyph glyph-name="five" unicode="5" horiz-adv-x="940" 
d="M889 510c0 -103.333 -10.8379 -189.831 -32.5049 -259.498s-51.5 -125.5 -89.5 -167.5s-83 -71.833 -135 -89.5s-108.333 -26.5 -169 -26.5c-274.667 0 -412 121.667 -412 365c0 34.667 0.833008 68.5 2.5 101.5s5.83398 67.5 12.501 103.5l270 -2
c-8 -43.333 -12 -97.333 -12 -162c0 -16 1.66699 -33 5 -51s9.33301 -34.5 18 -49.5s20.167 -27.333 34.5 -37s32.5 -14.5 54.5 -14.5c18.667 0 35 4.66699 49 14s25.667 25.166 35 47.499s16.5 52.166 21.5 89.499s7.5 84 7.5 140c0 46.667 -1 88.667 -3 126
s-6.16699 69.166 -12.5 95.499s-15.833 46.5 -28.5 60.5s-29.334 21 -50.001 21c-17.333 0 -32.166 -3.66699 -44.499 -11s-22.666 -17.166 -30.999 -29.499s-14.666 -26.333 -18.999 -42s-7.16602 -31.834 -8.49902 -48.501l-276 18l39 871h680l-13 -303h-426l-18 -297
c12 14 24.5 26.333 37.5 37s28 19.667 45 27s36.833 12.833 59.5 16.5s49 5.5 79 5.5c104.667 0 185.834 -45.667 243.501 -137s86.5 -228.666 86.5 -411.999z" />
    <glyph glyph-name="six" unicode="6" horiz-adv-x="995" 
d="M944 504c0 -82.667 -7.83301 -153.331 -23.5 -211.998s-36.167 -107.5 -61.5 -146.5s-54 -69.833 -86 -92.5s-64 -39.834 -96 -51.501s-62.667 -19 -92 -22s-54.333 -4.5 -75 -4.5c-86.667 0 -159.167 14.667 -217.5 44s-105.333 76.5 -141 141.5s-61 149 -76 252
s-22.5 228.167 -22.5 375.5c0 114 4.83301 213.167 14.5 297.5s23.834 156.5 42.501 216.5s41.834 109.167 69.501 147.5s59.167 68.333 94.5 90s74.666 36.667 117.999 45s90 12.5 140 12.5c124.667 0 220.5 -29.833 287.5 -89.5s100.5 -146.5 100.5 -260.5
c0 -23.333 -0.833008 -44.666 -2.5 -63.999s-5.16699 -38.333 -10.5 -57l-327 -12c10.667 30.667 16 60.667 16 90c0 48 -5.83301 85.667 -17.5 113s-33.834 41 -66.501 41c-19.333 0 -36.833 -4.16699 -52.5 -12.5s-29 -23.833 -40 -46.5s-19.5 -54 -25.5 -94
s-9 -91.333 -9 -154c0 -25.333 0.166992 -44.833 0.5 -58.5s1.5 -27.834 3.5 -42.501c5.33301 10.667 13.5 21.667 24.5 33s24.667 21.833 41 31.5s35 17.5 56 23.5s44.167 9 69.5 9c18.667 0 40.667 -2.5 66 -7.5s51.5 -14.5 78.5 -28.5s53.5 -33.5 79.5 -58.5
s49.5 -57.5 70.5 -97.5s37.833 -88.833 50.5 -146.5s19 -125.834 19 -204.501zM614 537.003c0 41.333 -0.831055 77.333 -2.49805 108s-6.33398 56.167 -14.001 76.5s-19.167 35.5 -34.5 45.5s-36.333 15 -63 15c-39.333 0 -66.333 -20 -81 -60s-22 -101.667 -22 -185
c0 -65.333 1.66699 -118.166 5 -158.499s8.83301 -71.5 16.5 -93.5s18.167 -36.833 31.5 -44.5s30 -11.5 50 -11.5c22.667 0 41.5 3.5 56.5 10.5s26.667 21.333 35 43s14.166 52.667 17.499 93s5 94.166 5 161.499z" />
    <glyph glyph-name="seven" unicode="7" horiz-adv-x="856" 
d="M807 1255c-48.667 -68 -90.833 -140.505 -126.5 -217.505s-65 -155.333 -88 -235s-40.167 -159.167 -51.5 -238.5s-17 -155.333 -17 -228c0 -32.667 0.833008 -66 2.5 -100s3.66699 -66.167 6 -96.5s4.83301 -57.666 7.5 -81.999s5 -43.5 7 -57.5h-354
c-2 14.667 -3.66699 28.334 -5 41.001l-4 38c-1.33301 12.667 -2.33301 25.5 -3 38.5s-1 27.167 -1 42.5c0 77.333 5.33301 154.333 16 231s24.667 150.834 42 222.501s37.5 139.834 60.5 204.501s46.833 123.834 71.5 177.501s49.5 100.5 74.5 140.5s48.167 71 69.5 93
l43 45h-524v299h811v-266z" />
    <glyph glyph-name="eight" unicode="8" horiz-adv-x="936" 
d="M885 446c0 -62 -7.83105 -121.332 -23.498 -177.999s-40.167 -106.667 -73.5 -150s-76.5 -78 -129.5 -104s-116.833 -39 -191.5 -39c-73.333 0 -136.5 13 -189.5 39s-96.833 60.667 -131.5 104s-60.167 93.333 -76.5 150s-24.5 116 -24.5 178c0 38 2.33301 75 7 111
s13 69.667 25 101s28.167 60.166 48.5 86.499s46.166 49.166 77.499 68.499l30 18l-30 15c-18 8 -35 21 -51 39s-29.833 40.167 -41.5 66.5s-21 57 -28 92s-10.5 74.167 -10.5 117.5c0 70 9.16699 132 27.5 186s44.5 99.5 78.5 136.5s75.333 65.167 124 84.5
s103.667 29 165 29c62 0 117.5 -9.83301 166.5 -29.5s90.333 -48.167 124 -85.5s59.5 -83 77.5 -137s27 -115.333 27 -184c0 -30.667 -2.66699 -62.5 -8 -95.5s-12.833 -64 -22.5 -93s-21.334 -54.5 -35.001 -76.5s-29.167 -37.333 -46.5 -46l-37 -19l35 -18
c19.333 -10 37.333 -25.667 54 -47s31.167 -47.5 43.5 -78.5s22 -66.667 29 -107s10.5 -85.166 10.5 -134.499zM559.002 1167c0 41.333 -1.5 75.666 -4.5 102.999s-8 49.166 -15 65.499s-16.333 27.833 -28 34.5s-26.5 10 -44.5 10c-18.667 0 -33.667 -3.16699 -45 -9.5
s-20.166 -17.666 -26.499 -33.999s-10.666 -38.166 -12.999 -65.499s-3.5 -62 -3.5 -104c0 -45.333 1.16699 -82.5 3.5 -111.5s6.66602 -52.167 12.999 -69.5s15.166 -29.333 26.499 -36s26.333 -10 45 -10s34 3.16699 46 9.5s21.5 17.833 28.5 34.5s11.667 39.667 14 69
s3.5 67.333 3.5 114zM573.002 467.001c0 52.667 -1.83008 95.333 -5.49707 128s-9.5 58 -17.5 76s-18.833 30.167 -32.5 36.5s-30.5 9.5 -50.5 9.5c-19.333 0 -35.5 -3.33301 -48.5 -10s-23.5 -19.334 -31.5 -38.001s-13.667 -44.167 -17 -76.5s-5 -74.166 -5 -125.499
c0 -56.667 1.16699 -102 3.5 -136s7.16602 -60 14.499 -78s17.666 -29.833 30.999 -35.5s31 -8.5 53 -8.5c23.333 0 42 2.83301 56 8.5s24.667 17.5 32 35.5s12.166 44 14.499 78s3.5 79.333 3.5 136z" />
    <glyph glyph-name="nine" unicode="9" horiz-adv-x="997" 
d="M936 776c0 -114 -4.83496 -213.171 -14.502 -297.504s-23.667 -156.5 -42 -216.5s-41.166 -109 -68.499 -147s-58.666 -68 -93.999 -90s-74.5 -37.167 -117.5 -45.5s-89.833 -12.5 -140.5 -12.5c-124.667 0 -220.334 30 -287.001 90s-100 146.667 -100 260
c0 24 0.833008 45.5 2.5 64.5s5.5 37.833 11.5 56.5l326 13c-11.333 -30 -17 -60.333 -17 -91c0 -48 6.16699 -85.5 18.5 -112.5s34.833 -40.5 67.5 -40.5c18.667 0 35.834 4.16699 51.501 12.5s28.834 23.833 39.501 46.5s19 53.834 25 93.501s9 91.167 9 154.5
c0 24.667 -0.5 43.834 -1.5 57.501s-2.5 26.5 -4.5 38.5l-29 -28c-24.667 -25.333 -50.167 -42.333 -76.5 -51s-53.833 -13 -82.5 -13c-18.667 0 -40.5 2.5 -65.5 7.5s-50.833 14.667 -77.5 29s-53 34.166 -79 59.499s-49.333 58.333 -70 99s-37.334 89.834 -50.001 147.501
s-19 125.834 -19 204.501c0 82.667 7.83301 153.334 23.5 212.001s36 107.667 61 147s53.333 70.5 85 93.5s63.5 40.333 95.5 52s62.667 19.167 92 22.5s54.333 5 75 5c86.667 0 159 -15.167 217 -45.5s104.5 -78.333 139.5 -144s59.833 -150.5 74.5 -254.5
s22 -229.667 22 -377zM593.998 1028c0 64.667 -1.33398 117.334 -4.00098 158.001s-7.66699 72.667 -15 96s-17.666 39.333 -30.999 48s-30.666 13 -51.999 13c-25.333 0 -45.5 -4 -60.5 -12s-26.5 -23.5 -34.5 -46.5s-13.333 -55 -16 -96s-4 -94.5 -4 -160.5
c0 -41.333 1 -77.5 3 -108.5s6.83301 -56.667 14.5 -77s19.167 -35.5 34.5 -45.5s36.333 -15 63 -15c39.333 0 66.166 20.167 80.499 60.5s21.5 102.166 21.5 185.499z" />
    <glyph glyph-name="colon" unicode=":" horiz-adv-x="471" 
d="M80 750v344h315v-344h-315zM80 0v344h315v-344h-315z" />
    <glyph glyph-name="semicolon" unicode=";" horiz-adv-x="471" 
d="M80 750v344h315v-344h-315zM395 0c0 -37.333 -3.16699 -72.165 -9.5 -104.498s-16.833 -62 -31.5 -89s-34 -51 -58 -72s-53.667 -38.833 -89 -53.5c-19.333 -8.66699 -38.5 -15.167 -57.5 -19.5s-40.167 -8.16602 -63.5 -11.499l-25 112
c22.667 7.33301 43.667 16.166 63 26.499s36.666 22.166 51.999 35.499c14 12 24.833 24.5 32.5 37.5s13.334 26.833 17.001 41.5s5.66699 30.167 6 46.5s-0.5 33.166 -2.5 50.499h-149v344h315v-344z" />
    <glyph glyph-name="less" unicode="&#x3c;" horiz-adv-x="748" 
d="M74 549v221l600 307v-235l-363 -183l363 -182v-235z" />
    <glyph glyph-name="equal" unicode="=" horiz-adv-x="877" 
d="M74 758v225h729v-225h-729zM74 348v225h729v-225h-729z" />
    <glyph glyph-name="greater" unicode="&#x3e;" horiz-adv-x="748" 
d="M74 242v235l362 182l-362 183v235l600 -307v-221z" />
    <glyph glyph-name="question" unicode="?" horiz-adv-x="827" 
d="M780 1122c0 -74 -3.16699 -138.332 -9.5 -192.999s-15.333 -101.334 -27 -140.001s-25.667 -70.5 -42 -95.5s-34.666 -44.5 -54.999 -58.5s-42.333 -23.667 -66 -29s-48.5 -8 -74.5 -8c-26.667 0 -49.834 1.83301 -69.501 5.5s-37 9 -52 16s-28.5 15.667 -40.5 26
s-23.667 21.833 -35 34.5v-240h-184v561h184c0 -49.333 6.16699 -86.5 18.5 -111.5s32.833 -37.5 61.5 -37.5c15.333 0 28.333 3.83301 39 11.5s19.334 21.334 26.001 41.001s11.5 46.167 14.5 79.5s4.5 76 4.5 128c0 50 -1.83301 90.667 -5.5 122
s-9.16699 55.833 -16.5 73.5s-16.333 29.834 -27 36.501s-23 10 -37 10c-26.667 0 -49.334 -7.83301 -68.001 -23.5s-28 -42.834 -28 -81.501c0 -28.667 0.666992 -52.334 2 -71.001s4 -36.667 8 -54h-213c-7.33301 22.667 -12.5 46.5 -15.5 71.5s-4.5 52.5 -4.5 82.5
c0 43.333 5.5 84.333 16.5 123s29.667 72.5 56 101.5s61.333 52 105 69s98.5 25.5 164.5 25.5c79.333 0 143.166 -12.5 191.499 -37.5s85.833 -59 112.5 -102s44.334 -93.333 53.001 -151s13 -119.167 13 -184.5zM68 0.000976562v344h299v-344h-299z" />
    <glyph glyph-name="at" unicode="@" horiz-adv-x="1788" 
d="M1694 862c0 -93.333 -13.166 -176.833 -39.499 -250.5s-60.666 -136.167 -102.999 -187.5s-90.333 -90.5 -144 -117.5s-107.834 -40.5 -162.501 -40.5c-40.667 0 -75.5 3 -104.5 9s-53 14.333 -72 25s-33.5 23.167 -43.5 37.5s-16.333 30.166 -19 47.499
c-10 -14 -21.667 -28.667 -35 -44s-30.333 -29.333 -51 -42s-46.5 -23 -77.5 -31s-69.5 -12 -115.5 -12c-32.667 0 -63.834 4.33301 -93.501 13s-55.667 22 -78 40s-40 41 -53 69s-19.5 61.667 -19.5 101c0 50.667 6.5 94.834 19.5 132.501s30.833 70.167 53.5 97.5
s49.834 50.166 81.501 68.499s66.334 33.5 104.001 45.5s77.334 21.167 119.001 27.5s84.5 11.5 128.5 15.5l10 72c5.33301 30.667 3.5 56 -5.5 76s-30.167 30 -63.5 30c-23.333 0 -40.833 -9.83301 -52.5 -29.5s-17.5 -43.834 -17.5 -72.501v-14
c0 -5.33301 0.666992 -9.66602 2 -12.999l-311 -43c-1.33301 10.667 -2.33301 21 -3 31s-1 19.667 -1 29c0 48 7.83301 90.833 23.5 128.5s40.5 69.334 74.5 95.001s78.167 45.334 132.5 59.001s120.166 20.5 197.499 20.5c64.667 0 119.667 -7.83301 165 -23.5
s82 -37 110 -64s48 -58.833 60 -95.5s17 -76 15 -118c-2.66699 -40 -5.83398 -75.833 -9.50098 -107.5s-8.33398 -63 -14.001 -94l-18.5 -98l-23 -120.5c-2 -8.66699 -2.66699 -17.667 -2 -27s2.83398 -18 6.50098 -26s9.33398 -14.5 17.001 -19.5s17.5 -7.5 29.5 -7.5
c16.667 0 34.834 3.16699 54.501 9.5s39.167 16.333 58.5 30s38.166 31.5 56.499 53.5s34.5 48.667 48.5 80s25.167 68 33.5 110s12.5 89.667 12.5 143c0 110 -18 205.5 -54 286.5s-84.333 148 -145 201s-131.167 92.5 -211.5 118.5s-164.833 39 -253.5 39
c-70.667 0 -137.167 -9.16699 -199.5 -27.5s-119.833 -44.5 -172.5 -78.5s-99.667 -74.833 -141 -122.5s-76.5 -100.834 -105.5 -159.501s-51.167 -121.834 -66.5 -189.501s-23 -138.5 -23 -212.5c0 -114 16.833 -216.833 50.5 -308.5s81.167 -169.667 142.5 -234
s135.333 -114 222 -149s183 -52.5 289 -52.5c42 0 83.833 4.33301 125.5 13s81.5 20.5 119.5 35.5s73.333 32.833 106 53.5s61 43.334 85 68.001l64 -92c-26.667 -23.333 -57.334 -46.166 -92.001 -68.499s-73.167 -42.333 -115.5 -60s-88.5 -32 -138.5 -43
s-104 -16.5 -162 -16.5c-130.667 0 -247.167 20 -349.5 60s-188.833 97.167 -259.5 171.5s-124.667 164.166 -162 269.499s-56 223.666 -56 354.999c0 129.333 19.5 248 58.5 356s95.167 200.833 168.5 278.5s163.166 138 269.499 181s226.833 64.5 361.5 64.5
c106 0 205.333 -15.667 298 -47s173.5 -77.666 242.5 -138.999s123.5 -138 163.5 -230s60 -198.333 60 -319zM965.001 700c-4.66699 0 -11.168 0.334961 -19.501 1.00195s-15.5 1 -21.5 1c-21.333 0 -40.5 -2.5 -57.5 -7.5s-31.667 -13.833 -44 -26.5
s-21.833 -29.334 -28.5 -50.001s-10 -47 -10 -79c0 -26 4.83301 -44.5 14.5 -55.5s26.834 -16.5 51.501 -16.5s46.167 9.16699 64.5 27.5s29.5 48.166 33.5 89.499z" />
    <glyph glyph-name="A" unicode="A" horiz-adv-x="1020" 
d="M627 0l-45 272h-232l-41 -272h-295l301 1573h349l333 -1573h-370zM451 987l-70 -495h164z" />
    <glyph glyph-name="B" unicode="B" horiz-adv-x="1032" 
d="M993 444c0 -81.333 -7.66602 -150.167 -22.999 -206.5s-37.5 -102.166 -66.5 -137.499s-64.333 -60.833 -106 -76.5s-89.167 -23.5 -142.5 -23.5h-563v1573h483c66 0 122.833 -11.167 170.5 -33.5s87 -52.833 118 -91.5s53.833 -84.334 68.5 -137.001
s22 -109.334 22 -170.001c0 -86.667 -14.5 -156.167 -43.5 -208.5s-70.5 -88.166 -124.5 -107.499c30.667 -9.33301 58.667 -23.666 84 -42.999s47.166 -44.5 65.499 -75.5s32.5 -68.333 42.5 -112s15 -93.834 15 -150.501zM610.001 1112
c0 28.667 -1.83203 55.167 -5.49902 79.5s-9.83398 45.333 -18.501 63s-20 31.5 -34 41.5s-31.333 15 -52 15h-80v-361h84c37.333 0 64.333 14 81 42s25 68 25 120zM639.002 474.999c0 27.333 -2.49805 53.833 -7.49805 79.5s-12.833 48.5 -23.5 68.5
s-24.834 36.167 -42.501 48.5s-38.834 18.5 -63.501 18.5h-82v-422h86c19.333 0 37.166 3 53.499 9s30.333 16.667 42 32s20.834 36.5 27.501 63.5s10 61.167 10 102.5z" />
    <glyph glyph-name="C" unicode="C" horiz-adv-x="1022" 
d="M973 442c0 -76 -8.33789 -143.668 -25.0049 -203.001s-43.334 -109.333 -80.001 -150s-84.167 -71.5 -142.5 -92.5s-128.833 -31.5 -211.5 -31.5c-80 0 -149.333 11.167 -208 33.5s-107.334 61.333 -146.001 117s-67.5 130.834 -86.5 225.501
s-28.5 214.334 -28.5 359.001c0 161.333 7.33301 298.833 22 412.5s40.5 206.334 77.5 278.001s87 124 150 157s143.167 49.5 240.5 49.5c72.667 0 135.334 -9.33301 188.001 -28s96.334 -45.667 131.001 -81s60.334 -78.166 77.001 -128.499s25 -106.833 25 -169.5
c0 -14 -1 -31.833 -3 -53.5s-4.5 -44.167 -7.5 -67.5s-6.33301 -46.333 -10 -69s-6.83398 -41.334 -9.50098 -56.001l-301 -2l2.5 34l3 42c1 14.667 1.66699 29.5 2 44.5s0.5 28.833 0.5 41.5c0 42 -1.33301 77 -4 105s-7.66699 50.167 -15 66.5s-17.166 28 -29.499 35
s-28.166 10.5 -47.499 10.5c-26 0 -47.167 -8.66699 -63.5 -26s-29 -47 -38 -89s-15.167 -98.167 -18.5 -168.5s-5 -158.166 -5 -263.499c0 -81.333 0.5 -150.833 1.5 -208.5s3.16699 -105.834 6.5 -144.501s7.83301 -69.334 13.5 -92.001s13 -39.834 22 -51.501
s20 -19.167 33 -22.5s28.5 -5 46.5 -5c46.667 0 79 20.667 97 62s27 104 27 188c0 16.667 0.166992 32.5 0.5 47.5s0.5 30.333 0.5 46s-0.166992 32 -0.5 49s-1.16602 36.167 -2.49902 57.5l295 -4c4 -22.667 7.33301 -44 10 -64s4.83398 -40 6.50098 -60
s2.83398 -40.5 3.50098 -61.5s1 -43.833 1 -68.5z" />
    <glyph glyph-name="D" unicode="D" horiz-adv-x="1071" 
d="M1026 713c0 -103.333 -7.16797 -198.669 -21.501 -286.002s-39 -162.666 -74 -225.999s-81.5 -112.666 -139.5 -147.999s-130.667 -53 -218 -53h-481v1573h506c72 0 134.833 -20.5 188.5 -61.5s98.334 -99 134.001 -174s62.167 -165.5 79.5 -271.5s26 -223.667 26 -353z
M677.999 749.997c0 105.333 -2.00098 193.5 -6.00098 264.5s-12 128.167 -24 171.5s-29.167 74.333 -51.5 93s-51.833 28 -88.5 28h-76v-1022h80c28 0 52.5 5.5 73.5 16.5s38.333 33 52 66s23.834 80 30.501 141s10 141.5 10 241.5z" />
    <glyph glyph-name="E" unicode="E" horiz-adv-x="954" 
d="M92 0v1573h785v-297h-437v-328h389v-289h-389v-358h478v-301h-826z" />
    <glyph glyph-name="F" unicode="F" horiz-adv-x="891" 
d="M440 1260v-342h369v-289h-369v-629h-348v1573h764v-313h-416z" />
    <glyph glyph-name="G" unicode="G" horiz-adv-x="1061" 
d="M821 0l-37 104.002l-45 -38c-20.667 -17.333 -40.334 -32.333 -59.001 -45s-38 -23 -58 -31s-41.667 -13.833 -65 -17.5s-50 -5.5 -80 -5.5c-72 0 -135 12.167 -189 36.5s-99 66 -135 125s-63 138.167 -81 237.5s-27 224.333 -27 375
c0 161.333 8.16699 296.666 24.5 405.999s43.5 197.333 81.5 264s88.5 114.334 151.5 143.001s141.167 43 234.5 43c68.667 0 130.334 -8 185.001 -24s101 -40.833 139 -74.5s67.167 -76.834 87.5 -129.501s30.5 -115.667 30.5 -189c0 -14 -0.666992 -31.5 -2 -52.5
s-3.16602 -42.5 -5.49902 -64.5s-5 -43 -8 -63s-6.16699 -36 -9.5 -48l-301 -8c1.33301 11.333 2.66602 25 3.99902 41s2.5 33.333 3.5 52s1.83301 37.667 2.5 57s1 37.666 1 54.999c0 24.667 -2.33301 47.5 -7 68.5s-12 39.333 -22 55s-23.167 28 -39.5 37
s-35.833 13.5 -58.5 13.5c-26 0 -47.667 -7.66699 -65 -23s-31.166 -44.333 -41.499 -87s-17.5 -101.667 -21.5 -177s-6 -173 -6 -293c0 -72.667 1 -135.167 3 -187.5s5.16699 -96.5 9.5 -132.5s10.166 -65 17.499 -87s16.5 -38.833 27.5 -50.5s24 -19.5 39 -23.5
s32.167 -6 51.5 -6c26 0 47.833 4.5 65.5 13.5s31.667 23 42 42s17.833 43.5 22.5 73.5s7 65.667 7 107v94h-160v221h459v-807h-166z" />
    <glyph glyph-name="H" unicode="H" horiz-adv-x="1087" 
d="M647 0v725h-207v-725h-348v1573h348v-584h207v584h348v-1573h-348z" />
    <glyph glyph-name="I" unicode="I" horiz-adv-x="532" 
d="M92 0v1573h348v-1573h-348z" />
    <glyph glyph-name="J" unicode="J" horiz-adv-x="985" 
d="M903 449c0 -67.333 -9.16211 -129.835 -27.4951 -187.502s-46.333 -107.834 -84 -150.501s-84.834 -76 -141.501 -100s-123 -36 -199 -36c-70 0 -131.833 11.333 -185.5 34s-98.834 54.667 -135.501 96s-64.5 90.833 -83.5 148.5s-28.5 121.834 -28.5 192.501
c0 24.667 1.5 49.834 4.5 75.501s7 50.5 12 74.5s10.667 46.5 17 67.5s12.5 39.5 18.5 55.5l299 10c-2 -17.333 -4.33301 -36.166 -7 -56.499s-5 -40.666 -7 -60.999s-3.66699 -40.5 -5 -60.5s-2 -38.333 -2 -55c0 -39.333 1.83301 -72.5 5.5 -99.5s9.5 -48.833 17.5 -65.5
s18.167 -28.834 30.5 -36.501s27.166 -11.5 44.499 -11.5c16.667 0 31.667 3.16699 45 9.5s24.666 17.166 33.999 32.499s16.666 35.833 21.999 61.5s8 57.834 8 96.501v1090h348v-1124z" />
    <glyph glyph-name="K" unicode="K" horiz-adv-x="1067" 
d="M684 0l-244 651v-651h-348v1573h348v-578l236 578h354l-303 -699l350 -874h-393z" />
    <glyph glyph-name="L" unicode="L" horiz-adv-x="844" 
d="M92 0v1573h348v-1272h389v-301h-737z" />
    <glyph glyph-name="M" unicode="M" horiz-adv-x="1413" 
d="M1001 0v1130l-208 -1130h-220l-180 1130v-1130h-301v1573h465l148 -750l131 750h485v-1573h-320z" />
    <glyph glyph-name="N" unicode="N" horiz-adv-x="1063" 
d="M713 0l-336 831v-831h-285v1573h303l303 -748v748h273v-1573h-258z" />
    <glyph glyph-name="O" unicode="O" horiz-adv-x="1012" 
d="M967 788c0 -100.667 -2.5 -190.667 -7.5 -270s-14 -149.166 -27 -209.499s-30.5 -111.5 -52.5 -153.5s-50 -76.333 -84 -103s-74.833 -46.167 -122.5 -58.5s-103.5 -18.5 -167.5 -18.5c-56.667 0 -107.334 4.66699 -152.001 14s-84 25.833 -118 49.5
s-63.167 55.167 -87.5 94.5s-44.166 89.166 -59.499 149.499s-26.5 132 -33.5 215s-10.5 179.833 -10.5 290.5c0 136.667 7 255.667 21 357s38.5 185.5 73.5 252.5s82.167 117 141.5 150s134.333 49.5 225 49.5c88 0 161.5 -14.5 220.5 -43.5s106.333 -75.667 142 -140
s61 -147.833 76 -250.5s22.5 -227.667 22.5 -375zM610 784c0 108.667 -0.335938 198.166 -1.00293 268.499s-4.16699 126 -10.5 167s-16.666 69.5 -30.999 85.5s-34.833 24 -61.5 24c-26 0 -46.167 -8.16699 -60.5 -24.5s-24.833 -45 -31.5 -86s-10.5 -96.667 -11.5 -167
s-1.5 -159.5 -1.5 -267.5c0 -76 0.333008 -141.833 1 -197.5s2.33398 -102.834 5.00098 -141.501s6.16699 -70 10.5 -94s10.5 -42.5 18.5 -55.5s17.667 -21.833 29 -26.5s25 -7 41 -7c24.667 0 43.834 5.83301 57.501 17.5s24 35.834 31 72.501s11.333 89.334 13 158.001
s2.5 160 2.5 274z" />
    <glyph glyph-name="P" unicode="P" horiz-adv-x="1016" 
d="M977 1049c0 -96.667 -9.16699 -176.499 -27.5 -239.499s-45 -112.833 -80 -149.5s-78.167 -62.334 -129.5 -77.001s-109.666 -22 -174.999 -22h-133v-561h-340v1573h426c69.333 0 132.166 -8.16699 188.499 -24.5s104.5 -44.5 144.5 -84.5s71 -93.667 93 -161
s33 -152 33 -254zM633 1065c0 46 -2.5 84.168 -7.5 114.501s-12.667 54.333 -23 72s-24 30.167 -41 37.5s-37.5 11 -61.5 11h-68v-460h70c46 0 79.333 17.667 100 53s31 92.666 31 171.999z" />
    <glyph glyph-name="Q" unicode="Q" horiz-adv-x="1012" 
d="M967 788c-1.33301 -144 -6.83594 -266.001 -16.5029 -366.001s-26.334 -182 -50.001 -246s-55.167 -112.167 -94.5 -144.5s-89 -52.5 -149 -60.5l-57 -6l-2 -24c-4 -44 1 -75.833 15 -95.5s33.667 -29.5 59 -29.5c18 0 32.5 3 43.5 9s19.333 14 25 24s8.5 21.333 8.5 34
s-2 25.667 -6 39h185l6 -53c4.66699 -43.333 -0.166016 -81 -14.499 -113s-34.666 -58.5 -60.999 -79.5s-57.666 -36.833 -93.999 -47.5s-74.166 -16 -113.499 -16c-43.333 0 -82.5 5.33301 -117.5 16s-64.667 26.667 -89 48s-43 48 -56 80s-19.5 69.333 -19.5 112
c0 19.333 0.5 38 1.5 56s2.5 32 4.5 42l-21 2c-34 3.33301 -65.167 10.333 -93.5 21s-53.833 27.667 -76.5 51s-42.667 54.333 -60 93s-31.833 87.834 -43.5 147.501s-20.5 131 -26.5 214s-9 180.5 -9 292.5c0 136.667 7 255.667 21 357s38.5 185.5 73.5 252.5
s82.167 117 141.5 150s134.333 49.5 225 49.5c88 0 161.333 -16.5 220 -49.5s105.667 -83 141 -150s60.5 -151.167 75.5 -252.5s23.167 -220.333 24.5 -357zM609.997 783.999c0 106.667 -0.335938 195.002 -1.00293 265.002s-4.16699 125.667 -10.5 167
s-16.666 70.5 -30.999 87.5s-34.833 25.5 -61.5 25.5c-26 0 -46.167 -8.5 -60.5 -25.5s-24.833 -46.333 -31.5 -88s-10.5 -97.5 -11.5 -167.5s-1.5 -158 -1.5 -264c0 -75.333 0.333008 -140.666 1 -195.999s2.33398 -102.333 5.00098 -141s6.16699 -70 10.5 -94
s10.5 -42.833 18.5 -56.5s17.667 -22.834 29 -27.501s25 -7 41 -7c24.667 0 43.834 6.33301 57.501 19s24 37.667 31 75s11.333 90.166 13 158.499s2.5 158.166 2.5 269.499z" />
    <glyph glyph-name="R" unicode="R" horiz-adv-x="1044" 
d="M987 1087c0 -64.667 -5.50293 -118.999 -16.5029 -162.999s-26.833 -80.5 -47.5 -109.5s-45.334 -51.333 -74.001 -67s-61 -27.167 -97 -34.5c34 -8.66699 63.333 -21.334 88 -38.001s45.334 -39.5 62.001 -68.5s29.334 -65.167 38.001 -108.5s14.667 -96 18 -158
c1.33301 -30.667 2.5 -60.834 3.5 -90.501s1.5 -54.167 1.5 -73.5c0.666992 -16 2 -33.5 4 -52.5s4.16699 -37 6.5 -54s4.5 -31.833 6.5 -44.5s3.66699 -21 5 -25h-356c-9.33301 24.667 -16.833 51.834 -22.5 81.501s-8.5 62.5 -8.5 98.5v121
c0 26 -0.166992 51.833 -0.5 77.5s-0.833008 48.167 -1.5 67.5c-0.666992 24.667 -2.16699 47.5 -4.5 68.5s-7.16602 39.167 -14.499 54.5s-17.666 27.333 -30.999 36s-31.333 13 -54 13h-52v-618h-348v1573h514c68 0 126.167 -10.333 174.5 -31s87.833 -51.5 118.5 -92.5
s53 -91.833 67 -152.5s21 -130.667 21 -210zM638.997 1085c0 44.667 -2.66797 81.6689 -8.00098 111.002s-13.333 52.5 -24 69.5s-23.5 28.833 -38.5 35.5s-31.833 10 -50.5 10h-78v-451h82c22.667 0 41.667 4.33301 57 13s27.333 22.167 36 40.5
s14.834 41.666 18.501 69.999s5.5 62.166 5.5 101.499z" />
    <glyph glyph-name="S" unicode="S" horiz-adv-x="1042" 
d="M1006 477c0 -73.333 -8.5 -140.662 -25.5 -201.995s-45 -114.333 -84 -159s-90.167 -79.334 -153.5 -104.001s-141.666 -37 -234.999 -37c-84 0 -155.833 9.5 -215.5 28.5s-108.334 46 -146.001 81s-65.334 77 -83.001 126s-26.5 103.833 -26.5 164.5c0 32 2 64.667 6 98
s10.667 62.666 20 87.999l302 10c-7.33301 -18 -12.666 -41.167 -15.999 -69.5s-5 -54.833 -5 -79.5c0 -49.333 13 -88.666 39 -117.999s63 -44 111 -44c22.667 0 43.334 2.83301 62.001 8.5s34.667 14.834 48 27.501s23.833 29.167 31.5 49.5s11.5 45.166 11.5 74.499
c0 26.667 -4 50.667 -12 72s-19.667 41 -35 59s-34.166 35 -56.499 51s-47.833 32.333 -76.5 49l-186 111c-32.667 18.667 -63 41.5 -91 68.5s-52.333 57.167 -73 90.5s-36.834 69.666 -48.501 108.999s-17.5 81 -17.5 125c0 64 10.333 123 31 177s51.5 100.667 92.5 140
s92 70 153 92s132.167 33 213.5 33c70 0 129.667 -9.16699 179 -27.5s89.833 -44 121.5 -77s54.667 -72.833 69 -119.5s21.5 -98 21.5 -154c0 -28 -1.83301 -54 -5.5 -78s-8.16699 -44.667 -13.5 -62l-297 -8c5.33301 11.333 10.5 26 15.5 44s7.5 39 7.5 63
c0 52 -10.167 88.5 -30.5 109.5s-49.166 31.5 -86.499 31.5c-32.667 0 -59.834 -10.833 -81.501 -32.5s-32.5 -57.167 -32.5 -106.5c0 -26.667 6 -50.834 18 -72.501s27.833 -41.167 47.5 -58.5s41.667 -33 66 -47s49.166 -27 74.499 -39l134 -66
c42 -20.667 79 -44.334 111 -71.001s58.833 -57.334 80.5 -92.001s38.167 -73.167 49.5 -115.5s17 -89.5 17 -141.5z" />
    <glyph glyph-name="T" unicode="T" horiz-adv-x="934" 
d="M641 1284v-1284h-348v1284h-279v289h906v-289h-279z" />
    <glyph glyph-name="U" unicode="U" horiz-adv-x="1096" 
d="M1008 451c0 -66 -6.16504 -127.832 -18.498 -185.499s-35.5 -108 -69.5 -151s-81 -77 -141 -102s-137.333 -37.5 -232 -37.5c-88 0 -161.333 11.833 -220 35.5s-105.834 56.667 -141.501 99s-60.834 92.666 -75.501 150.999s-22 121.833 -22 190.5v1122h346v-1163
c0 -35.333 9.33301 -63.333 28 -84s47 -31 85 -31c39.333 0 68.333 10.833 87 32.5s28 49.167 28 82.5v1163h346v-1122z" />
    <glyph glyph-name="V" unicode="V" horiz-adv-x="989" 
d="M676 0h-371l-311 1573h366l156 -959h10l133 959h330z" />
    <glyph glyph-name="W" unicode="W" horiz-adv-x="1294" 
d="M1036 0h-266l-125 811l-106 -811h-277l-262 1573h313l117 -713l115 713h233l117 -713l117 713h282z" />
    <glyph glyph-name="X" unicode="X" horiz-adv-x="1057" 
d="M678 0l-168 541l-160 -541h-350l313 831l-252 742h361l143 -414l115 414h350l-256 -742l264 -831h-360z" />
    <glyph glyph-name="Y" unicode="Y" horiz-adv-x="1022" 
d="M690 614v-614h-348v614l-342 959h348l189 -584l186 584h299z" />
    <glyph glyph-name="Z" unicode="Z" horiz-adv-x="926" 
d="M55 0v365l492 913h-426v295h753v-365l-481 -907h481v-301h-819z" />
    <glyph glyph-name="bracketleft" unicode="[" horiz-adv-x="664" 
d="M92 -209v1782h494v-180h-232v-1422h232v-180h-494z" />
    <glyph glyph-name="backslash" unicode="\" horiz-adv-x="954" 
d="M750 0l-748 1573h201l749 -1573h-202z" />
    <glyph glyph-name="bracketright" unicode="]" horiz-adv-x="664" 
d="M78 -209v180h231v1422h-231v180h493v-1782h-493z" />
    <glyph glyph-name="asciicircum" unicode="^" horiz-adv-x="971" 
d="M705 1186l-220 211l-219 -211h-155l225 387h299l225 -387h-155z" />
    <glyph glyph-name="underscore" unicode="_" horiz-adv-x="1044" 
d="M0 -410v207h1044v-207h-1044z" />
    <glyph glyph-name="grave" unicode="`" horiz-adv-x="971" 
d="M571 1270l-366 280v23h352l148 -303h-134z" />
    <glyph glyph-name="a" unicode="a" horiz-adv-x="1051" 
d="M1030 37c-8 -6 -19.8359 -12.5039 -35.5029 -19.5039s-33.5 -13.667 -53.5 -20s-41.167 -11.666 -63.5 -15.999s-43.833 -6.5 -64.5 -6.5c-41.333 0 -74.166 3.83301 -98.499 11.5s-43.666 18.167 -57.999 31.5s-24.833 29.333 -31.5 48s-13 39 -19 61l-18 -37
c-6.66699 -13.333 -16.667 -26.833 -30 -40.5s-30 -26 -50 -37s-43.167 -20 -69.5 -27s-55.833 -10.5 -88.5 -10.5c-56.667 0 -104.667 10.167 -144 30.5s-71.166 47.333 -95.499 81s-42 71.667 -53 114s-16.5 85.5 -16.5 129.5c0 98.667 23.333 177.167 70 235.5
s121 97.833 223 118.5l123 27c31.333 6.66699 56.666 13.834 75.999 21.501s34.5 17.334 45.5 29.001s18.333 25.834 22 42.501s5.5 37.334 5.5 62.001c0 55.333 -11 94.5 -33 117.5s-54 34.5 -96 34.5c-19.333 0 -37.5 -3 -54.5 -9s-31.833 -14.167 -44.5 -24.5
s-22.5 -23 -29.5 -38s-10.5 -31.5 -10.5 -49.5c0 -20.667 1.33301 -38.5 4 -53.5s6.66699 -30.5 12 -46.5l-270 -6l-7 31c-2 9.33301 -3.66699 18.666 -5 27.999s-2.33301 19.333 -3 30s-1 23.334 -1 38.001c0 52.667 10.833 97.5 32.5 134.5s51.334 67.333 89.001 91
s81.5 41 131.5 52s103.333 16.5 160 16.5c82 0 151.333 -6.5 208 -19.5s102.5 -31 137.5 -54s60.333 -50.833 76 -83.5s23.5 -68.334 23.5 -107.001v-684c0 -21.333 7.5 -37.833 22.5 -49.5s32.5 -17.5 52.5 -17.5c9.33301 0 19 2 29 6v-166zM605.997 583.996
c-14 -8.66699 -29.999 -16.333 -47.999 -23s-34.667 -12 -50 -16c-29.333 -8 -53.333 -17 -72 -27s-33.167 -21.833 -43.5 -35.5s-17.5 -29.834 -21.5 -48.501s-6 -41 -6 -67c0 -51.333 7.16699 -91.166 21.5 -119.499s41.166 -42.5 80.499 -42.5
c18.667 0 36.5 2.66699 53.5 8s31.833 17 44.5 35s22.667 44.167 30 78.5s11 80.5 11 138.5v119z" />
    <glyph glyph-name="b" unicode="b" horiz-adv-x="995" 
d="M954 610c0 -114 -7.16895 -210.999 -21.502 -290.999s-37.166 -145 -68.499 -195s-72 -86.5 -122 -109.5s-111 -34.5 -183 -34.5c-39.333 0 -73.166 6 -101.499 18s-52.833 27.333 -73.5 46s-38 39 -52 61s-26.333 43 -37 63l-70 -168h-147v1573h323v-514
c8.66699 16 18.667 32.333 30 49s25.333 31.667 42 45s36.667 24.166 60 32.499s51 12.5 83 12.5c47.333 0 91.5 -9.5 132.5 -28.5s76.833 -51.333 107.5 -97s54.667 -106.167 72 -181.5s26 -169 26 -281zM628.998 584.001c0 61.333 -1.66895 112.667 -5.00195 154
s-8.66602 78 -15.999 110c-8 33.333 -18.5 56 -31.5 68s-31.167 18 -54.5 18c-20.667 0 -38.5 -6.5 -53.5 -19.5s-27.5 -33.5 -37.5 -61.5s-17.5 -64.167 -22.5 -108.5s-7.5 -97.833 -7.5 -160.5c0 -70 2.5 -127.833 7.5 -173.5s12.167 -82 21.5 -109s21 -45.833 35 -56.5
s29.667 -16 47 -16c18.667 0 35.334 4.5 50.001 13.5s27 26.5 37 52.5s17.5 62.167 22.5 108.5s7.5 106.5 7.5 180.5z" />
    <glyph glyph-name="c" unicode="c" horiz-adv-x="946" 
d="M907 358c0 -44 -5.99609 -88.6641 -17.9961 -133.997s-33 -86.5 -63 -123.5s-70.333 -67.167 -121 -90.5s-114.334 -35 -191.001 -35c-75.333 0 -142.333 8.66699 -201 26s-108.167 47.5 -148.5 90.5s-71 101.333 -92 175s-31.5 166.5 -31.5 278.5
c0 127.333 11.333 233.666 34 318.999s54.5 153.833 95.5 205.5s89.833 88.334 146.5 110.001s119 32.5 187 32.5c75.333 0 137.5 -10.167 186.5 -30.5s88 -47.833 117 -82.5s49.167 -75.334 60.5 -122.001s17 -96 17 -148c0 -38.667 -2 -71.334 -6 -98.001l-277 -8
c2 9.33301 3.5 19.5 4.5 30.5s1.5 24.167 1.5 39.5c0 54 -8.83301 96.167 -26.5 126.5s-44.834 45.5 -81.501 45.5c-26 0 -47.5 -5.33301 -64.5 -16s-30.167 -29.5 -39.5 -56.5s-15.833 -63.167 -19.5 -108.5s-5.5 -102.666 -5.5 -171.999c0 -80.667 2 -146 6 -196
s11 -88.833 21 -116.5s23.667 -46.334 41 -56.001s39 -14.5 65 -14.5s46.667 7.5 62 22.5s27.166 34 35.499 57s13.666 48.167 15.999 75.5s3.5 53.666 3.5 78.999c0 28.667 -3 51 -9 67l281 -14c4 -19.333 7.33301 -42.5 10 -69.5s4 -56.5 4 -88.5z" />
    <glyph glyph-name="d" unicode="d" horiz-adv-x="997" 
d="M612 0l0.00195312 151.999l-28 -52c-17.333 -32.667 -42.666 -60.5 -75.999 -83.5s-74.333 -34.5 -123 -34.5c-56.667 0 -106.5 9 -149.5 27s-78.833 49.667 -107.5 95s-50.334 106.5 -65.001 183.5s-22 174.5 -22 292.5c0 200.667 29.167 353.834 87.5 459.501
s143.166 158.5 254.499 158.5c49.333 0 90.666 -11.5 123.999 -34.5s58.333 -52.5 75 -88.5l14 -31v529h324v-1573h-308zM592.002 585.999c0 38 -0.663086 71.5 -1.99609 100.5s-3.33301 55 -6 78s-6 43.5 -10 61.5s-9 35 -15 51c-9.33301 24.667 -20.833 43.667 -34.5 57
s-32.834 20 -57.501 20c-16.667 0 -31.334 -6.5 -44.001 -19.5s-23.334 -34 -32.001 -63s-15.167 -66.833 -19.5 -113.5s-6.5 -103.334 -6.5 -170.001c0 -79.333 3.16699 -142.666 9.5 -189.999s14.666 -83.333 24.999 -108s22.333 -40.667 36 -48s27.5 -11 41.5 -11
c18 0 34.167 5.16699 48.5 15.5s26.333 28.833 36 55.5s17.167 63 22.5 109s8 104.333 8 175z" />
    <glyph glyph-name="e" unicode="e" horiz-adv-x="946" 
d="M367 524c-0.666992 -65.333 1.66797 -117.498 7.00098 -156.498s13.833 -68.833 25.5 -89.5s26.167 -34.334 43.5 -41.001s37.666 -10 60.999 -10c44 0 74.5 14.5 91.5 43.5s23.167 68.5 18.5 118.5l-4 47l281 -8c4 -22 6 -51.333 6 -88
c0 -50.667 -6.66699 -98.167 -20 -142.5s-35.333 -83 -66 -116s-70.834 -59 -120.501 -78s-110.5 -28.5 -182.5 -28.5c-47.333 0 -91.666 3.33301 -132.999 10s-79.333 18.5 -114 35.5s-65.667 39.833 -93 68.5s-50.333 65 -69 109s-33 96.667 -43 158s-15 133 -15 215
c0 113.333 9.66699 210.5 29 291.5s47.5 147.333 84.5 199s82.833 89.667 137.5 114s117.667 36.5 189 36.5c64 0 119.667 -10.5 167 -31.5s87.333 -51.5 120 -91.5s58.5 -88.833 77.5 -146.5s32.167 -123.5 39.5 -197.5c4 -40.667 7 -79.334 9 -116.001s3.66699 -73 5 -109
zM584.002 690.002c-3.33301 56.667 -6.66699 103.668 -10 141.001s-8.33301 66.666 -15 87.999s-16.167 36.333 -28.5 45s-28.833 13 -49.5 13c-21.333 0 -39 -6.16699 -53 -18.5s-25.333 -30.5 -34 -54.5s-15 -53.833 -19 -89.5s-6.66699 -77.167 -8 -124.5h217z" />
    <glyph glyph-name="f" unicode="f" horiz-adv-x="735" 
d="M782 1372c0 -21.333 -1.66797 -41.668 -5.00098 -61.001s-7.66602 -37.333 -12.999 -54l-189 9c2.66699 11.333 4.5 22.5 5.5 33.5s1.5 24.167 1.5 39.5c0 20.667 -3.66699 38.5 -11 53.5s-22.333 22.5 -45 22.5c-20.667 0 -36 -10 -46 -30s-15 -57 -15 -111
c0 -17.333 0.333008 -34.166 1 -50.499s1.66699 -32.166 3 -47.499h266v-222h-256v-954h-323v954h-156v222h156v118c0 46.667 7.83301 88.667 23.5 126s38.167 69.166 67.5 95.499s65 46.5 107 60.5s89.333 21 142 21c53.333 0 98.166 -4.83301 134.499 -14.5
s65.833 -24 88.5 -43s38.834 -42.5 48.501 -70.5s14.5 -60.333 14.5 -97z" />
    <glyph glyph-name="g" unicode="g" horiz-adv-x="922" 
d="M928 -20c0 -62.667 -9.16699 -116.83 -27.5 -162.497s-47.166 -83.5 -86.499 -113.5s-89.833 -52.333 -151.5 -67s-135.834 -22 -222.501 -22c-56 0 -110.333 4.16699 -163 12.5s-99.167 22.333 -139.5 42s-72.666 45.834 -96.999 78.501s-36.5 73 -36.5 121
c0 37.333 9.16699 66.833 27.5 88.5s45.5 41.167 81.5 58.5l53 27l-39 23c-40 23.333 -67.333 50.666 -82 81.999s-22 68.666 -22 111.999c0 26.667 4 51 12 73s18.667 42 32 60s28.5 34.167 45.5 48.5s34.167 27.5 51.5 39.5l37 25l-35 31c-16 14 -31 31 -45 51
s-26.167 42 -36.5 66s-18.5 49.167 -24.5 75.5s-9 52.166 -9 77.499c0 63.333 8.33301 120.166 25 170.499s41.667 92.833 75 127.5s74.5 61.167 123.5 79.5s106.167 27.5 171.5 27.5c40 0 72 -2 96 -6s46.667 -10.667 68 -20l31 213h262l-180 -271
c19.333 -16 37.666 -34.5 54.999 -55.5s32.5 -44.667 45.5 -71s23.333 -55.666 31 -87.999s11.5 -67.833 11.5 -106.5c0 -56 -8.5 -106.667 -25.5 -152s-41.167 -84 -72.5 -116s-69.666 -56.833 -114.999 -74.5s-96.333 -26.5 -153 -26.5c-12 0 -25 0.166992 -39 0.5
s-27.833 1 -41.5 2s-26.834 2.33301 -39.501 4s-24 3.83398 -34 6.50098c-8 -5.33301 -16.167 -10.333 -24.5 -15s-15.833 -9.66699 -22.5 -15s-12.167 -11.666 -16.5 -18.999s-6.5 -16.333 -6.5 -27c0 -14.667 3 -25.834 9 -33.501s13.833 -13.334 23.5 -17.001
s20.5 -5.83398 32.5 -6.50098s24 -1 36 -1l194 2c112 1.33301 199.5 -26.167 262.5 -82.5s94.5 -141.833 94.5 -256.5zM561 834.004c0 43.333 -2.33301 78.333 -7 105s-11.5 47.334 -20.5 62.001s-20.167 24.5 -33.5 29.5s-29 7.5 -47 7.5s-33.667 -2.5 -47 -7.5
s-24.5 -14.833 -33.5 -29.5s-15.667 -35.334 -20 -62.001s-6.5 -61.667 -6.5 -105c0 -44 2.16699 -79.333 6.5 -106s11 -47.334 20 -62.001s20.167 -24.5 33.5 -29.5s29 -7.5 47 -7.5s33.667 2.5 47 7.5s24.5 14.833 33.5 29.5s15.833 35.334 20.5 62.001s7 62 7 106z
M639 -81.9961c0 32 -13.835 56.998 -41.502 74.998s-75.167 27 -142.5 27h-144c-14 -12 -27 -27.5 -39 -46.5s-18 -38.833 -18 -59.5c0 -18 4.83301 -34.167 14.5 -48.5s23 -26.666 40 -36.999s37 -18.166 60 -23.499s48.167 -8 75.5 -8c42.667 0 76.834 2.5 102.501 7.5
s45.334 12.667 59.001 23s22.667 23 27 38s6.5 32.5 6.5 52.5z" />
    <glyph glyph-name="h" unicode="h" horiz-adv-x="997" 
d="M602 0l-0.000976562 831.002c0 27.333 -5.66699 48.666 -17 63.999s-31 23 -59 23c-18.667 0 -35.667 -5.83301 -51 -17.5s-28.5 -28.334 -39.5 -50.001s-19.5 -47.667 -25.5 -78s-9 -64.5 -9 -102.5v-670h-323v1573h321v-588
c18.667 66.667 50.834 118.834 96.501 156.501s103.167 56.5 172.5 56.5c33.333 0 65.5 -5.5 96.5 -16.5s58.5 -27.833 82.5 -50.5s43.167 -51.334 57.5 -86.001s21.5 -75.667 21.5 -123v-922h-324z" />
    <glyph glyph-name="i" unicode="i" horiz-adv-x="479" 
d="M78 1278v295h323v-295h-323zM78 0v1176h323v-1176h-323z" />
    <glyph glyph-name="j" unicode="j" horiz-adv-x="489" 
d="M412 -55c0 -110.667 -26.3359 -190.668 -79.0029 -240.001s-130.334 -74 -233.001 -74c-43.333 0 -83.666 3.66699 -120.999 11s-69.666 19.833 -96.999 37.5s-49 41.167 -65 70.5s-24 65.666 -24 108.999c0 7.33301 0.666992 15.833 2 25.5
s3.16602 19.334 5.49902 29.001s4.83301 18.834 7.5 27.501s5.33398 16 8.00098 22l176 -4c-3.33301 -11.333 -6.16602 -23.5 -8.49902 -36.5s-3.5 -24.167 -3.5 -33.5c0 -32 5.33301 -54 16 -66s26.334 -18 47.001 -18c23.333 0 39.333 6.83301 48 20.5
s13 30.834 13 51.501c0 7.33301 -1 15.333 -3 24l-5 27c-2 11.333 -3.83301 23.666 -5.5 36.999s-2.5 28.333 -2.5 45v1166h324v-1231zM87.9971 1278v295h324v-295h-324z" />
    <glyph glyph-name="k" unicode="k" horiz-adv-x="993" 
d="M608 0l-127 399l-80 -141v-258h-323v1573h323v-856l232 459h330l-248 -455l264 -721h-371z" />
    <glyph glyph-name="l" unicode="l" horiz-adv-x="479" 
d="M78 0v1573h323v-1573h-323z" />
    <glyph glyph-name="m" unicode="m" horiz-adv-x="1522" 
d="M1126 0l-0.00292969 834.003c0 26.667 -5.5 47.667 -16.5 63s-30.5 23 -58.5 23c-19.333 0 -36.666 -5.83301 -51.999 -17.5s-28.333 -28.334 -39 -50.001s-19 -47.667 -25 -78s-9 -64.5 -9 -102.5v-672h-322v834c0 26.667 -5.66699 47.667 -17 63s-31 23 -59 23
c-38 0 -68.667 -20.667 -92 -62s-35 -103.333 -35 -186c0.666992 -124.667 1 -236 1 -334v-231c0 -31.333 -0.166992 -56.833 -0.5 -76.5s-0.5 -29.834 -0.5 -30.501h-323v1176h321v-193c18.667 66.667 51.167 119.167 97.5 157.5s104.166 57.5 173.499 57.5
c33.333 0 64.333 -4.5 93 -13.5s54.167 -22.5 76.5 -40.5s40.833 -40.333 55.5 -67s24.334 -58 29.001 -94c18.667 66.667 50.834 119.167 96.501 157.5s102.834 57.5 171.501 57.5c33.333 0 65.5 -5.5 96.5 -16.5s58.5 -27.833 82.5 -50.5s43.167 -51.334 57.5 -86.001
s21.5 -75.667 21.5 -123v-922h-324z" />
    <glyph glyph-name="n" unicode="n" horiz-adv-x="997" 
d="M602 0l-0.000976562 831.002c0 27.333 -5.66699 48.666 -17 63.999s-31 23 -59 23c-18.667 0 -35.667 -5.83301 -51 -17.5s-28.5 -28.334 -39.5 -50.001s-19.5 -47.667 -25.5 -78s-9 -64.5 -9 -102.5v-670h-323v1176h321v-191
c18.667 66.667 50.834 118.834 96.501 156.501s103.167 56.5 172.5 56.5c33.333 0 65.5 -5.5 96.5 -16.5s58.5 -27.833 82.5 -50.5s43.167 -51.334 57.5 -86.001s21.5 -75.667 21.5 -123v-922h-324z" />
    <glyph glyph-name="o" unicode="o" horiz-adv-x="948" 
d="M907 596c0 -100 -6.00098 -188.165 -18.001 -264.498s-33.667 -140.333 -65 -192s-74.333 -90.834 -129 -117.501s-124.667 -40 -210 -40c-82 0 -151.167 11.167 -207.5 33.5s-102 57.333 -137 105s-60.333 108.5 -76 182.5s-23.5 162.667 -23.5 266
c0 220.667 35.667 383 107 487s178.333 156 321 156c84.667 0 155.167 -13.167 211.5 -39.5s101.333 -65.333 135 -117s57.334 -115.834 71.001 -192.501s20.5 -165.667 20.5 -267zM572.999 578.002c0 79.333 -1.33301 144.333 -4 195s-7.5 90.5 -14.5 119.5
s-17.167 49 -30.5 60s-30.333 16.5 -51 16.5c-21.333 0 -38.5 -5.66699 -51.5 -17s-23 -31.5 -30 -60.5s-11.5 -68.833 -13.5 -119.5s-3 -115.334 -3 -194.001c0 -75.333 1.83301 -135 5.5 -179s9.5 -77.333 17.5 -100s18.167 -37.167 30.5 -43.5s27.166 -9.5 44.499 -9.5
c18.667 0 34.334 3.33301 47.001 10s23 21.334 31 44.001s13.667 56 17 100s5 103.333 5 178z" />
    <glyph glyph-name="p" unicode="p" horiz-adv-x="999" 
d="M958 555c0 -100 -5.66602 -186.169 -16.999 -258.502s-30 -132 -56 -179s-60 -81.667 -102 -104s-93.333 -33.5 -154 -33.5c-22 0 -42.833 3.5 -62.5 10.5s-37.667 15.667 -54 26s-30.833 21.833 -43.5 34.5s-23 25 -31 37l-37 64v-447h-323v1471h321v-132l29 43
c10 14.667 21.167 29 33.5 43s26.333 26.333 42 37s32.667 19.167 51 25.5s38.166 9.5 59.499 9.5c31.333 0 61.5 -3.66699 90.5 -11s56.333 -20.166 82 -38.499s49 -43.166 70 -74.499s39 -71 54 -119s26.667 -105.167 35 -171.5s12.5 -143.833 12.5 -232.5z
M631.001 587.998c0 68.667 -3 125.835 -9 171.502s-14.167 82.167 -24.5 109.5s-22.166 46.666 -35.499 57.999s-27.333 17 -42 17c-18 0 -34.167 -4.5 -48.5 -13.5s-26.833 -26.333 -37.5 -52s-18.834 -61.667 -24.501 -108s-8.5 -106.5 -8.5 -180.5
c0 -70 2.33301 -126.833 7 -170.5s11.834 -78 21.501 -103s22.167 -42 37.5 -51s33.666 -13.5 54.999 -13.5c32.667 0 59 27.667 79 83s30 139.666 30 252.999z" />
    <glyph glyph-name="q" unicode="q" horiz-adv-x="995" 
d="M594 -295l0.000976562 412c-8.66699 -16.667 -18.667 -33 -30 -49s-25.333 -30.333 -42 -43s-36.667 -23 -60 -31s-51 -12 -83 -12c-47.333 0 -91.5 9.33301 -132.5 28s-76.833 50.5 -107.5 95.5s-54.667 104.833 -72 179.5s-26 168 -26 280c0 214 31.833 373 95.5 477
s163.5 156 299.5 156c28.667 0 55.667 -4.5 81 -13.5s48.666 -21.5 69.999 -37.5s40.333 -34.833 57 -56.5s30.667 -45.167 42 -70.5l84 156h148v-1471h-324zM592.001 592c0 82.667 -3.66504 148.168 -10.998 196.501s-17 84.666 -29 108.999s-25.5 39.833 -40.5 46.5
s-29.833 10 -44.5 10c-16 0 -30.333 -5 -43 -15s-23.334 -28.333 -32.001 -55s-15.334 -63.5 -20.001 -110.5s-7 -107.5 -7 -181.5c0 -76.667 1.83301 -138.667 5.5 -186s10 -84 19 -110s20.833 -43.333 35.5 -52s32.667 -13 54 -13c14 0 27.833 3.5 41.5 10.5
s25.667 22.667 36 47s18.833 60.5 25.5 108.5s10 113 10 195z" />
    <glyph glyph-name="r" unicode="r" horiz-adv-x="901" 
d="M879 895c0 -54 -1.83594 -101.168 -5.50293 -141.501s-7.5 -74.5 -11.5 -102.5l-276 -51c3.33301 20.667 5.83301 43.334 7.5 68.001s2.5 52.667 2.5 84c0 54 -7.33301 91.667 -22 113s-36 32 -64 32c-21.333 0 -39 -8.33301 -53 -25s-25.167 -39.167 -33.5 -67.5
s-14.166 -61 -17.499 -98s-5 -75.833 -5 -116.5v-590h-323v1176h317l2 -80c0.666992 -22 1.16699 -45.333 1.5 -70s0.5 -45.667 0.5 -63l15 41c8.66699 24.667 19.834 48.667 33.501 72s29.834 44 48.501 62s39.5 32.5 62.5 43.5s48.5 16.5 76.5 16.5
c83.333 0 144.833 -24.5 184.5 -73.5s59.5 -125.5 59.5 -229.5z" />
    <glyph glyph-name="s" unicode="s" horiz-adv-x="918" 
d="M895 354c0 -62 -7.83203 -116.333 -23.499 -163s-41.167 -85.667 -76.5 -117s-81.666 -54.833 -138.999 -70.5s-127.333 -23.5 -210 -23.5c-72 0 -133.833 6.33301 -185.5 19s-94 31.5 -127 56.5s-57.333 56 -73 93s-23.5 79.5 -23.5 127.5c0 26 2.16699 51.5 6.5 76.5
s10.166 48.167 17.499 69.5l248 -16c-3.33301 -14.667 -5.5 -28 -6.5 -40s-1.5 -24 -1.5 -36c0 -43.333 9.66699 -76.666 29 -99.999s50.666 -35 93.999 -35c24.667 0 44.667 4.16699 60 12.5s27.333 18.833 36 31.5s14.667 26 18 40s5 26.667 5 38
c0 30.667 -9.16699 56.5 -27.5 77.5s-49.5 41.167 -93.5 60.5l-127 59c-25.333 12 -52.833 26.833 -82.5 44.5s-57.167 40.167 -82.5 67.5s-46.5 60.666 -63.5 99.999s-25.5 86 -25.5 140c0 56 11 105.5 33 148.5s52 79.167 90 108.5s82 51.5 132 66.5s103 22.5 159 22.5
c54 0 104.167 -5.66699 150.5 -17s86.833 -29 121.5 -53s61.834 -54.167 81.501 -90.5s29.5 -79.5 29.5 -129.5c0 -21.333 -1.66699 -40.333 -5 -57s-8 -33.334 -14 -50.001l-244 4c4.66699 12.667 7.66699 24.667 9 36s2 26.666 2 45.999c0 33.333 -10 58.333 -30 75
s-47 25 -81 25c-34.667 0 -60.334 -9.66699 -77.001 -29s-25 -44.333 -25 -75c0 -17.333 3 -32.333 9 -45s14.5 -24 25.5 -34s24.5 -19.333 40.5 -28s34 -17.334 54 -26.001l157 -68c33.333 -14.667 64.5 -31.167 93.5 -49.5s54 -40.666 75 -66.999
s37.5 -57.666 49.5 -93.999s18 -80.166 18 -131.499z" />
    <glyph glyph-name="t" unicode="t" horiz-adv-x="799" 
d="M758 51c-10 -7.33301 -26.1689 -14.833 -48.502 -22.5s-47.666 -14.834 -75.999 -21.501s-58.833 -12.167 -91.5 -16.5s-64.667 -6.5 -96 -6.5c-42 0 -80 4.16699 -114 12.5s-63.167 22 -87.5 41s-43 44.167 -56 75.5s-19.167 70 -18.5 116l4 725h-174v222h178l8 323h308
v-323h245v-222h-245v-594c0 -23.333 4.5 -41.666 13.5 -54.999s20.667 -23.5 35 -30.5s30 -11.5 47 -13.5s33.5 -3 49.5 -3c25.333 0 47.333 2.33301 66 7s36.334 10.667 53.001 18v-232z" />
    <glyph glyph-name="u" unicode="u" horiz-adv-x="997" 
d="M598 0l0.00195312 190c-18.667 -66.667 -50.834 -118.834 -96.501 -156.501s-102.834 -56.5 -171.501 -56.5c-33.333 0 -65.5 5.5 -96.5 16.5s-58.5 27.833 -82.5 50.5s-43.167 51.334 -57.5 86.001s-21.5 76 -21.5 124v922h323v-832c0 -26.667 5.66699 -47.667 17 -63
s31 -23 59 -23c38 0 68.333 20.5 91 61.5s34 103.167 34 186.5v670h324v-1176h-322z" />
    <glyph glyph-name="v" unicode="v" horiz-adv-x="942" 
d="M633 0h-314l-319 1176h342l158 -705l129 705h313z" />
    <glyph glyph-name="w" unicode="w" horiz-adv-x="1360" 
d="M1059 0h-268l-117 672l-101 -672h-266l-307 1176h332l112 -535l95 535h295l108 -535l98 535h320z" />
    <glyph glyph-name="x" unicode="x" horiz-adv-x="971" 
d="M610 0l-131 328l-166 -328h-313l332 625l-303 551h366l115 -283l127 283h311l-276 -543l299 -633h-361z" />
    <glyph glyph-name="y" unicode="y" horiz-adv-x="967" 
d="M657 -10c-11.333 -48.667 -23.9971 -94.8311 -37.9971 -138.498s-34 -81.834 -60 -114.501s-60.167 -58.5 -102.5 -77.5s-96.833 -28.5 -163.5 -28.5c-56.667 0 -103.334 6 -140.001 18s-65.834 29 -87.501 51s-36.667 48.333 -45 79s-12.5 64.667 -12.5 102
c0 14.667 0.833008 28.167 2.5 40.5l5.5 41.5h203c-2 -12 -3.83301 -25 -5.5 -39s-2.5 -27.667 -2.5 -41c0 -20.667 6 -37 18 -49s32.667 -18 62 -18c35.333 0 59.833 14 73.5 42s20.5 65 20.5 111c0 16.667 -2.83301 35.667 -8.5 57s-11.834 42.666 -18.501 63.999
l-358 1086h360l164 -691l133 691h310z" />
    <glyph glyph-name="z" unicode="z" horiz-adv-x="881" 
d="M53 0v328l418 602h-391v246h743v-281l-465 -649h465v-246h-770z" />
    <glyph glyph-name="braceleft" unicode="{" horiz-adv-x="649" 
d="M406 -209c-45.333 0 -83.832 3.49902 -115.499 10.499s-57.5 19.833 -77.5 38.5s-34.5 44.667 -43.5 78s-13.5 76.333 -13.5 129v436c0 20.667 -1.16699 37.834 -3.5 51.501s-6.83301 24.667 -13.5 33s-15.5 14.166 -26.5 17.499s-25.167 5 -42.5 5h-52v278h52
c19.333 0 34.666 1.66699 45.999 5s20 9.5 26 18.5s9.83301 21.333 11.5 37s2.5 35.834 2.5 60.501v340c0 42.667 4.5 79.334 13.5 110.001s23.5 56 43.5 76s45.833 34.667 77.5 44s70.167 14 115.5 14h192v-207h-119c-24.667 0 -42 -8.16699 -52 -24.5
s-15 -36.833 -15 -61.5v-375c0 -110.667 -43.667 -167.334 -131 -170.001c16.667 -1.33301 32.334 -5.66602 47.001 -12.999c17.333 -8 32.166 -19.833 44.499 -35.5s22 -34.834 29 -57.501s10.5 -48 10.5 -76v-471c0 -30 4.5 -51.833 13.5 -65.5s26.833 -20.5 53.5 -20.5
h119v-205h-192z" />
    <glyph glyph-name="bar" unicode="|" horiz-adv-x="403" 
d="M74 -410v2048h256v-2048h-256z" />
    <glyph glyph-name="braceright" unicode="}" horiz-adv-x="649" 
d="M580 590c-17.333 0 -31.6689 -1.66602 -43.002 -4.99902s-20.166 -9.16602 -26.499 -17.499s-10.666 -19.333 -12.999 -33s-3.5 -30.834 -3.5 -51.501v-436c0 -52.667 -4.66699 -95.667 -14 -129s-24 -59.333 -44 -78s-45.833 -31.5 -77.5 -38.5
s-69.834 -10.5 -114.501 -10.5h-193v205h119c26.667 0 44.667 6.83301 54 20.5s14 35.5 14 65.5v471c0 28 3.5 53.333 10.5 76s16.667 41.834 29 57.501s26.833 27.5 43.5 35.5c14.667 7.33301 30.334 11.666 47.001 12.999c-86.667 2.66699 -130 59.334 -130 170.001v375
c0 24.667 -5.16699 45.167 -15.5 61.5s-27.833 24.5 -52.5 24.5h-119v207h193c44.667 0 82.834 -4.66699 114.501 -14s57.5 -24 77.5 -44s34.667 -45.333 44 -76s14 -67.334 14 -110.001v-340c0 -24.667 0.833008 -44.834 2.5 -60.501s5.5 -28 11.5 -37
s14.667 -15.167 26 -18.5s26.666 -5 45.999 -5h51v-278h-51z" />
    <glyph glyph-name="asciitilde" unicode="~" horiz-adv-x="907" 
d="M803 1432c0 -26 -3.49805 -52.001 -10.498 -78.001s-18.833 -49.333 -35.5 -70s-38.334 -37.5 -65.001 -50.5s-59.334 -19.5 -98.001 -19.5c-36 0 -66 6.33301 -90 19s-43.333 25.667 -58 39l-51 45c-15.333 13.333 -29.166 24.5 -41.499 33.5s-27.833 13.5 -46.5 13.5
c-20 0 -34.667 -4.33301 -44 -13s-15.5 -18.834 -18.5 -30.501s-4.16699 -23.667 -3.5 -36s1 -22.166 1 -29.499h-103c-7.33301 14.667 -12.833 32 -16.5 52s-5.5 44.333 -5.5 73c0 25.333 2.66699 50.833 8 76.5s14.666 49 27.999 70s31.833 38 55.5 51
s53.834 19.5 90.501 19.5c22 0 41.667 -1.5 59 -4.5s33.166 -7.5 47.499 -13.5s27.833 -13.167 40.5 -21.5s25 -17.5 37 -27.5l54 -43c6.66699 -6 13 -11.333 19 -16s12 -8.66699 18 -12s12.5 -6 19.5 -8s15.167 -3 24.5 -3c18 0 31.333 5 40 15s14.667 21.667 18 35
s4.83301 26.333 4.5 39s-0.5 22 -0.5 28h100c6.66699 -14.667 12.167 -31.667 16.5 -51s6.5 -46.666 6.5 -81.999z" />
    <glyph glyph-name="uni00A0" unicode="&#xa0;" horiz-adv-x="260" 
 />
    <glyph glyph-name="exclamdown" unicode="&#xa1;" horiz-adv-x="426" 
d="M63 1229v344h299v-344h-299zM63 0v532l62 533h166l71 -533v-532h-299z" />
    <glyph glyph-name="cent" unicode="&#xa2;" horiz-adv-x="946" 
d="M907 618c0 -40 -4.99609 -80.667 -14.9961 -122s-27.167 -79.666 -51.5 -114.999s-56.833 -65.666 -97.5 -90.999s-91.667 -42 -153 -50v-121h-174v123c-60 6.66699 -113.333 21 -160 43s-85.834 55 -117.501 99s-55.834 100.333 -72.501 169s-25 152.667 -25 252
c0 112.667 9 209 27 289s43.5 146.167 76.5 198.5s72.5 92.166 118.5 119.499s97 45.333 153 54v123h174v-123c58 -7.33301 105.833 -22.333 143.5 -45s67.834 -50.834 90.501 -84.501s38.5 -71.5 47.5 -113.5s13.5 -86.333 13.5 -133c0 -39.333 -2 -72.333 -6 -99l-277 -8
c2 9.33301 3.5 19.5 4.5 30.5s1.5 24.167 1.5 39.5c0 54 -8.83301 96.167 -26.5 126.5s-44.834 45.5 -81.501 45.5c-26 0 -47.5 -5.33301 -64.5 -16s-30.167 -29.5 -39.5 -56.5s-15.833 -63.167 -19.5 -108.5s-5.5 -102.666 -5.5 -171.999c0 -80.667 2 -146 6 -196
s11 -88.833 21 -116.5s23.667 -46.334 41 -56.001s39 -14.5 65 -14.5s46.667 7.5 62 22.5s27.166 34 35.499 57s13.666 48.167 15.999 75.5s3.5 53.666 3.5 78.999c0 14.667 -1 27.334 -3 38.001s-4 20.667 -6 30l281 -15c4 -19.333 7.33301 -42.5 10 -69.5s4 -56.5 4 -88.5
z" />
    <glyph glyph-name="sterling" unicode="&#xa3;" horiz-adv-x="1194" 
d="M1182 393c0 -54 -8.33398 -106.665 -25.001 -157.998s-41.667 -96.833 -75 -136.5s-75.166 -71.5 -125.499 -95.5s-109.166 -36 -176.499 -36c-32 0 -66 2 -102 6s-71.333 9.66699 -106 17s-67.334 15.833 -98.001 25.5s-56.334 20.167 -77.001 31.5
c-6.66699 -4 -18.834 -10.167 -36.501 -18.5s-38.667 -16.5 -63 -24.5s-50.5 -15.167 -78.5 -21.5s-55.333 -9.5 -82 -9.5c-19.333 0 -37.833 2.5 -55.5 7.5s-33.5 13.167 -47.5 24.5s-25.167 26 -33.5 44s-12.5 40 -12.5 66c0 42.667 7.33301 76 22 100
s32.5 41.833 53.5 53.5s43.167 18.667 66.5 21s43.333 3.5 60 3.5c14.667 0 29.834 -0.833008 45.501 -2.5s30.5 -3.66699 44.5 -6s26.5 -4.33301 37.5 -6s19.167 -2.5 24.5 -2.5c21.333 23.333 36.833 51 46.5 83s14.5 66 14.5 102c0 8 -0.333008 19 -1 33
s-1.83398 28.167 -3.50098 42.5s-3.66699 28 -6 41s-4.83301 23.167 -7.5 30.5h-279v213h197c-7.33301 17.333 -15 38.833 -23 64.5s-15.167 53.167 -21.5 82.5s-11.666 59.666 -15.999 90.999s-6.5 61.333 -6.5 90c0 80.667 10.333 149.5 31 206.5s50.167 103.333 88.5 139
s84.833 61.667 139.5 78s116.334 24.5 185.001 24.5c62.667 0 119.5 -6.16699 170.5 -18.5s94.5 -34.5 130.5 -66.5s63.833 -75.333 83.5 -130s29.5 -124 29.5 -208c0 -27.333 -2.16699 -53.333 -6.5 -78s-9.16602 -45.334 -14.499 -62.001l-311 -24
c5.33301 24.667 9.66602 47 12.999 67s5 41.333 5 64c0 46.667 -1.66699 85.334 -5 116.001s-9 54.667 -17 72s-18.5 29.5 -31.5 36.5s-29.167 10.5 -48.5 10.5s-34.833 -3.83301 -46.5 -11.5s-21 -20.834 -28 -39.501s-11.667 -43.167 -14 -73.5s-3.5 -67.833 -3.5 -112.5
c0 -54.667 7.83301 -107.834 23.5 -159.501s35.834 -104.5 60.501 -158.5h243v-213h-194c2 -18 3.16699 -37.167 3.5 -57.5s-0.5 -40.666 -2.5 -60.999s-5.16699 -40 -9.5 -59s-9.83301 -35.5 -16.5 -49.5c-13.333 -27.333 -27.166 -52.833 -41.499 -76.5
s-31.166 -49.5 -50.499 -77.5c7.33301 -2 16.333 -3.66699 27 -5c9.33301 -1.33301 20.333 -2.5 33 -3.5s27 -1.5 43 -1.5c38 0 69.333 7 94 21s43.667 32.667 57 56s22.166 50.333 26.499 81s5.16602 62.667 2.49902 96l286 29c1.33301 -8 2.66602 -17.167 3.99902 -27.5
s2.5 -20.5 3.5 -30.5s1.83301 -19.333 2.5 -28s1 -15.667 1 -21zM218.999 123.002c-9.33301 7.33301 -18.667 13.667 -28 19s-21.666 8 -36.999 8c-17.333 0 -31 -2.33301 -41 -7s-15 -12 -15 -22c0 -12.667 4.66699 -21.667 14 -27s21 -8 35 -8
c13.333 0 26.166 3.33301 38.499 10s23.5 15.667 33.5 27z" />
    <glyph glyph-name="yen" unicode="&#xa5;" horiz-adv-x="1042" 
d="M690 614v-614h-328v614h-342v195h273l-47 131h-226v195h156l-156 438h328l199 -608l196 608h279l-152 -438h152v-195h-219l-45 -131h264v-195h-332z" />
    <glyph glyph-name="brokenbar" unicode="&#xa6;" horiz-adv-x="403" 
d="M74 743v895h256v-895h-256zM330 594v-1004h-256v1004h256z" />
    <glyph glyph-name="section" unicode="&#xa7;" horiz-adv-x="999" 
d="M930 164c0 -56 -11.5068 -105.504 -34.5068 -148.504s-54.167 -79.167 -93.5 -108.5s-85.166 -51.5 -137.499 -66.5s-107.833 -22.5 -166.5 -22.5c-65.333 0 -122.666 7.33301 -171.999 22s-90.5 34.834 -123.5 60.501s-58 56.334 -75 92.001s-25.5 74.5 -25.5 116.5
c0 21.333 2.16699 41.5 6.5 60.5s8.5 34.167 12.5 45.5l256 -2c-3.33301 -10 -5.83301 -22.5 -7.5 -37.5s-2.5 -29.833 -2.5 -44.5c0 -32.667 9.33301 -57.834 28 -75.501s46 -26.5 82 -26.5c20.667 0 38 2.5 52 7.5s25 12.167 33 21.5s13.667 20.333 17 33s5 26.667 5 42
c0 34 -10.167 60.667 -30.5 80s-53.166 37.666 -98.499 54.999l-164 68c-76.667 30.667 -137 73 -181 127s-67 120.333 -69 199c-2 68 9.33301 126 34 174s66 89.667 124 125c-26 16 -47.5 34 -64.5 54s-30.5 42.333 -40.5 67s-16.833 51 -20.5 79s-5.5 58 -5.5 90
c0 56 10.667 105.5 32 148.5s50.5 79.167 87.5 108.5s80.833 51.5 131.5 66.5s105.334 22.5 164.001 22.5c64.667 0 121.334 -7.16699 170.001 -21.5s89.334 -34.5 122.001 -60.5s57 -56.667 73 -92s24 -74 24 -116c0 -21.333 -2 -41.666 -6 -60.999s-8 -34.666 -12 -45.999
l-240 2c3.33301 10.667 6 23.334 8 38.001s3 29.334 3 44.001c0 33.333 -10.667 59.833 -32 79.5s-51 29.5 -89 29.5c-40 0 -69.167 -10.833 -87.5 -32.5s-27.5 -47.834 -27.5 -78.501c0 -17.333 2.66699 -32 8 -44s13.666 -23 24.999 -33s25.333 -19.167 42 -27.5
s36.667 -17.166 60 -26.499l164 -68c34.667 -14 66.834 -32 96.501 -54s55.167 -47 76.5 -75s38.166 -59.167 50.499 -93.5s18.5 -71.166 18.5 -110.499c0 -34 -2.33301 -65.167 -7 -93.5s-12.667 -54.333 -24 -78s-26.666 -45.167 -45.999 -64.5s-43.666 -37 -72.999 -53
c28 -16.667 51.5 -34.834 70.5 -54.501s34.333 -41.667 46 -66s20.167 -51 25.5 -80s8 -61.167 8 -96.5zM650.993 667.996c0 12.667 -3.33691 25.001 -10.0039 37.001s-15.5 23.5 -26.5 34.5s-23.667 21.167 -38 30.5s-29.166 17.666 -44.499 24.999
c-11.333 4.66699 -24.833 10.667 -40.5 18l-47.5 22.5l-46 21.5c-14.667 6.66699 -26.667 11.667 -36 15c-15.333 -12 -26.333 -25.333 -33 -40s-10 -36.667 -10 -66c0 -26.667 10.333 -50.667 31 -72s54.334 -43.666 101.001 -66.999
c9.33301 -5.33301 20.5 -11.166 33.5 -17.499l40 -19.5c13.667 -6.66699 27.334 -12.834 41.001 -18.501s25.834 -10.5 36.501 -14.5c10 8.66699 18.167 16.5 24.5 23.5s11.333 14.333 15 22s6.16699 16.667 7.5 27s2 23.166 2 38.499z" />
    <glyph glyph-name="dieresis" unicode="&#xa8;" horiz-adv-x="971" 
d="M530 1282v266h261v-266h-261zM168 1282v266h260v-266h-260z" />
    <glyph glyph-name="copyright" unicode="&#xa9;" horiz-adv-x="1343" 
d="M1303 891c0 -94 -14.667 -178.833 -44 -254.5s-71.333 -140 -126 -193s-121 -93.667 -199 -122s-165.333 -42.5 -262 -42.5c-99.333 0 -188 14.333 -266 43s-144 69.5 -198 122.5s-95.333 117.167 -124 192.5s-43 160 -43 254c0 98 14.5 185.333 43.5 262
s70.833 141.5 125.5 194.5s120.834 93.5 198.501 121.5s165.5 42 263.5 42c97.333 0 185 -14 263 -42s144.167 -68.5 198.5 -121.5s96.166 -117.833 125.499 -194.5s44 -164 44 -262zM1192 891c0 82 -12.333 155.327 -37 219.994s-59.667 119.334 -105 164.001
s-100 78.834 -164 102.501s-135.333 35.5 -214 35.5c-83.333 0 -157.5 -12.5 -222.5 -37.5s-119.667 -60.167 -164 -105.5s-78 -100.166 -101 -164.499s-34.5 -135.833 -34.5 -214.5c0 -81.333 12.5 -154.166 37.5 -218.499s60.5 -118.666 106.5 -162.999
s101 -78.166 165 -101.499s135 -35 213 -35c80 0 152 12.167 216 36.5s118.5 59 163.5 104s79.667 99.333 104 163s36.5 135.167 36.5 214.5zM899 718.994c0 -30 -3.6748 -57.5029 -11.0078 -82.5029s-19.666 -46.833 -36.999 -65.5s-40.166 -33.167 -68.499 -43.5
s-63.166 -15.5 -104.499 -15.5c-42.667 0 -80 5.16699 -112 15.5s-58.667 28 -80 53s-37.333 58.833 -48 101.5s-16 96.667 -16 162c0 72.667 4.33301 134.834 13 186.501s23.167 93.834 43.5 126.501s47 56.5 80 71.5s73.5 22.5 121.5 22.5
c72.667 0 124.334 -15.5 155.001 -46.5s46 -80.167 46 -147.5c0 -11.333 -0.333008 -22.166 -1 -32.499s-1.66699 -20.166 -3 -29.499c-1.33301 -10.667 -2.33301 -20.667 -3 -30l-167 -11c0.666992 10 1.66699 20.333 3 31c0.666992 9.33301 1.33398 19.666 2.00098 30.999
s1 23 1 35c0 8.66699 -0.333008 17.667 -1 27s-2.16699 17.833 -4.5 25.5s-6.16602 14 -11.499 19s-12.666 7.5 -21.999 7.5c-12 0 -21 -6.5 -27 -19.5s-10.333 -30.833 -13 -53.5s-4.16699 -49.334 -4.5 -80.001s-0.5 -64 -0.5 -100c0 -35.333 0.666992 -67.5 2 -96.5
s4 -53.833 8 -74.5s9.83301 -36.667 17.5 -48s17.5 -17 29.5 -17s21.167 3.66699 27.5 11s10.833 16.5 13.5 27.5s4 22.833 4 35.5v37c0 12.667 -0.333008 24.834 -1 36.501s-1.66699 22.167 -3 31.5c-1.33301 10.667 -2.66602 20.667 -3.99902 30l166 -2
c1.33301 -9.33301 3 -20.333 5 -33c1.33301 -11.333 2.5 -24.833 3.5 -40.5s1.5 -34.167 1.5 -55.5z" />
    <glyph glyph-name="ordfeminine" unicode="&#xaa;" horiz-adv-x="795" 
d="M707 899c-4.66699 -3.33301 -11.502 -6.83789 -20.502 -10.5049s-19 -7.16699 -30 -10.5s-23 -6.16602 -36 -8.49902s-25.833 -3.5 -38.5 -3.5c-25.333 0 -46.833 2.33301 -64.5 7s-32.5 11.334 -44.5 20.001s-21.5 19.334 -28.5 32.001s-12.5 26.667 -16.5 42l-14 -27
c-11.333 -21.333 -30.333 -39 -57 -53s-57 -21 -91 -21c-26 0.666992 -50.5 6.33398 -73.5 17.001s-43 24.667 -60 42s-30.333 37.5 -40 60.5s-14.5 46.833 -14.5 71.5c0 28 5 53.833 15 77.5s24 45 42 64s39 35.167 63 48.5s50 23.666 78 30.999l60 12
c12 2 23.333 4.83301 34 8.5s20 8.66699 28 15s14.333 14.166 19 23.499s7 21 7 35c0 35.333 -13 53 -39 53c-13.333 0 -24.166 -5 -32.499 -15s-12.5 -20.667 -12.5 -32c0 -8 0.833008 -16.167 2.5 -24.5s3.5 -15.166 5.5 -20.499l-231 -16
c-4 5.33301 -8.5 14.5 -13.5 27.5s-7.5 27.833 -7.5 44.5c0 30.667 8.33301 57.334 25 80.001s38.334 41.167 65.001 55.5s56.5 25 89.5 32s65.5 10.5 97.5 10.5c34.667 0 69.167 -2.83301 103.5 -8.5s65.333 -16.167 93 -31.5s50 -37.166 67 -65.499
s25.5 -64.833 25.5 -109.5v-314c0 -9.33301 1.16699 -17.833 3.5 -25.5s10.5 -11.5 24.5 -11.5h17v-102zM60.998 683.995v123h684v-123h-684zM433.998 1217c-10.667 -1.33301 -21.499 -5.66699 -32.499 -13s-20.833 -16.5 -29.5 -27.5s-15.834 -23.5 -21.501 -37.5
s-8.5 -28.333 -8.5 -43c0 -49.333 17 -74 51 -74c13.333 0 23.5 5.83301 30.5 17.5s10.5 24.167 10.5 37.5v140z" />
    <glyph glyph-name="guillemotleft" unicode="&#xab;" horiz-adv-x="1098" 
d="M551 428v277l473 350v-277l-289 -213l289 -215v-276zM74 428v277l471 350v-277l-287 -213l287 -215v-276z" />
    <glyph glyph-name="logicalnot" unicode="&#xac;" horiz-adv-x="877" 
d="M803 322h-242v243h-487v242h729v-485z" />
    <glyph glyph-name="registered" unicode="&#xae;" horiz-adv-x="1343" 
d="M1303 891c0 -94 -14.667 -178.833 -44 -254.5s-71.333 -140 -126 -193s-121 -93.667 -199 -122s-165.333 -42.5 -262 -42.5c-99.333 0 -188 14.333 -266 43s-144 69.5 -198 122.5s-95.333 117.167 -124 192.5s-43 160 -43 254c0 98 14.5 185.333 43.5 262
s70.833 141.5 125.5 194.5s120.834 93.5 198.501 121.5s165.5 42 263.5 42c97.333 0 185 -14 263 -42s144.167 -68.5 198.5 -121.5s96.166 -117.833 125.499 -194.5s44 -164 44 -262zM1192 891c0 82 -12.333 155.327 -37 219.994s-59.667 119.334 -105 164.001
s-100 78.834 -164 102.501s-135.333 35.5 -214 35.5c-83.333 0 -157.5 -12.5 -222.5 -37.5s-119.667 -60.167 -164 -105.5s-78 -100.166 -101 -164.499s-34.5 -135.833 -34.5 -214.5c0 -81.333 12.5 -154.166 37.5 -218.499s60.5 -118.666 106.5 -162.999
s101 -78.166 165 -101.499s135 -35 213 -35c80 0 152 12.167 216 36.5s118.5 59 163.5 104s79.667 99.333 104 163s36.5 135.167 36.5 214.5zM922 1015.99c0 -56 -11.498 -96.999 -34.498 -122.999s-54.5 -39 -94.5 -39h-25l25 -4c26 -4.66699 46.167 -13 60.5 -25
s25 -27.833 32 -47.5s11.333 -43.667 13 -72s3.16699 -60.833 4.5 -97.5c0 -15.333 1.16699 -30.833 3.5 -46.5s5.16602 -26.834 8.49902 -33.501h-186c-2 4.66699 -4.5 14.834 -7.5 30.501s-4.5 34.167 -4.5 55.5v119c0 21.333 -3.33301 39.666 -10 54.999
s-20.334 23 -41.001 23h-21v-283h-201v709h256c30 0 58.5 -3.33301 85.5 -10s50.667 -18.167 71 -34.5s36.333 -38.833 48 -67.5s17.5 -65 17.5 -109zM715.002 1014c0 22.667 -1 41.167 -3 55.5s-5 25.5 -9 33.5s-9 13.5 -15 16.5s-13.333 4.5 -22 4.5h-21v-219h23
c20.667 0 33.667 9.16699 39 27.5s8 45.5 8 81.5z" />
    <glyph glyph-name="macron" unicode="&#xaf;" horiz-adv-x="971" 
d="M188 1296v197h607v-197h-607z" />
    <glyph glyph-name="macron" unicode="&#x304;" horiz-adv-x="971" 
d="M188 1296v197h607v-197h-607z" />
    <glyph glyph-name="degree" unicode="&#xb0;" horiz-adv-x="741" 
d="M614 1311c0 -33.333 -6.5 -64.833 -19.5 -94.5s-30.667 -55.5 -53 -77.5s-48.666 -39.5 -78.999 -52.5s-62.833 -19.5 -97.5 -19.5c-34 0 -66 6.5 -96 19.5s-56 30.5 -78 52.5s-39.5 47.833 -52.5 77.5s-19.5 61.167 -19.5 94.5c0 34 6.5 65.667 19.5 95
s30.5 54.833 52.5 76.5s48 38.667 78 51s62 18.5 96 18.5c34.667 0 67.167 -6.16699 97.5 -18.5s56.666 -29.333 78.999 -51s40 -47.167 53 -76.5s19.5 -61 19.5 -95zM485 1311c0 16 -3.16699 31 -9.5 45s-15 26.167 -26 36.5s-23.833 18.666 -38.5 24.999s-30 9.5 -46 9.5
c-15.333 0 -30.166 -3.16699 -44.499 -9.5s-26.833 -14.666 -37.5 -24.999s-19.167 -22.5 -25.5 -36.5s-9.5 -29 -9.5 -45s3.16699 -31 9.5 -45s14.833 -26.167 25.5 -36.5s23.167 -18.5 37.5 -24.5s29.166 -9 44.499 -9c16 0 31.333 3 46 9s27.5 14.167 38.5 24.5
s19.667 22.5 26 36.5s9.5 29 9.5 45z" />
    <glyph glyph-name="plusminus" unicode="&#xb1;" horiz-adv-x="877" 
d="M559 565v-243h-242v243h-243v242h243v242h242v-242h244v-242h-244zM74 242h729v-242h-729v242z" />
    <glyph glyph-name="acute" unicode="&#xb4;" horiz-adv-x="971" 
d="M436 1270h-133l148 303h352v-23z" />
    <glyph glyph-name="uni00B5" unicode="&#xb5;" horiz-adv-x="1004" 
d="M604 190c-15.333 -55.333 -40.332 -100.667 -74.999 -136s-77.334 -58 -128.001 -68v-281h-323v1471h323v-832c0 -26.667 5.66699 -47.667 17 -63s31 -23 59 -23c38 0 68.333 20.5 91 61.5s34 103.167 34 186.5v670h324v-1176h-322v190z" />
    <glyph glyph-name="uni00B5" unicode="&#x3bc;" horiz-adv-x="1004" 
d="M604 190c-15.333 -55.333 -40.332 -100.667 -74.999 -136s-77.334 -58 -128.001 -68v-281h-323v1471h323v-832c0 -26.667 5.66699 -47.667 17 -63s31 -23 59 -23c38 0 68.333 20.5 91 61.5s34 103.167 34 186.5v670h324v-1176h-322v190z" />
    <glyph glyph-name="paragraph" unicode="&#xb6;" horiz-adv-x="1198" 
d="M913 0v1415h-118v-1415h-193v551h-180c-54 0 -104.333 7.83301 -151 23.5s-87 42.5 -121 80.5s-60.667 89 -80 153s-29 144.333 -29 241c0 102 12.167 186.667 36.5 254s57 121 98 161s88 68.167 141 84.5s108.5 24.5 166.5 24.5h623v-1573h-193zM602 1415
l-27.001 0.00195312c-25.333 0 -46.166 -5.33301 -62.499 -16s-29.5 -29.5 -39.5 -56.5s-17 -63.667 -21 -110s-6 -105.5 -6 -177.5c0 -81.333 1.66699 -145.833 5 -193.5s9.5 -83.834 18.5 -108.501s21.667 -40.334 38 -47.001s37.5 -10 63.5 -10h31v719z" />
    <glyph glyph-name="periodcentered" unicode="&#xb7;" horiz-adv-x="508" 
d="M436 788c0 -25.333 -4.83301 -49 -14.5 -71s-22.667 -41.167 -39 -57.5s-35.666 -29.333 -57.999 -39s-45.833 -14.5 -70.5 -14.5c-25.333 0 -49 4.83301 -71 14.5s-41.167 22.667 -57.5 39s-29.333 35.5 -39 57.5s-14.5 45.667 -14.5 71s4.83301 49.166 14.5 71.499
s22.667 41.666 39 57.999s35.5 29.333 57.5 39s45.667 14.5 71 14.5c24.667 0 48.167 -4.83301 70.5 -14.5s41.666 -22.667 57.999 -39s29.333 -35.666 39 -57.999s14.5 -46.166 14.5 -71.499z" />
    <glyph glyph-name="periodcentered" unicode="&#x2219;" horiz-adv-x="508" 
d="M436 788c0 -25.333 -4.83301 -49 -14.5 -71s-22.667 -41.167 -39 -57.5s-35.666 -29.333 -57.999 -39s-45.833 -14.5 -70.5 -14.5c-25.333 0 -49 4.83301 -71 14.5s-41.167 22.667 -57.5 39s-29.333 35.5 -39 57.5s-14.5 45.667 -14.5 71s4.83301 49.166 14.5 71.499
s22.667 41.666 39 57.999s35.5 29.333 57.5 39s45.667 14.5 71 14.5c24.667 0 48.167 -4.83301 70.5 -14.5s41.666 -22.667 57.999 -39s29.333 -35.666 39 -57.999s14.5 -46.166 14.5 -71.499z" />
    <glyph glyph-name="cedilla" unicode="&#xb8;" horiz-adv-x="971" 
d="M700 -221c0 -58 -20.8359 -104 -62.5029 -138s-99.834 -51 -174.501 -51c-30 0 -58.5 2 -85.5 6s-51.667 9.5 -74 16.5s-42.333 14.833 -60 23.5s-31.834 18 -42.501 28l65 111c10.667 -8.66699 21.834 -17 33.501 -25s24.834 -15 39.501 -21
s31.334 -10.833 50.001 -14.5s40.667 -5.5 66 -5.5c16 0 28.333 2 37 6s15.334 9.16699 20.001 15.5s7.5 13.333 8.5 21s1.5 14.834 1.5 21.501c0 16.667 -4.16699 30.167 -12.5 40.5s-19.166 17.5 -32.499 21.5s-29 4.66699 -47 2s-36.333 -8.33398 -55 -17.001l37 139h77
c32 0 61 -4.5 87 -13.5s48.167 -21.5 66.5 -37.5s32.5 -35 42.5 -57s15 -46 15 -72z" />
    <glyph glyph-name="ordmasculine" unicode="&#xba;" horiz-adv-x="739" 
d="M684 1198c0 -67.333 -7.16895 -122.333 -21.502 -165s-35.166 -76 -62.499 -100s-60.5 -40.5 -99.5 -49.5s-82.833 -13.5 -131.5 -13.5c-44.667 0 -86.167 4.5 -124.5 13.5s-71.5 25.5 -99.5 49.5s-50 57.333 -66 100s-24 97.667 -24 165
c0 74.667 8.33301 136.167 25 184.5s39.167 86.5 67.5 114.5s61.5 47.333 99.5 58s78.667 16 122 16c47.333 0 90.333 -5.33301 129 -16s71.834 -30 99.501 -58s49 -66.167 64 -114.5s22.5 -109.833 22.5 -184.5zM60.998 688v123h627v-123h-627zM423.998 1217
c0 20.667 -0.333008 42.834 -1 66.501s-2.83398 45.5 -6.50098 65.5s-9.16699 36.667 -16.5 50s-17.666 20 -30.999 20c-14 0 -24.833 -6.66699 -32.5 -20s-13.167 -30 -16.5 -50s-5.33301 -41.833 -6 -65.5s-1 -45.834 -1 -66.501c0 -31.333 0.5 -58.333 1.5 -81
s3.5 -41.167 7.5 -55.5s9.66699 -25 17 -32s17.333 -10.5 30 -10.5c22.667 0 37.5 14.167 44.5 42.5s10.5 73.833 10.5 136.5z" />
    <glyph glyph-name="guillemotright" unicode="&#xbb;" horiz-adv-x="1098" 
d="M553 78v276l287 215l-287 213v277l471 -350v-277zM74 78v276l288 215l-288 213v277l473 -350v-277z" />
    <glyph glyph-name="questiondown" unicode="&#xbf;" horiz-adv-x="827" 
d="M465 1229v344h299v-344h-299zM764 295c0 -43.333 -5.49512 -84.499 -16.4951 -123.499s-29.667 -73 -56 -102s-61.5 -52 -105.5 -69s-98.667 -25.5 -164 -25.5c-79.333 0 -143.333 12.5 -192 37.5s-86.334 59 -113.001 102s-44.334 93.333 -53.001 151
s-13 119.5 -13 185.5c0 110.667 7 200.334 21 269.001s33.333 121.834 58 159.501s53.667 63 87 76s69.666 19.5 108.999 19.5c52 0 93.333 -8.33301 124 -25s54.667 -35.667 72 -57v240h185v-562h-185c0 50 -6 87.5 -18 112.5s-32.667 37.5 -62 37.5
c-15.333 0 -28.333 -3.83301 -39 -11.5s-19.334 -21.334 -26.001 -41.001s-11.5 -46.167 -14.5 -79.5s-4.5 -76 -4.5 -128c0 -50 1.83301 -90.667 5.5 -122s9.16699 -55.833 16.5 -73.5s16.333 -29.834 27 -36.501s23 -10 37 -10c13.333 0 26 1.83301 38 5.5
s22.333 9.66699 31 18s15.5 19.166 20.5 32.499s7.5 29.666 7.5 48.999c0 28.667 -0.666992 52.334 -2 71.001s-4.33301 36.667 -9 54h213c7.33301 -23.333 12.666 -47.333 15.999 -72s5 -52 5 -82z" />
    <glyph glyph-name="Agrave" unicode="&#xc0;" horiz-adv-x="1020" 
d="M627 0l-45 272h-232l-41 -272h-295l301 1573h349l333 -1573h-370zM451 987l-70 -495h164zM531 1680l-366 280v23h352l148 -303h-134z" />
    <glyph glyph-name="Aacute" unicode="&#xc1;" horiz-adv-x="1020" 
d="M627 0l-45 272h-232l-41 -272h-295l301 1573h349l333 -1573h-370zM451 987l-70 -495h164zM477 1680h-133l148 303h352v-23z" />
    <glyph glyph-name="Acircumflex" unicode="&#xc2;" horiz-adv-x="1020" 
d="M627 0l-45 272h-232l-41 -272h-295l301 1573h349l333 -1573h-370zM451 987l-70 -495h164zM687 1661l-205 158l-205 -158h-106l170 324h303l149 -324h-106z" />
    <glyph glyph-name="Atilde" unicode="&#xc3;" horiz-adv-x="1020" 
d="M627 0l-45 272h-232l-41 -272h-295l301 1573h349l333 -1573h-370zM451 987l-70 -495h164zM828 1858c0 -23.333 -2.50195 -45.833 -7.50195 -67.5s-14 -40.834 -27 -57.501s-30.667 -30 -53 -40s-51.166 -15 -86.499 -15c-22.667 0 -42.334 1.16699 -59.001 3.5
s-32.167 6 -46.5 11s-28 11.5 -41 19.5s-26.833 17.667 -41.5 29c-13.333 11.333 -26.5 21.333 -39.5 30s-29.167 13 -48.5 13c-17.333 0 -30.833 -3 -40.5 -9s-16.667 -13.5 -21 -22.5s-6.5 -19.167 -6.5 -30.5s1.33301 -22 4 -32h-100c-6 13.333 -11.333 27.833 -16 43.5
s-7 35.167 -7 58.5c0 24 2.5 46.833 7.5 68.5s14 40.834 27 57.501s30.667 30 53 40s51.166 15 86.499 15c20 0 37.667 -1 53 -3s29.833 -5.5 43.5 -10.5s27.334 -11.833 41.001 -20.5s28.834 -19.334 45.501 -32.001c14 -12 28.333 -21.833 43 -29.5s31.667 -11.5 51 -11.5
c16.667 0 29.834 3 39.501 9s16.667 13.5 21 22.5s6.5 19.167 6.5 30.5s-1.33301 22 -4 32h101c6 -12 11.167 -26.167 15.5 -42.5s6.5 -36.166 6.5 -59.499z" />
    <glyph glyph-name="Adieresis" unicode="&#xc4;" horiz-adv-x="1020" 
d="M627 0l-45 272h-232l-41 -272h-295l301 1573h349l333 -1573h-370zM451 987l-70 -495h164zM520 1692v266h261v-266h-261zM158 1692v266h260v-266h-260z" />
    <glyph glyph-name="Aring" unicode="&#xc5;" horiz-adv-x="1020" 
d="M627 0l-45 271.999h-232l-41 -272h-295l291 1526c-8 8 -15.833 17.5 -23.5 28.5s-14.834 23.333 -21.501 37s-12 28.834 -16 45.501s-6 35 -6 55c0 34 6.5 65.667 19.5 95s30.5 54.833 52.5 76.5s47.833 38.667 77.5 51s61.5 18.5 95.5 18.5
c34.667 0 67.334 -6.16699 98.001 -18.5s57.167 -29.333 79.5 -51s40 -47.167 53 -76.5s19.5 -61 19.5 -95c0 -28 -4.83301 -55.5 -14.5 -82.5s-25.167 -52.833 -46.5 -77.5l325 -1532h-370zM602 1688c0 15.333 -3 30 -9 44s-14.333 26.333 -25 37s-23.5 19.167 -38.5 25.5
s-31.167 9.5 -48.5 9.5c-16 0 -31.167 -3.16699 -45.5 -9.5s-26.666 -14.833 -36.999 -25.5s-18.5 -23 -24.5 -37s-9 -28.667 -9 -44s2.83301 -30 8.5 -44s13.5 -26.333 23.5 -37s22.167 -19 36.5 -25s30.166 -9 47.499 -9c18 0 34.5 3 49.5 9s27.667 14.333 38 25
s18.5 23 24.5 37s9 28.667 9 44zM451 986.999l-70 -495h164z" />
    <glyph glyph-name="AE" unicode="&#xc6;" horiz-adv-x="1389" 
d="M618 0v375h-227l-96 -375h-281l457 1573h840v-297h-355v-328h308v-289h-308v-346h396v-313h-734zM618 1233l-6 0.00195312c0 -10.667 -1 -21.334 -3 -32.001s-5 -23.334 -9 -38.001l-149 -569h167v639z" />
    <glyph glyph-name="Ccedilla" unicode="&#xc7;" horiz-adv-x="1022" 
d="M973 442c0 -76 -8.33789 -143.668 -25.0049 -203.001s-43.334 -109.333 -80.001 -150s-84.167 -71.5 -142.5 -92.5s-128.833 -31.5 -211.5 -31.5c-80 0 -149.333 11.167 -208 33.5s-107.334 61.333 -146.001 117s-67.5 130.834 -86.5 225.501
s-28.5 214.334 -28.5 359.001c0 161.333 7.33301 298.833 22 412.5s40.5 206.334 77.5 278.001s87 124 150 157s143.167 49.5 240.5 49.5c72.667 0 135.334 -9.33301 188.001 -28s96.334 -45.667 131.001 -81s60.334 -78.166 77.001 -128.499s25 -106.833 25 -169.5
c0 -14 -1 -31.833 -3 -53.5s-4.5 -44.167 -7.5 -67.5s-6.33301 -46.333 -10 -69s-6.83398 -41.334 -9.50098 -56.001l-301 -2l2.5 34l3 42c1 14.667 1.66699 29.5 2 44.5s0.5 28.833 0.5 41.5c0 42 -1.33301 77 -4 105s-7.66699 50.167 -15 66.5s-17.166 28 -29.499 35
s-28.166 10.5 -47.499 10.5c-26 0 -47.167 -8.66699 -63.5 -26s-29 -47 -38 -89s-15.167 -98.167 -18.5 -168.5s-5 -158.166 -5 -263.499c0 -81.333 0.5 -150.833 1.5 -208.5s3.16699 -105.834 6.5 -144.501s7.83301 -69.334 13.5 -92.001s13 -39.834 22 -51.501
s20 -19.167 33 -22.5s28.5 -5 46.5 -5c46.667 0 79 20.667 97 62s27 104 27 188c0 16.667 0.166992 32.5 0.5 47.5s0.5 30.333 0.5 46s-0.166992 32 -0.5 49s-1.16602 36.167 -2.49902 57.5l295 -4c4 -22.667 7.33301 -44 10 -64s4.83398 -40 6.50098 -60
s2.83398 -40.5 3.50098 -61.5s1 -43.833 1 -68.5zM719.995 -221.001c0 -58 -20.8359 -104 -62.5029 -138s-99.834 -51 -174.501 -51c-30 0 -58.5 2 -85.5 6s-51.667 9.5 -74 16.5s-42.333 14.833 -60 23.5s-31.834 18 -42.501 28l65 111
c10.667 -8.66699 21.834 -17 33.501 -25s24.834 -15 39.501 -21s31.334 -10.833 50.001 -14.5s40.667 -5.5 66 -5.5c16 0 28.333 2 37 6s15.334 9.16699 20.001 15.5s7.5 13.333 8.5 21s1.5 14.834 1.5 21.501c0 16.667 -4.16699 30.167 -12.5 40.5
s-19.166 17.5 -32.499 21.5s-29 4.66699 -47 2s-36.333 -8.33398 -55 -17.001l37 139h77c32 0 61 -4.5 87 -13.5s48.167 -21.5 66.5 -37.5s32.5 -35 42.5 -57s15 -46 15 -72z" />
    <glyph glyph-name="Egrave" unicode="&#xc8;" horiz-adv-x="954" 
d="M92 0v1573h785v-297h-437v-328h389v-289h-389v-358h478v-301h-826zM593 1680l-366 280v23h352l148 -303h-134z" />
    <glyph glyph-name="Eacute" unicode="&#xc9;" horiz-adv-x="954" 
d="M92 0v1573h785v-297h-437v-328h389v-289h-389v-358h478v-301h-826zM362 1680h-133l148 303h352v-23z" />
    <glyph glyph-name="Ecircumflex" unicode="&#xca;" horiz-adv-x="954" 
d="M92 0v1573h785v-297h-437v-328h389v-289h-389v-358h478v-301h-826zM684 1661l-205 158l-205 -158h-106l170 324h303l149 -324h-106z" />
    <glyph glyph-name="Edieresis" unicode="&#xcb;" horiz-adv-x="954" 
d="M92 0v1573h785v-297h-437v-328h389v-289h-389v-358h478v-301h-826zM530 1692v266h261v-266h-261zM168 1692v266h260v-266h-260z" />
    <glyph glyph-name="Igrave" unicode="&#xcc;" horiz-adv-x="532" 
d="M92 0v1573h348v-1573h-348zM331 1680l-366 280v23h352l148 -303h-134z" />
    <glyph glyph-name="Iacute" unicode="&#xcd;" horiz-adv-x="532" 
d="M92 0v1573h348v-1573h-348zM221 1680h-133l148 303h352v-23z" />
    <glyph glyph-name="Icircumflex" unicode="&#xce;" horiz-adv-x="532" 
d="M92 0v1573h348v-1573h-348zM473 1661l-205 158l-205 -158h-106l170 324h303l149 -324h-106z" />
    <glyph glyph-name="Idieresis" unicode="&#xcf;" horiz-adv-x="532" 
d="M92 0v1573h348v-1573h-348zM319 1692v266h261v-266h-261zM-43 1692v266h260v-266h-260z" />
    <glyph glyph-name="Eth" unicode="&#xd0;" horiz-adv-x="1071" 
d="M1026 713c0 -103.333 -7.16797 -198.669 -21.501 -286.002s-39 -162.666 -74 -225.999s-81.5 -112.666 -139.5 -147.999s-130.667 -53 -218 -53h-481v670h-92v229h92v674h506c72 0 134.833 -20.5 188.5 -61.5s98.334 -99 134.001 -174s62.167 -165.5 79.5 -271.5
s26 -223.667 26 -353zM677.999 749.997c0 105.333 -2.00098 193.5 -6.00098 264.5s-12 128.167 -24 171.5s-29.167 74.333 -51.5 93s-51.833 28 -88.5 28h-76v-408h160v-229h-160v-385h80c28 0 52.5 5.5 73.5 16.5s38.333 33 52 66s23.834 80 30.501 141s10 141.5 10 241.5z
" />
    <glyph glyph-name="Ntilde" unicode="&#xd1;" horiz-adv-x="1063" 
d="M713 0l-336 831v-831h-285v1573h303l303 -748v748h273v-1573h-258zM850 1858c0 -23.333 -2.50195 -45.833 -7.50195 -67.5s-14 -40.834 -27 -57.501s-30.667 -30 -53 -40s-51.166 -15 -86.499 -15c-22.667 0 -42.334 1.16699 -59.001 3.5s-32.167 6 -46.5 11
s-28 11.5 -41 19.5s-26.833 17.667 -41.5 29c-13.333 11.333 -26.5 21.333 -39.5 30s-29.167 13 -48.5 13c-17.333 0 -30.833 -3 -40.5 -9s-16.667 -13.5 -21 -22.5s-6.5 -19.167 -6.5 -30.5s1.33301 -22 4 -32h-100c-6 13.333 -11.333 27.833 -16 43.5s-7 35.167 -7 58.5
c0 24 2.5 46.833 7.5 68.5s14 40.834 27 57.501s30.667 30 53 40s51.166 15 86.499 15c20 0 37.667 -1 53 -3s29.833 -5.5 43.5 -10.5s27.334 -11.833 41.001 -20.5s28.834 -19.334 45.501 -32.001c14 -12 28.333 -21.833 43 -29.5s31.667 -11.5 51 -11.5
c16.667 0 29.834 3 39.501 9s16.667 13.5 21 22.5s6.5 19.167 6.5 30.5s-1.33301 22 -4 32h101c6 -12 11.167 -26.167 15.5 -42.5s6.5 -36.166 6.5 -59.499z" />
    <glyph glyph-name="Ograve" unicode="&#xd2;" horiz-adv-x="1012" 
d="M967 788c0 -100.667 -2.5 -190.667 -7.5 -270s-14 -149.166 -27 -209.499s-30.5 -111.5 -52.5 -153.5s-50 -76.333 -84 -103s-74.833 -46.167 -122.5 -58.5s-103.5 -18.5 -167.5 -18.5c-56.667 0 -107.334 4.66699 -152.001 14s-84 25.833 -118 49.5
s-63.167 55.167 -87.5 94.5s-44.166 89.166 -59.499 149.499s-26.5 132 -33.5 215s-10.5 179.833 -10.5 290.5c0 136.667 7 255.667 21 357s38.5 185.5 73.5 252.5s82.167 117 141.5 150s134.333 49.5 225 49.5c88 0 161.5 -14.5 220.5 -43.5s106.333 -75.667 142 -140
s61 -147.833 76 -250.5s22.5 -227.667 22.5 -375zM610 784c0 108.667 -0.335938 198.166 -1.00293 268.499s-4.16699 126 -10.5 167s-16.666 69.5 -30.999 85.5s-34.833 24 -61.5 24c-26 0 -46.167 -8.16699 -60.5 -24.5s-24.833 -45 -31.5 -86s-10.5 -96.667 -11.5 -167
s-1.5 -159.5 -1.5 -267.5c0 -76 0.333008 -141.833 1 -197.5s2.33398 -102.834 5.00098 -141.501s6.16699 -70 10.5 -94s10.5 -42.5 18.5 -55.5s17.667 -21.833 29 -26.5s25 -7 41 -7c24.667 0 43.834 5.83301 57.501 17.5s24 35.834 31 72.501s11.333 89.334 13 158.001
s2.5 160 2.5 274zM489.997 1680l-366 280v23h352l148 -303h-134z" />
    <glyph glyph-name="Oacute" unicode="&#xd3;" horiz-adv-x="1012" 
d="M967 788c0 -100.667 -2.5 -190.667 -7.5 -270s-14 -149.166 -27 -209.499s-30.5 -111.5 -52.5 -153.5s-50 -76.333 -84 -103s-74.833 -46.167 -122.5 -58.5s-103.5 -18.5 -167.5 -18.5c-56.667 0 -107.334 4.66699 -152.001 14s-84 25.833 -118 49.5
s-63.167 55.167 -87.5 94.5s-44.166 89.166 -59.499 149.499s-26.5 132 -33.5 215s-10.5 179.833 -10.5 290.5c0 136.667 7 255.667 21 357s38.5 185.5 73.5 252.5s82.167 117 141.5 150s134.333 49.5 225 49.5c88 0 161.5 -14.5 220.5 -43.5s106.333 -75.667 142 -140
s61 -147.833 76 -250.5s22.5 -227.667 22.5 -375zM610 784c0 108.667 -0.335938 198.166 -1.00293 268.499s-4.16699 126 -10.5 167s-16.666 69.5 -30.999 85.5s-34.833 24 -61.5 24c-26 0 -46.167 -8.16699 -60.5 -24.5s-24.833 -45 -31.5 -86s-10.5 -96.667 -11.5 -167
s-1.5 -159.5 -1.5 -267.5c0 -76 0.333008 -141.833 1 -197.5s2.33398 -102.834 5.00098 -141.501s6.16699 -70 10.5 -94s10.5 -42.5 18.5 -55.5s17.667 -21.833 29 -26.5s25 -7 41 -7c24.667 0 43.834 5.83301 57.501 17.5s24 35.834 31 72.501s11.333 89.334 13 158.001
s2.5 160 2.5 274zM560.997 1680h-133l148 303h352v-23z" />
    <glyph glyph-name="Ocircumflex" unicode="&#xd4;" horiz-adv-x="1012" 
d="M967 788c0 -100.667 -2.5 -190.667 -7.5 -270s-14 -149.166 -27 -209.499s-30.5 -111.5 -52.5 -153.5s-50 -76.333 -84 -103s-74.833 -46.167 -122.5 -58.5s-103.5 -18.5 -167.5 -18.5c-56.667 0 -107.334 4.66699 -152.001 14s-84 25.833 -118 49.5
s-63.167 55.167 -87.5 94.5s-44.166 89.166 -59.499 149.499s-26.5 132 -33.5 215s-10.5 179.833 -10.5 290.5c0 136.667 7 255.667 21 357s38.5 185.5 73.5 252.5s82.167 117 141.5 150s134.333 49.5 225 49.5c88 0 161.5 -14.5 220.5 -43.5s106.333 -75.667 142 -140
s61 -147.833 76 -250.5s22.5 -227.667 22.5 -375zM610 784c0 108.667 -0.335938 198.166 -1.00293 268.499s-4.16699 126 -10.5 167s-16.666 69.5 -30.999 85.5s-34.833 24 -61.5 24c-26 0 -46.167 -8.16699 -60.5 -24.5s-24.833 -45 -31.5 -86s-10.5 -96.667 -11.5 -167
s-1.5 -159.5 -1.5 -267.5c0 -76 0.333008 -141.833 1 -197.5s2.33398 -102.834 5.00098 -141.501s6.16699 -70 10.5 -94s10.5 -42.5 18.5 -55.5s17.667 -21.833 29 -26.5s25 -7 41 -7c24.667 0 43.834 5.83301 57.501 17.5s24 35.834 31 72.501s11.333 89.334 13 158.001
s2.5 160 2.5 274zM710.997 1661l-205 158l-205 -158h-106l170 324h303l149 -324h-106z" />
    <glyph glyph-name="Otilde" unicode="&#xd5;" horiz-adv-x="1012" 
d="M967 788c0 -100.667 -2.5 -190.667 -7.5 -270s-14 -149.166 -27 -209.499s-30.5 -111.5 -52.5 -153.5s-50 -76.333 -84 -103s-74.833 -46.167 -122.5 -58.5s-103.5 -18.5 -167.5 -18.5c-56.667 0 -107.334 4.66699 -152.001 14s-84 25.833 -118 49.5
s-63.167 55.167 -87.5 94.5s-44.166 89.166 -59.499 149.499s-26.5 132 -33.5 215s-10.5 179.833 -10.5 290.5c0 136.667 7 255.667 21 357s38.5 185.5 73.5 252.5s82.167 117 141.5 150s134.333 49.5 225 49.5c88 0 161.5 -14.5 220.5 -43.5s106.333 -75.667 142 -140
s61 -147.833 76 -250.5s22.5 -227.667 22.5 -375zM610 784c0 108.667 -0.335938 198.166 -1.00293 268.499s-4.16699 126 -10.5 167s-16.666 69.5 -30.999 85.5s-34.833 24 -61.5 24c-26 0 -46.167 -8.16699 -60.5 -24.5s-24.833 -45 -31.5 -86s-10.5 -96.667 -11.5 -167
s-1.5 -159.5 -1.5 -267.5c0 -76 0.333008 -141.833 1 -197.5s2.33398 -102.834 5.00098 -141.501s6.16699 -70 10.5 -94s10.5 -42.5 18.5 -55.5s17.667 -21.833 29 -26.5s25 -7 41 -7c24.667 0 43.834 5.83301 57.501 17.5s24 35.834 31 72.501s11.333 89.334 13 158.001
s2.5 160 2.5 274zM823.997 1858c0 -23.333 -2.50195 -45.833 -7.50195 -67.5s-14 -40.834 -27 -57.501s-30.667 -30 -53 -40s-51.166 -15 -86.499 -15c-22.667 0 -42.334 1.16699 -59.001 3.5s-32.167 6 -46.5 11s-28 11.5 -41 19.5s-26.833 17.667 -41.5 29
c-13.333 11.333 -26.5 21.333 -39.5 30s-29.167 13 -48.5 13c-17.333 0 -30.833 -3 -40.5 -9s-16.667 -13.5 -21 -22.5s-6.5 -19.167 -6.5 -30.5s1.33301 -22 4 -32h-100c-6 13.333 -11.333 27.833 -16 43.5s-7 35.167 -7 58.5c0 24 2.5 46.833 7.5 68.5
s14 40.834 27 57.501s30.667 30 53 40s51.166 15 86.499 15c20 0 37.667 -1 53 -3s29.833 -5.5 43.5 -10.5s27.334 -11.833 41.001 -20.5s28.834 -19.334 45.501 -32.001c14 -12 28.333 -21.833 43 -29.5s31.667 -11.5 51 -11.5c16.667 0 29.834 3 39.501 9
s16.667 13.5 21 22.5s6.5 19.167 6.5 30.5s-1.33301 22 -4 32h101c6 -12 11.167 -26.167 15.5 -42.5s6.5 -36.166 6.5 -59.499z" />
    <glyph glyph-name="Odieresis" unicode="&#xd6;" horiz-adv-x="1012" 
d="M967 788c0 -100.667 -2.5 -190.667 -7.5 -270s-14 -149.166 -27 -209.499s-30.5 -111.5 -52.5 -153.5s-50 -76.333 -84 -103s-74.833 -46.167 -122.5 -58.5s-103.5 -18.5 -167.5 -18.5c-56.667 0 -107.334 4.66699 -152.001 14s-84 25.833 -118 49.5
s-63.167 55.167 -87.5 94.5s-44.166 89.166 -59.499 149.499s-26.5 132 -33.5 215s-10.5 179.833 -10.5 290.5c0 136.667 7 255.667 21 357s38.5 185.5 73.5 252.5s82.167 117 141.5 150s134.333 49.5 225 49.5c88 0 161.5 -14.5 220.5 -43.5s106.333 -75.667 142 -140
s61 -147.833 76 -250.5s22.5 -227.667 22.5 -375zM610 784c0 108.667 -0.335938 198.166 -1.00293 268.499s-4.16699 126 -10.5 167s-16.666 69.5 -30.999 85.5s-34.833 24 -61.5 24c-26 0 -46.167 -8.16699 -60.5 -24.5s-24.833 -45 -31.5 -86s-10.5 -96.667 -11.5 -167
s-1.5 -159.5 -1.5 -267.5c0 -76 0.333008 -141.833 1 -197.5s2.33398 -102.834 5.00098 -141.501s6.16699 -70 10.5 -94s10.5 -42.5 18.5 -55.5s17.667 -21.833 29 -26.5s25 -7 41 -7c24.667 0 43.834 5.83301 57.501 17.5s24 35.834 31 72.501s11.333 89.334 13 158.001
s2.5 160 2.5 274zM555.997 1692v266h261v-266h-261zM193.997 1692v266h260v-266h-260z" />
    <glyph glyph-name="multiply" unicode="&#xd7;" horiz-adv-x="877" 
d="M608 686l172 -172l-170 -172l-172 172l-172 -172l-172 172l172 172l-170 170l170 172l172 -172l172 172l170 -170z" />
    <glyph glyph-name="Oslash" unicode="&#xd8;" horiz-adv-x="1012" 
d="M874 1403c32.667 -63.333 56.333 -145.831 71 -247.498s22 -224.167 22 -367.5c0 -100.667 -2.5 -190.667 -7.5 -270s-14 -149.166 -27 -209.499s-30.5 -111.5 -52.5 -153.5s-50 -76.333 -84 -103s-74.833 -46.167 -122.5 -58.5s-103.5 -18.5 -167.5 -18.5
c-68.667 0 -128.5 7.16699 -179.5 21.5s-94.833 40.166 -131.5 77.499l-50 -99h-108l94 187c-30.667 61.333 -52.667 142.666 -66 243.999s-20 228.666 -20 381.999c0 136.667 7 255.667 21 357s38.5 185.5 73.5 252.5s82.167 117 141.5 150s134.333 49.5 225 49.5
c68 0 126.833 -8.33301 176.5 -25s92.5 -43 128.5 -79l53 104h109zM613.999 1108c-2 43.333 -5.33301 79.666 -10 108.999s-11.167 52.833 -19.5 70.5s-18.833 30.334 -31.5 38.001s-28.334 11.5 -47.001 11.5c-26 0 -46.667 -8.5 -62 -25.5s-26.666 -46.5 -33.999 -88.5
s-12 -98.667 -14 -170s-3 -161 -3 -269v-108zM617.999 903.002l-220.999 -429.998c2.66699 -46 6.66699 -83.333 12 -112s12.333 -50.834 21 -66.501s19.167 -26.334 31.5 -32.001s27.166 -8.5 44.499 -8.5c16 0 30 2.5 42 7.5s22.167 14.5 30.5 28.5s15 33.333 20 58
s9 56.667 12 96s5 86.833 6 142.5s1.5 121.5 1.5 197.5v119z" />
    <glyph glyph-name="Ugrave" unicode="&#xd9;" horiz-adv-x="1096" 
d="M1008 451c0 -66 -6.16504 -127.832 -18.498 -185.499s-35.5 -108 -69.5 -151s-81 -77 -141 -102s-137.333 -37.5 -232 -37.5c-88 0 -161.333 11.833 -220 35.5s-105.834 56.667 -141.501 99s-60.834 92.666 -75.501 150.999s-22 121.833 -22 190.5v1122h346v-1163
c0 -35.333 9.33301 -63.333 28 -84s47 -31 85 -31c39.333 0 68.333 10.833 87 32.5s28 49.167 28 82.5v1163h346v-1122zM558.002 1680l-366 280v23h352l148 -303h-134z" />
    <glyph glyph-name="Uacute" unicode="&#xda;" horiz-adv-x="1096" 
d="M1008 451c0 -66 -6.16504 -127.832 -18.498 -185.499s-35.5 -108 -69.5 -151s-81 -77 -141 -102s-137.333 -37.5 -232 -37.5c-88 0 -161.333 11.833 -220 35.5s-105.834 56.667 -141.501 99s-60.834 92.666 -75.501 150.999s-22 121.833 -22 190.5v1122h346v-1163
c0 -35.333 9.33301 -63.333 28 -84s47 -31 85 -31c39.333 0 68.333 10.833 87 32.5s28 49.167 28 82.5v1163h346v-1122zM549.002 1680h-133l148 303h352v-23z" />
    <glyph glyph-name="Ucircumflex" unicode="&#xdb;" horiz-adv-x="1096" 
d="M1008 451c0 -66 -6.16504 -127.832 -18.498 -185.499s-35.5 -108 -69.5 -151s-81 -77 -141 -102s-137.333 -37.5 -232 -37.5c-88 0 -161.333 11.833 -220 35.5s-105.834 56.667 -141.501 99s-60.834 92.666 -75.501 150.999s-22 121.833 -22 190.5v1122h346v-1163
c0 -35.333 9.33301 -63.333 28 -84s47 -31 85 -31c39.333 0 68.333 10.833 87 32.5s28 49.167 28 82.5v1163h346v-1122zM753.002 1661l-205 158l-205 -158h-106l170 324h303l149 -324h-106z" />
    <glyph glyph-name="Udieresis" unicode="&#xdc;" horiz-adv-x="1096" 
d="M1008 451c0 -66 -6.16504 -127.832 -18.498 -185.499s-35.5 -108 -69.5 -151s-81 -77 -141 -102s-137.333 -37.5 -232 -37.5c-88 0 -161.333 11.833 -220 35.5s-105.834 56.667 -141.501 99s-60.834 92.666 -75.501 150.999s-22 121.833 -22 190.5v1122h346v-1163
c0 -35.333 9.33301 -63.333 28 -84s47 -31 85 -31c39.333 0 68.333 10.833 87 32.5s28 49.167 28 82.5v1163h346v-1122zM598.002 1692v266h261v-266h-261zM236.002 1692v266h260v-266h-260z" />
    <glyph glyph-name="Yacute" unicode="&#xdd;" horiz-adv-x="1022" 
d="M690 614v-614h-348v614l-342 959h348l189 -584l186 584h299zM476 1680h-133l148 303h352v-23z" />
    <glyph glyph-name="Thorn" unicode="&#xde;" horiz-adv-x="1016" 
d="M977 750c0 -97.333 -9.16699 -177.333 -27.5 -240s-45 -112.5 -80 -149.5s-78.167 -62.667 -129.5 -77s-109.666 -21.5 -174.999 -21.5h-133v-262h-340v1573h340v-299h86c69.333 0 132.166 -8.16699 188.499 -24.5s104.5 -44.5 144.5 -84.5s71 -93.667 93 -161
s33 -152 33 -254zM633 766c0 46 -2.5 84.168 -7.5 114.501s-12.667 54.333 -23 72s-24 30.167 -41 37.5s-37.5 11 -61.5 11h-68v-460h68c47.333 0 81.333 17.667 102 53s31 92.666 31 171.999z" />
    <glyph glyph-name="germandbls" unicode="&#xdf;" horiz-adv-x="1020" 
d="M975 444c0 -76.667 -7.66797 -142.999 -23.001 -198.999s-40 -102.167 -74 -138.5s-78.5 -63.166 -133.5 -80.499s-122.167 -26 -201.5 -26h-49v242h12c27.333 0 50.333 3.5 69 10.5s33.834 19.667 45.501 38s20 43 25 74s7.5 70.5 7.5 118.5
c0 41.333 -3.16699 76 -9.5 104s-15.833 50.333 -28.5 67s-28.5 28.5 -47.5 35.5s-40.833 10.5 -65.5 10.5h-8v254h12c24.667 0 44.5 3.66699 59.5 11s26.833 20 35.5 38s14.5 41.667 17.5 71s4.5 66 4.5 110c0 36 -1.66699 66.167 -5 90.5s-9.33301 43.833 -18 58.5
s-20 25.167 -34 31.5s-31.333 9.5 -52 9.5c-18 0 -33.167 -3.16699 -45.5 -9.5s-22.5 -14.833 -30.5 -25.5s-13.667 -22.834 -17 -36.501s-5 -27.834 -5 -42.501v-1260h-324v1202c0 64.667 6.83301 121.667 20.5 171s36.167 90.666 67.5 123.999s72 58.333 122 75
s111.667 25 185 25c79.333 0 146.666 -10.833 201.999 -32.5s100.166 -51 134.499 -88s59.333 -80.333 75 -130s23.5 -102.5 23.5 -158.5c0 -45.333 -4.5 -87.833 -13.5 -127.5s-23.167 -74.667 -42.5 -105s-44.166 -54.666 -74.499 -72.999s-66.833 -28.5 -109.5 -30.5v-10
c42.667 -4 81.834 -15.167 117.501 -33.5s66.5 -43.833 92.5 -76.5s46.333 -73 61 -121s22 -103.667 22 -167z" />
    <glyph glyph-name="agrave" unicode="&#xe0;" horiz-adv-x="1051" 
d="M1030 37c-8 -6 -19.8359 -12.5039 -35.5029 -19.5039s-33.5 -13.667 -53.5 -20s-41.167 -11.666 -63.5 -15.999s-43.833 -6.5 -64.5 -6.5c-41.333 0 -74.166 3.83301 -98.499 11.5s-43.666 18.167 -57.999 31.5s-24.833 29.333 -31.5 48s-13 39 -19 61l-18 -37
c-6.66699 -13.333 -16.667 -26.833 -30 -40.5s-30 -26 -50 -37s-43.167 -20 -69.5 -27s-55.833 -10.5 -88.5 -10.5c-56.667 0 -104.667 10.167 -144 30.5s-71.166 47.333 -95.499 81s-42 71.667 -53 114s-16.5 85.5 -16.5 129.5c0 98.667 23.333 177.167 70 235.5
s121 97.833 223 118.5l123 27c31.333 6.66699 56.666 13.834 75.999 21.501s34.5 17.334 45.5 29.001s18.333 25.834 22 42.501s5.5 37.334 5.5 62.001c0 55.333 -11 94.5 -33 117.5s-54 34.5 -96 34.5c-19.333 0 -37.5 -3 -54.5 -9s-31.833 -14.167 -44.5 -24.5
s-22.5 -23 -29.5 -38s-10.5 -31.5 -10.5 -49.5c0 -20.667 1.33301 -38.5 4 -53.5s6.66699 -30.5 12 -46.5l-270 -6l-7 31c-2 9.33301 -3.66699 18.666 -5 27.999s-2.33301 19.333 -3 30s-1 23.334 -1 38.001c0 52.667 10.833 97.5 32.5 134.5s51.334 67.333 89.001 91
s81.5 41 131.5 52s103.333 16.5 160 16.5c82 0 151.333 -6.5 208 -19.5s102.5 -31 137.5 -54s60.333 -50.833 76 -83.5s23.5 -68.334 23.5 -107.001v-684c0 -21.333 7.5 -37.833 22.5 -49.5s32.5 -17.5 52.5 -17.5c9.33301 0 19 2 29 6v-166zM605.997 583.996
c-14 -8.66699 -29.999 -16.333 -47.999 -23s-34.667 -12 -50 -16c-29.333 -8 -53.333 -17 -72 -27s-33.167 -21.833 -43.5 -35.5s-17.5 -29.834 -21.5 -48.501s-6 -41 -6 -67c0 -51.333 7.16699 -91.166 21.5 -119.499s41.166 -42.5 80.499 -42.5
c18.667 0 36.5 2.66699 53.5 8s31.833 17 44.5 35s22.667 44.167 30 78.5s11 80.5 11 138.5v119zM550.998 1270l-366 280v23h352l148 -303h-134z" />
    <glyph glyph-name="aacute" unicode="&#xe1;" horiz-adv-x="1051" 
d="M1030 37c-8 -6 -19.8359 -12.5039 -35.5029 -19.5039s-33.5 -13.667 -53.5 -20s-41.167 -11.666 -63.5 -15.999s-43.833 -6.5 -64.5 -6.5c-41.333 0 -74.166 3.83301 -98.499 11.5s-43.666 18.167 -57.999 31.5s-24.833 29.333 -31.5 48s-13 39 -19 61l-18 -37
c-6.66699 -13.333 -16.667 -26.833 -30 -40.5s-30 -26 -50 -37s-43.167 -20 -69.5 -27s-55.833 -10.5 -88.5 -10.5c-56.667 0 -104.667 10.167 -144 30.5s-71.166 47.333 -95.499 81s-42 71.667 -53 114s-16.5 85.5 -16.5 129.5c0 98.667 23.333 177.167 70 235.5
s121 97.833 223 118.5l123 27c31.333 6.66699 56.666 13.834 75.999 21.501s34.5 17.334 45.5 29.001s18.333 25.834 22 42.501s5.5 37.334 5.5 62.001c0 55.333 -11 94.5 -33 117.5s-54 34.5 -96 34.5c-19.333 0 -37.5 -3 -54.5 -9s-31.833 -14.167 -44.5 -24.5
s-22.5 -23 -29.5 -38s-10.5 -31.5 -10.5 -49.5c0 -20.667 1.33301 -38.5 4 -53.5s6.66699 -30.5 12 -46.5l-270 -6l-7 31c-2 9.33301 -3.66699 18.666 -5 27.999s-2.33301 19.333 -3 30s-1 23.334 -1 38.001c0 52.667 10.833 97.5 32.5 134.5s51.334 67.333 89.001 91
s81.5 41 131.5 52s103.333 16.5 160 16.5c82 0 151.333 -6.5 208 -19.5s102.5 -31 137.5 -54s60.333 -50.833 76 -83.5s23.5 -68.334 23.5 -107.001v-684c0 -21.333 7.5 -37.833 22.5 -49.5s32.5 -17.5 52.5 -17.5c9.33301 0 19 2 29 6v-166zM605.997 583.996
c-14 -8.66699 -29.999 -16.333 -47.999 -23s-34.667 -12 -50 -16c-29.333 -8 -53.333 -17 -72 -27s-33.167 -21.833 -43.5 -35.5s-17.5 -29.834 -21.5 -48.501s-6 -41 -6 -67c0 -51.333 7.16699 -91.166 21.5 -119.499s41.166 -42.5 80.499 -42.5
c18.667 0 36.5 2.66699 53.5 8s31.833 17 44.5 35s22.667 44.167 30 78.5s11 80.5 11 138.5v119zM480.998 1270h-133l148 303h352v-23z" />
    <glyph glyph-name="acircumflex" unicode="&#xe2;" horiz-adv-x="1051" 
d="M1030 37c-8 -6 -19.8359 -12.5039 -35.5029 -19.5039s-33.5 -13.667 -53.5 -20s-41.167 -11.666 -63.5 -15.999s-43.833 -6.5 -64.5 -6.5c-41.333 0 -74.166 3.83301 -98.499 11.5s-43.666 18.167 -57.999 31.5s-24.833 29.333 -31.5 48s-13 39 -19 61l-18 -37
c-6.66699 -13.333 -16.667 -26.833 -30 -40.5s-30 -26 -50 -37s-43.167 -20 -69.5 -27s-55.833 -10.5 -88.5 -10.5c-56.667 0 -104.667 10.167 -144 30.5s-71.166 47.333 -95.499 81s-42 71.667 -53 114s-16.5 85.5 -16.5 129.5c0 98.667 23.333 177.167 70 235.5
s121 97.833 223 118.5l123 27c31.333 6.66699 56.666 13.834 75.999 21.501s34.5 17.334 45.5 29.001s18.333 25.834 22 42.501s5.5 37.334 5.5 62.001c0 55.333 -11 94.5 -33 117.5s-54 34.5 -96 34.5c-19.333 0 -37.5 -3 -54.5 -9s-31.833 -14.167 -44.5 -24.5
s-22.5 -23 -29.5 -38s-10.5 -31.5 -10.5 -49.5c0 -20.667 1.33301 -38.5 4 -53.5s6.66699 -30.5 12 -46.5l-270 -6l-7 31c-2 9.33301 -3.66699 18.666 -5 27.999s-2.33301 19.333 -3 30s-1 23.334 -1 38.001c0 52.667 10.833 97.5 32.5 134.5s51.334 67.333 89.001 91
s81.5 41 131.5 52s103.333 16.5 160 16.5c82 0 151.333 -6.5 208 -19.5s102.5 -31 137.5 -54s60.333 -50.833 76 -83.5s23.5 -68.334 23.5 -107.001v-684c0 -21.333 7.5 -37.833 22.5 -49.5s32.5 -17.5 52.5 -17.5c9.33301 0 19 2 29 6v-166zM605.997 583.996
c-14 -8.66699 -29.999 -16.333 -47.999 -23s-34.667 -12 -50 -16c-29.333 -8 -53.333 -17 -72 -27s-33.167 -21.833 -43.5 -35.5s-17.5 -29.834 -21.5 -48.501s-6 -41 -6 -67c0 -51.333 7.16699 -91.166 21.5 -119.499s41.166 -42.5 80.499 -42.5
c18.667 0 36.5 2.66699 53.5 8s31.833 17 44.5 35s22.667 44.167 30 78.5s11 80.5 11 138.5v119zM700.998 1251l-205 158l-205 -158h-106l170 324h303l149 -324h-106z" />
    <glyph glyph-name="atilde" unicode="&#xe3;" horiz-adv-x="1051" 
d="M1030 37c-8 -6 -19.8359 -12.5039 -35.5029 -19.5039s-33.5 -13.667 -53.5 -20s-41.167 -11.666 -63.5 -15.999s-43.833 -6.5 -64.5 -6.5c-41.333 0 -74.166 3.83301 -98.499 11.5s-43.666 18.167 -57.999 31.5s-24.833 29.333 -31.5 48s-13 39 -19 61l-18 -37
c-6.66699 -13.333 -16.667 -26.833 -30 -40.5s-30 -26 -50 -37s-43.167 -20 -69.5 -27s-55.833 -10.5 -88.5 -10.5c-56.667 0 -104.667 10.167 -144 30.5s-71.166 47.333 -95.499 81s-42 71.667 -53 114s-16.5 85.5 -16.5 129.5c0 98.667 23.333 177.167 70 235.5
s121 97.833 223 118.5l123 27c31.333 6.66699 56.666 13.834 75.999 21.501s34.5 17.334 45.5 29.001s18.333 25.834 22 42.501s5.5 37.334 5.5 62.001c0 55.333 -11 94.5 -33 117.5s-54 34.5 -96 34.5c-19.333 0 -37.5 -3 -54.5 -9s-31.833 -14.167 -44.5 -24.5
s-22.5 -23 -29.5 -38s-10.5 -31.5 -10.5 -49.5c0 -20.667 1.33301 -38.5 4 -53.5s6.66699 -30.5 12 -46.5l-270 -6l-7 31c-2 9.33301 -3.66699 18.666 -5 27.999s-2.33301 19.333 -3 30s-1 23.334 -1 38.001c0 52.667 10.833 97.5 32.5 134.5s51.334 67.333 89.001 91
s81.5 41 131.5 52s103.333 16.5 160 16.5c82 0 151.333 -6.5 208 -19.5s102.5 -31 137.5 -54s60.333 -50.833 76 -83.5s23.5 -68.334 23.5 -107.001v-684c0 -21.333 7.5 -37.833 22.5 -49.5s32.5 -17.5 52.5 -17.5c9.33301 0 19 2 29 6v-166zM605.997 583.996
c-14 -8.66699 -29.999 -16.333 -47.999 -23s-34.667 -12 -50 -16c-29.333 -8 -53.333 -17 -72 -27s-33.167 -21.833 -43.5 -35.5s-17.5 -29.834 -21.5 -48.501s-6 -41 -6 -67c0 -51.333 7.16699 -91.166 21.5 -119.499s41.166 -42.5 80.499 -42.5
c18.667 0 36.5 2.66699 53.5 8s31.833 17 44.5 35s22.667 44.167 30 78.5s11 80.5 11 138.5v119zM818.998 1448c0 -23.333 -2.50195 -45.833 -7.50195 -67.5s-14 -40.834 -27 -57.501s-30.667 -30 -53 -40s-51.166 -15 -86.499 -15c-22.667 0 -42.334 1.16699 -59.001 3.5
s-32.167 6 -46.5 11s-28 11.5 -41 19.5s-26.833 17.667 -41.5 29c-13.333 11.333 -26.5 21.333 -39.5 30s-29.167 13 -48.5 13c-17.333 0 -30.833 -3 -40.5 -9s-16.667 -13.5 -21 -22.5s-6.5 -19.167 -6.5 -30.5s1.33301 -22 4 -32h-100c-6 13.333 -11.333 27.833 -16 43.5
s-7 35.167 -7 58.5c0 24 2.5 46.833 7.5 68.5s14 40.834 27 57.501s30.667 30 53 40s51.166 15 86.499 15c20 0 37.667 -1 53 -3s29.833 -5.5 43.5 -10.5s27.334 -11.833 41.001 -20.5s28.834 -19.334 45.501 -32.001c14 -12 28.333 -21.833 43 -29.5s31.667 -11.5 51 -11.5
c16.667 0 29.834 3 39.501 9s16.667 13.5 21 22.5s6.5 19.167 6.5 30.5s-1.33301 22 -4 32h101c6 -12 11.167 -26.167 15.5 -42.5s6.5 -36.166 6.5 -59.499z" />
    <glyph glyph-name="adieresis" unicode="&#xe4;" horiz-adv-x="1051" 
d="M1030 37c-8 -6 -19.8359 -12.5039 -35.5029 -19.5039s-33.5 -13.667 -53.5 -20s-41.167 -11.666 -63.5 -15.999s-43.833 -6.5 -64.5 -6.5c-41.333 0 -74.166 3.83301 -98.499 11.5s-43.666 18.167 -57.999 31.5s-24.833 29.333 -31.5 48s-13 39 -19 61l-18 -37
c-6.66699 -13.333 -16.667 -26.833 -30 -40.5s-30 -26 -50 -37s-43.167 -20 -69.5 -27s-55.833 -10.5 -88.5 -10.5c-56.667 0 -104.667 10.167 -144 30.5s-71.166 47.333 -95.499 81s-42 71.667 -53 114s-16.5 85.5 -16.5 129.5c0 98.667 23.333 177.167 70 235.5
s121 97.833 223 118.5l123 27c31.333 6.66699 56.666 13.834 75.999 21.501s34.5 17.334 45.5 29.001s18.333 25.834 22 42.501s5.5 37.334 5.5 62.001c0 55.333 -11 94.5 -33 117.5s-54 34.5 -96 34.5c-19.333 0 -37.5 -3 -54.5 -9s-31.833 -14.167 -44.5 -24.5
s-22.5 -23 -29.5 -38s-10.5 -31.5 -10.5 -49.5c0 -20.667 1.33301 -38.5 4 -53.5s6.66699 -30.5 12 -46.5l-270 -6l-7 31c-2 9.33301 -3.66699 18.666 -5 27.999s-2.33301 19.333 -3 30s-1 23.334 -1 38.001c0 52.667 10.833 97.5 32.5 134.5s51.334 67.333 89.001 91
s81.5 41 131.5 52s103.333 16.5 160 16.5c82 0 151.333 -6.5 208 -19.5s102.5 -31 137.5 -54s60.333 -50.833 76 -83.5s23.5 -68.334 23.5 -107.001v-684c0 -21.333 7.5 -37.833 22.5 -49.5s32.5 -17.5 52.5 -17.5c9.33301 0 19 2 29 6v-166zM605.997 583.996
c-14 -8.66699 -29.999 -16.333 -47.999 -23s-34.667 -12 -50 -16c-29.333 -8 -53.333 -17 -72 -27s-33.167 -21.833 -43.5 -35.5s-17.5 -29.834 -21.5 -48.501s-6 -41 -6 -67c0 -51.333 7.16699 -91.166 21.5 -119.499s41.166 -42.5 80.499 -42.5
c18.667 0 36.5 2.66699 53.5 8s31.833 17 44.5 35s22.667 44.167 30 78.5s11 80.5 11 138.5v119zM545.998 1282v266h261v-266h-261zM183.998 1282v266h260v-266h-260z" />
    <glyph glyph-name="aring" unicode="&#xe5;" horiz-adv-x="1051" 
d="M1030 37c-8 -6 -19.8359 -12.5039 -35.5029 -19.5039s-33.5 -13.667 -53.5 -20s-41.167 -11.666 -63.5 -15.999s-43.833 -6.5 -64.5 -6.5c-41.333 0 -74.166 3.83301 -98.499 11.5s-43.666 18.167 -57.999 31.5s-24.833 29.333 -31.5 48s-13 39 -19 61l-18 -37
c-6.66699 -13.333 -16.667 -26.833 -30 -40.5s-30 -26 -50 -37s-43.167 -20 -69.5 -27s-55.833 -10.5 -88.5 -10.5c-56.667 0 -104.667 10.167 -144 30.5s-71.166 47.333 -95.499 81s-42 71.667 -53 114s-16.5 85.5 -16.5 129.5c0 98.667 23.333 177.167 70 235.5
s121 97.833 223 118.5l123 27c31.333 6.66699 56.666 13.834 75.999 21.501s34.5 17.334 45.5 29.001s18.333 25.834 22 42.501s5.5 37.334 5.5 62.001c0 55.333 -11 94.5 -33 117.5s-54 34.5 -96 34.5c-19.333 0 -37.5 -3 -54.5 -9s-31.833 -14.167 -44.5 -24.5
s-22.5 -23 -29.5 -38s-10.5 -31.5 -10.5 -49.5c0 -20.667 1.33301 -38.5 4 -53.5s6.66699 -30.5 12 -46.5l-270 -6l-7 31c-2 9.33301 -3.66699 18.666 -5 27.999s-2.33301 19.333 -3 30s-1 23.334 -1 38.001c0 52.667 10.833 97.5 32.5 134.5s51.334 67.333 89.001 91
s81.5 41 131.5 52s103.333 16.5 160 16.5c82 0 151.333 -6.5 208 -19.5s102.5 -31 137.5 -54s60.333 -50.833 76 -83.5s23.5 -68.334 23.5 -107.001v-684c0 -21.333 7.5 -37.833 22.5 -49.5s32.5 -17.5 52.5 -17.5c9.33301 0 19 2 29 6v-166zM605.997 583.996
c-14 -8.66699 -29.999 -16.333 -47.999 -23s-34.667 -12 -50 -16c-29.333 -8 -53.333 -17 -72 -27s-33.167 -21.833 -43.5 -35.5s-17.5 -29.834 -21.5 -48.501s-6 -41 -6 -67c0 -51.333 7.16699 -91.166 21.5 -119.499s41.166 -42.5 80.499 -42.5
c18.667 0 36.5 2.66699 53.5 8s31.833 17 44.5 35s22.667 44.167 30 78.5s11 80.5 11 138.5v119zM735.998 1481c0 -33.333 -6.5 -64.833 -19.5 -94.5s-30.667 -55.5 -53 -77.5s-48.833 -39.5 -79.5 -52.5s-63.334 -19.5 -98.001 -19.5c-34 0 -65.833 6.5 -95.5 19.5
s-55.5 30.5 -77.5 52.5s-39.5 47.833 -52.5 77.5s-19.5 61.167 -19.5 94.5c0 34 6.5 65.667 19.5 95s30.5 54.833 52.5 76.5s47.833 38.667 77.5 51s61.5 18.5 95.5 18.5c34.667 0 67.334 -6.16699 98.001 -18.5s57.167 -29.333 79.5 -51s40 -47.167 53 -76.5
s19.5 -61 19.5 -95zM606.998 1479c0 15.333 -3.33301 30 -10 44s-15.5 26.333 -26.5 37s-23.833 19.167 -38.5 25.5s-30 9.5 -46 9.5c-14.667 0 -29 -3.16699 -43 -9.5s-26.333 -14.833 -37 -25.5s-19.334 -23 -26.001 -37s-10 -28.667 -10 -44s3.33301 -30 10 -44
s15.334 -26.333 26.001 -37s23 -19 37 -25s28.333 -9 43 -9c16 0 31.333 3 46 9s27.5 14.333 38.5 25s19.833 23 26.5 37s10 28.667 10 44z" />
    <glyph glyph-name="ae" unicode="&#xe6;" horiz-adv-x="1470" 
d="M891 524c-0.666992 -65.333 1.66895 -117.165 7.00195 -155.498s13.833 -67.833 25.5 -88.5s26.167 -34 43.5 -40s37.666 -9 60.999 -9c44 0 74.5 13.833 91.5 41.5s23.5 66.5 19.5 116.5l-4 47l280 -8c4 -22 6 -51.333 6 -88c0 -50.667 -6.66699 -98 -20 -142
s-35.333 -82.167 -66 -114.5s-70.834 -57.666 -120.501 -75.999s-110.5 -27.5 -182.5 -27.5c-30.667 0 -63 1.83301 -97 5.5s-67.167 10.667 -99.5 21s-62.833 24.5 -91.5 42.5s-53.334 41.333 -74.001 70l-47 -41c-12.667 -10 -28.167 -21 -46.5 -33s-39 -23.167 -62 -33.5
s-48.333 -19 -76 -26s-57.167 -10.5 -88.5 -10.5c-56.667 0 -104.667 10.167 -144 30.5s-71.166 47.333 -95.499 81s-42 71.667 -53 114s-16.5 85.5 -16.5 129.5c0 98.667 23.333 177.167 70 235.5s121 97.833 223 118.5l123 27c34 7.33301 61 15 81 23s35 17.667 45 29
s16.333 25.166 19 41.499s4 36.833 4 61.5c0 55.333 -11 94.5 -33 117.5s-54 34.5 -96 34.5c-19.333 0 -37.5 -3 -54.5 -9s-31.833 -14.167 -44.5 -24.5s-22.5 -23 -29.5 -38s-10.5 -31.5 -10.5 -49.5c0 -20.667 1.66699 -38.167 5 -52.5l11 -47.5l-270 -6l-7 31
c-2 9.33301 -3.66699 18.666 -5 27.999s-2.33301 19.333 -3 30s-1 23.334 -1 38.001c0 52.667 10.833 97.5 32.5 134.5s51.334 67.333 89.001 91s81.5 41 131.5 52s103.333 16.5 160 16.5c20.667 0 43 -1.33301 67 -4s48 -6.83398 72 -12.501s47.5 -13 70.5 -22
s44.167 -19.833 63.5 -32.5c32 21.333 68 38.5 108 51.5s88 19.5 144 19.5c64 0 119.667 -10.5 167 -31.5s87.166 -51.5 119.499 -91.5s58 -88.833 77 -146.5s32.167 -123.5 39.5 -197.5c4 -40.667 7 -79.334 9 -116.001s3.66699 -73 5 -109zM606.003 584.001
c-14 -8.66699 -29.999 -16.333 -47.999 -23s-34.667 -12 -50 -16c-29.333 -8 -53.333 -17 -72 -27s-33.167 -21.833 -43.5 -35.5s-17.5 -29.834 -21.5 -48.501s-6 -41 -6 -67c0 -51.333 7.16699 -91.166 21.5 -119.499s41.166 -42.5 80.499 -42.5
c18.667 0 36.5 2.66699 53.5 8s31.833 17 44.5 35s22.667 44.167 30 78.5s11 80.5 11 138.5v119zM1108 690.002c-3.33301 56.667 -6.50391 103.668 -9.50391 141.001s-7.83301 66.666 -14.5 87.999s-16.167 36.333 -28.5 45s-28.833 13 -49.5 13
c-21.333 0 -39.166 -6.16699 -53.499 -18.5s-25.666 -30.5 -33.999 -54.5s-14.666 -53.833 -18.999 -89.5s-7.16602 -77.167 -8.49902 -124.5h217z" />
    <glyph glyph-name="ccedilla" unicode="&#xe7;" horiz-adv-x="946" 
d="M907 358c0 -44 -5.99609 -88.6641 -17.9961 -133.997s-33 -86.5 -63 -123.5s-70.333 -67.167 -121 -90.5s-114.334 -35 -191.001 -35c-75.333 0 -142.333 8.66699 -201 26s-108.167 47.5 -148.5 90.5s-71 101.333 -92 175s-31.5 166.5 -31.5 278.5
c0 127.333 11.333 233.666 34 318.999s54.5 153.833 95.5 205.5s89.833 88.334 146.5 110.001s119 32.5 187 32.5c75.333 0 137.5 -10.167 186.5 -30.5s88 -47.833 117 -82.5s49.167 -75.334 60.5 -122.001s17 -96 17 -148c0 -38.667 -2 -71.334 -6 -98.001l-277 -8
c2 9.33301 3.5 19.5 4.5 30.5s1.5 24.167 1.5 39.5c0 54 -8.83301 96.167 -26.5 126.5s-44.834 45.5 -81.501 45.5c-26 0 -47.5 -5.33301 -64.5 -16s-30.167 -29.5 -39.5 -56.5s-15.833 -63.167 -19.5 -108.5s-5.5 -102.666 -5.5 -171.999c0 -80.667 2 -146 6 -196
s11 -88.833 21 -116.5s23.667 -46.334 41 -56.001s39 -14.5 65 -14.5s46.667 7.5 62 22.5s27.166 34 35.499 57s13.666 48.167 15.999 75.5s3.5 53.666 3.5 78.999c0 28.667 -3 51 -9 67l281 -14c4 -19.333 7.33301 -42.5 10 -69.5s4 -56.5 4 -88.5zM722.004 -220.997
c0 -58 -20.8359 -104 -62.5029 -138s-99.834 -51 -174.501 -51c-30 0 -58.5 2 -85.5 6s-51.667 9.5 -74 16.5s-42.333 14.833 -60 23.5s-31.834 18 -42.501 28l65 111c10.667 -8.66699 21.834 -17 33.501 -25s24.834 -15 39.501 -21s31.334 -10.833 50.001 -14.5
s40.667 -5.5 66 -5.5c16 0 28.333 2 37 6s15.334 9.16699 20.001 15.5s7.5 13.333 8.5 21s1.5 14.834 1.5 21.501c0 16.667 -4.16699 30.167 -12.5 40.5s-19.166 17.5 -32.499 21.5s-29 4.66699 -47 2s-36.333 -8.33398 -55 -17.001l37 139h77c32 0 61 -4.5 87 -13.5
s48.167 -21.5 66.5 -37.5s32.5 -35 42.5 -57s15 -46 15 -72z" />
    <glyph glyph-name="egrave" unicode="&#xe8;" horiz-adv-x="946" 
d="M367 524c-0.666992 -65.333 1.66797 -117.498 7.00098 -156.498s13.833 -68.833 25.5 -89.5s26.167 -34.334 43.5 -41.001s37.666 -10 60.999 -10c44 0 74.5 14.5 91.5 43.5s23.167 68.5 18.5 118.5l-4 47l281 -8c4 -22 6 -51.333 6 -88
c0 -50.667 -6.66699 -98.167 -20 -142.5s-35.333 -83 -66 -116s-70.834 -59 -120.501 -78s-110.5 -28.5 -182.5 -28.5c-47.333 0 -91.666 3.33301 -132.999 10s-79.333 18.5 -114 35.5s-65.667 39.833 -93 68.5s-50.333 65 -69 109s-33 96.667 -43 158s-15 133 -15 215
c0 113.333 9.66699 210.5 29 291.5s47.5 147.333 84.5 199s82.833 89.667 137.5 114s117.667 36.5 189 36.5c64 0 119.667 -10.5 167 -31.5s87.333 -51.5 120 -91.5s58.5 -88.833 77.5 -146.5s32.167 -123.5 39.5 -197.5c4 -40.667 7 -79.334 9 -116.001s3.66699 -73 5 -109
zM584.002 690.002c-3.33301 56.667 -6.66699 103.668 -10 141.001s-8.33301 66.666 -15 87.999s-16.167 36.333 -28.5 45s-28.833 13 -49.5 13c-21.333 0 -39 -6.16699 -53 -18.5s-25.333 -30.5 -34 -54.5s-15 -53.833 -19 -89.5s-6.66699 -77.167 -8 -124.5h217z
M491.001 1270l-366 280v23h352l148 -303h-134z" />
    <glyph glyph-name="eacute" unicode="&#xe9;" horiz-adv-x="946" 
d="M367 524c-0.666992 -65.333 1.66797 -117.498 7.00098 -156.498s13.833 -68.833 25.5 -89.5s26.167 -34.334 43.5 -41.001s37.666 -10 60.999 -10c44 0 74.5 14.5 91.5 43.5s23.167 68.5 18.5 118.5l-4 47l281 -8c4 -22 6 -51.333 6 -88
c0 -50.667 -6.66699 -98.167 -20 -142.5s-35.333 -83 -66 -116s-70.834 -59 -120.501 -78s-110.5 -28.5 -182.5 -28.5c-47.333 0 -91.666 3.33301 -132.999 10s-79.333 18.5 -114 35.5s-65.667 39.833 -93 68.5s-50.333 65 -69 109s-33 96.667 -43 158s-15 133 -15 215
c0 113.333 9.66699 210.5 29 291.5s47.5 147.333 84.5 199s82.833 89.667 137.5 114s117.667 36.5 189 36.5c64 0 119.667 -10.5 167 -31.5s87.333 -51.5 120 -91.5s58.5 -88.833 77.5 -146.5s32.167 -123.5 39.5 -197.5c4 -40.667 7 -79.334 9 -116.001s3.66699 -73 5 -109
zM584.002 690.002c-3.33301 56.667 -6.66699 103.668 -10 141.001s-8.33301 66.666 -15 87.999s-16.167 36.333 -28.5 45s-28.833 13 -49.5 13c-21.333 0 -39 -6.16699 -53 -18.5s-25.333 -30.5 -34 -54.5s-15 -53.833 -19 -89.5s-6.66699 -77.167 -8 -124.5h217z
M494.001 1270h-133l148 303h352v-23z" />
    <glyph glyph-name="ecircumflex" unicode="&#xea;" horiz-adv-x="946" 
d="M367 524c-0.666992 -65.333 1.66797 -117.498 7.00098 -156.498s13.833 -68.833 25.5 -89.5s26.167 -34.334 43.5 -41.001s37.666 -10 60.999 -10c44 0 74.5 14.5 91.5 43.5s23.167 68.5 18.5 118.5l-4 47l281 -8c4 -22 6 -51.333 6 -88
c0 -50.667 -6.66699 -98.167 -20 -142.5s-35.333 -83 -66 -116s-70.834 -59 -120.501 -78s-110.5 -28.5 -182.5 -28.5c-47.333 0 -91.666 3.33301 -132.999 10s-79.333 18.5 -114 35.5s-65.667 39.833 -93 68.5s-50.333 65 -69 109s-33 96.667 -43 158s-15 133 -15 215
c0 113.333 9.66699 210.5 29 291.5s47.5 147.333 84.5 199s82.833 89.667 137.5 114s117.667 36.5 189 36.5c64 0 119.667 -10.5 167 -31.5s87.333 -51.5 120 -91.5s58.5 -88.833 77.5 -146.5s32.167 -123.5 39.5 -197.5c4 -40.667 7 -79.334 9 -116.001s3.66699 -73 5 -109
zM584.002 690.002c-3.33301 56.667 -6.66699 103.668 -10 141.001s-8.33301 66.666 -15 87.999s-16.167 36.333 -28.5 45s-28.833 13 -49.5 13c-21.333 0 -39 -6.16699 -53 -18.5s-25.333 -30.5 -34 -54.5s-15 -53.833 -19 -89.5s-6.66699 -77.167 -8 -124.5h217z
M691.001 1251l-205 158l-205 -158h-106l170 324h303l149 -324h-106z" />
    <glyph glyph-name="edieresis" unicode="&#xeb;" horiz-adv-x="946" 
d="M367 524c-0.666992 -65.333 1.66797 -117.498 7.00098 -156.498s13.833 -68.833 25.5 -89.5s26.167 -34.334 43.5 -41.001s37.666 -10 60.999 -10c44 0 74.5 14.5 91.5 43.5s23.167 68.5 18.5 118.5l-4 47l281 -8c4 -22 6 -51.333 6 -88
c0 -50.667 -6.66699 -98.167 -20 -142.5s-35.333 -83 -66 -116s-70.834 -59 -120.501 -78s-110.5 -28.5 -182.5 -28.5c-47.333 0 -91.666 3.33301 -132.999 10s-79.333 18.5 -114 35.5s-65.667 39.833 -93 68.5s-50.333 65 -69 109s-33 96.667 -43 158s-15 133 -15 215
c0 113.333 9.66699 210.5 29 291.5s47.5 147.333 84.5 199s82.833 89.667 137.5 114s117.667 36.5 189 36.5c64 0 119.667 -10.5 167 -31.5s87.333 -51.5 120 -91.5s58.5 -88.833 77.5 -146.5s32.167 -123.5 39.5 -197.5c4 -40.667 7 -79.334 9 -116.001s3.66699 -73 5 -109
zM584.002 690.002c-3.33301 56.667 -6.66699 103.668 -10 141.001s-8.33301 66.666 -15 87.999s-16.167 36.333 -28.5 45s-28.833 13 -49.5 13c-21.333 0 -39 -6.16699 -53 -18.5s-25.333 -30.5 -34 -54.5s-15 -53.833 -19 -89.5s-6.66699 -77.167 -8 -124.5h217z
M540.001 1282v266h261v-266h-261zM178.001 1282v266h260v-266h-260z" />
    <glyph glyph-name="igrave" unicode="&#xec;" horiz-adv-x="479" 
d="M78 0v1176h323v-1176h-323zM291 1270l-366 280v23h352l148 -303h-134z" />
    <glyph glyph-name="iacute" unicode="&#xed;" horiz-adv-x="479" 
d="M78 0v1176h323v-1176h-323zM205 1270h-133l148 303h352v-23z" />
    <glyph glyph-name="icircumflex" unicode="&#xee;" horiz-adv-x="479" 
d="M78 0v1176h323v-1176h-323zM447 1251l-205 158l-205 -158h-106l170 324h303l149 -324h-106z" />
    <glyph glyph-name="idieresis" unicode="&#xef;" horiz-adv-x="479" 
d="M78 0v1176h323v-1176h-323zM292 1282v266h261v-266h-261zM-70 1282v266h260v-266h-260z" />
    <glyph glyph-name="eth" unicode="&#xf0;" horiz-adv-x="958" 
d="M930 1446c0 -24.667 -8.83203 -48.833 -26.499 -72.5s-48.5 -43.834 -92.5 -60.501c30 -79.333 53.5 -174.5 70.5 -285.5s25.5 -241.167 25.5 -390.5c0 -113.333 -6 -211.166 -18 -293.499s-33.667 -150.333 -65 -204s-74.333 -93.334 -129 -119.001
s-124.667 -38.5 -210 -38.5c-82 0 -151.167 11.167 -207.5 33.5s-102 57.333 -137 105s-60.333 108.5 -76 182.5s-23.5 162.667 -23.5 266c0 194.667 35.167 340 105.5 436s173.166 144 308.499 144c14 0 26.667 -1.83301 38 -5.5s21.666 -8.16699 30.999 -13.5
s17.666 -11.333 24.999 -18s14 -13.334 20 -20.001c-3.33301 40 -7.83301 77.667 -13.5 113s-12.5 68 -20.5 98c-27.333 -7.33301 -45.833 -16 -55.5 -26s-14.5 -21.333 -14.5 -34c0 -7.33301 1.66699 -14.333 5 -21s7 -12.667 11 -18l-96 -35
c-14.667 11.333 -28.167 28 -40.5 50s-18.5 48.333 -18.5 79c0 14 2.16699 27.667 6.5 41s12 26 23 38s25.667 23.333 44 34s41.5 20.334 69.5 29.001c-21.333 27.333 -44.666 41 -69.999 41c-24.667 0 -47.5 -4.66699 -68.5 -14s-39.167 -21.666 -54.5 -36.999l-90 137
c12.667 10 28.834 19.333 48.501 28s40.834 16.167 63.501 22.5s45.5 11.333 68.5 15s44.167 5.5 63.5 5.5c60.667 0 117.5 -14.833 170.5 -44.5s100.5 -77.5 142.5 -143.5c17.333 6 29.166 13.5 35.499 22.5s9.5 18.5 9.5 28.5c0 8.66699 -1.33301 16.167 -4 22.5
s-6 12.5 -10 18.5l94 33c16.667 -11.333 31.167 -29 43.5 -53s18.5 -49.333 18.5 -76zM573.001 578.001c0 72 -1.33301 130.666 -4 175.999s-7.5 81 -14.5 107s-17.167 43.667 -30.5 53s-30.333 14 -51 14c-21.333 0 -38.5 -4.16699 -51.5 -12.5s-23 -25 -30 -50
s-11.5 -60.5 -13.5 -106.5s-3 -106.333 -3 -181c0 -75.333 1.83301 -135 5.5 -179s9.5 -77.333 17.5 -100s18.167 -37.167 30.5 -43.5s27.166 -9.5 44.499 -9.5c18.667 0 34.334 3.33301 47.001 10s23 21.334 31 44.001s13.667 56 17 100s5 103.333 5 178z" />
    <glyph glyph-name="ntilde" unicode="&#xf1;" horiz-adv-x="997" 
d="M602 0l-0.000976562 831.002c0 27.333 -5.66699 48.666 -17 63.999s-31 23 -59 23c-18.667 0 -35.667 -5.83301 -51 -17.5s-28.5 -28.334 -39.5 -50.001s-19.5 -47.667 -25.5 -78s-9 -64.5 -9 -102.5v-670h-323v1176h321v-191
c18.667 66.667 50.834 118.834 96.501 156.501s103.167 56.5 172.5 56.5c33.333 0 65.5 -5.5 96.5 -16.5s58.5 -27.833 82.5 -50.5s43.167 -51.334 57.5 -86.001s21.5 -75.667 21.5 -123v-922h-324zM818.999 1448c0 -23.333 -2.50195 -45.833 -7.50195 -67.5
s-14 -40.834 -27 -57.501s-30.667 -30 -53 -40s-51.166 -15 -86.499 -15c-22.667 0 -42.334 1.16699 -59.001 3.5s-32.167 6 -46.5 11s-28 11.5 -41 19.5s-26.833 17.667 -41.5 29c-13.333 11.333 -26.5 21.333 -39.5 30s-29.167 13 -48.5 13c-17.333 0 -30.833 -3 -40.5 -9
s-16.667 -13.5 -21 -22.5s-6.5 -19.167 -6.5 -30.5s1.33301 -22 4 -32h-100c-6 13.333 -11.333 27.833 -16 43.5s-7 35.167 -7 58.5c0 24 2.5 46.833 7.5 68.5s14 40.834 27 57.501s30.667 30 53 40s51.166 15 86.499 15c20 0 37.667 -1 53 -3s29.833 -5.5 43.5 -10.5
s27.334 -11.833 41.001 -20.5s28.834 -19.334 45.501 -32.001c14 -12 28.333 -21.833 43 -29.5s31.667 -11.5 51 -11.5c16.667 0 29.834 3 39.501 9s16.667 13.5 21 22.5s6.5 19.167 6.5 30.5s-1.33301 22 -4 32h101c6 -12 11.167 -26.167 15.5 -42.5
s6.5 -36.166 6.5 -59.499z" />
    <glyph glyph-name="ograve" unicode="&#xf2;" horiz-adv-x="948" 
d="M907 596c0 -100 -6.00098 -188.165 -18.001 -264.498s-33.667 -140.333 -65 -192s-74.333 -90.834 -129 -117.501s-124.667 -40 -210 -40c-82 0 -151.167 11.167 -207.5 33.5s-102 57.333 -137 105s-60.333 108.5 -76 182.5s-23.5 162.667 -23.5 266
c0 220.667 35.667 383 107 487s178.333 156 321 156c84.667 0 155.167 -13.167 211.5 -39.5s101.333 -65.333 135 -117s57.334 -115.834 71.001 -192.501s20.5 -165.667 20.5 -267zM572.999 578.002c0 79.333 -1.33301 144.333 -4 195s-7.5 90.5 -14.5 119.5
s-17.167 49 -30.5 60s-30.333 16.5 -51 16.5c-21.333 0 -38.5 -5.66699 -51.5 -17s-23 -31.5 -30 -60.5s-11.5 -68.833 -13.5 -119.5s-3 -115.334 -3 -194.001c0 -75.333 1.83301 -135 5.5 -179s9.5 -77.333 17.5 -100s18.167 -37.167 30.5 -43.5s27.166 -9.5 44.499 -9.5
c18.667 0 34.334 3.33301 47.001 10s23 21.334 31 44.001s13.667 56 17 100s5 103.333 5 178zM451.999 1270l-366 280v23h352l148 -303h-134z" />
    <glyph glyph-name="oacute" unicode="&#xf3;" horiz-adv-x="948" 
d="M907 596c0 -100 -6.00098 -188.165 -18.001 -264.498s-33.667 -140.333 -65 -192s-74.333 -90.834 -129 -117.501s-124.667 -40 -210 -40c-82 0 -151.167 11.167 -207.5 33.5s-102 57.333 -137 105s-60.333 108.5 -76 182.5s-23.5 162.667 -23.5 266
c0 220.667 35.667 383 107 487s178.333 156 321 156c84.667 0 155.167 -13.167 211.5 -39.5s101.333 -65.333 135 -117s57.334 -115.834 71.001 -192.501s20.5 -165.667 20.5 -267zM572.999 578.002c0 79.333 -1.33301 144.333 -4 195s-7.5 90.5 -14.5 119.5
s-17.167 49 -30.5 60s-30.333 16.5 -51 16.5c-21.333 0 -38.5 -5.66699 -51.5 -17s-23 -31.5 -30 -60.5s-11.5 -68.833 -13.5 -119.5s-3 -115.334 -3 -194.001c0 -75.333 1.83301 -135 5.5 -179s9.5 -77.333 17.5 -100s18.167 -37.167 30.5 -43.5s27.166 -9.5 44.499 -9.5
c18.667 0 34.334 3.33301 47.001 10s23 21.334 31 44.001s13.667 56 17 100s5 103.333 5 178zM512.999 1270h-133l148 303h352v-23z" />
    <glyph glyph-name="ocircumflex" unicode="&#xf4;" horiz-adv-x="948" 
d="M907 596c0 -100 -6.00098 -188.165 -18.001 -264.498s-33.667 -140.333 -65 -192s-74.333 -90.834 -129 -117.501s-124.667 -40 -210 -40c-82 0 -151.167 11.167 -207.5 33.5s-102 57.333 -137 105s-60.333 108.5 -76 182.5s-23.5 162.667 -23.5 266
c0 220.667 35.667 383 107 487s178.333 156 321 156c84.667 0 155.167 -13.167 211.5 -39.5s101.333 -65.333 135 -117s57.334 -115.834 71.001 -192.501s20.5 -165.667 20.5 -267zM572.999 578.002c0 79.333 -1.33301 144.333 -4 195s-7.5 90.5 -14.5 119.5
s-17.167 49 -30.5 60s-30.333 16.5 -51 16.5c-21.333 0 -38.5 -5.66699 -51.5 -17s-23 -31.5 -30 -60.5s-11.5 -68.833 -13.5 -119.5s-3 -115.334 -3 -194.001c0 -75.333 1.83301 -135 5.5 -179s9.5 -77.333 17.5 -100s18.167 -37.167 30.5 -43.5s27.166 -9.5 44.499 -9.5
c18.667 0 34.334 3.33301 47.001 10s23 21.334 31 44.001s13.667 56 17 100s5 103.333 5 178zM680.999 1251l-205 158l-205 -158h-106l170 324h303l149 -324h-106z" />
    <glyph glyph-name="otilde" unicode="&#xf5;" horiz-adv-x="948" 
d="M907 596c0 -100 -6.00098 -188.165 -18.001 -264.498s-33.667 -140.333 -65 -192s-74.333 -90.834 -129 -117.501s-124.667 -40 -210 -40c-82 0 -151.167 11.167 -207.5 33.5s-102 57.333 -137 105s-60.333 108.5 -76 182.5s-23.5 162.667 -23.5 266
c0 220.667 35.667 383 107 487s178.333 156 321 156c84.667 0 155.167 -13.167 211.5 -39.5s101.333 -65.333 135 -117s57.334 -115.834 71.001 -192.501s20.5 -165.667 20.5 -267zM572.999 578.002c0 79.333 -1.33301 144.333 -4 195s-7.5 90.5 -14.5 119.5
s-17.167 49 -30.5 60s-30.333 16.5 -51 16.5c-21.333 0 -38.5 -5.66699 -51.5 -17s-23 -31.5 -30 -60.5s-11.5 -68.833 -13.5 -119.5s-3 -115.334 -3 -194.001c0 -75.333 1.83301 -135 5.5 -179s9.5 -77.333 17.5 -100s18.167 -37.167 30.5 -43.5s27.166 -9.5 44.499 -9.5
c18.667 0 34.334 3.33301 47.001 10s23 21.334 31 44.001s13.667 56 17 100s5 103.333 5 178zM794.999 1448c0 -23.333 -2.50195 -45.833 -7.50195 -67.5s-14 -40.834 -27 -57.501s-30.667 -30 -53 -40s-51.166 -15 -86.499 -15c-22.667 0 -42.334 1.16699 -59.001 3.5
s-32.167 6 -46.5 11s-28 11.5 -41 19.5s-26.833 17.667 -41.5 29c-13.333 11.333 -26.5 21.333 -39.5 30s-29.167 13 -48.5 13c-17.333 0 -30.833 -3 -40.5 -9s-16.667 -13.5 -21 -22.5s-6.5 -19.167 -6.5 -30.5s1.33301 -22 4 -32h-100c-6 13.333 -11.333 27.833 -16 43.5
s-7 35.167 -7 58.5c0 24 2.5 46.833 7.5 68.5s14 40.834 27 57.501s30.667 30 53 40s51.166 15 86.499 15c20 0 37.667 -1 53 -3s29.833 -5.5 43.5 -10.5s27.334 -11.833 41.001 -20.5s28.834 -19.334 45.501 -32.001c14 -12 28.333 -21.833 43 -29.5s31.667 -11.5 51 -11.5
c16.667 0 29.834 3 39.501 9s16.667 13.5 21 22.5s6.5 19.167 6.5 30.5s-1.33301 22 -4 32h101c6 -12 11.167 -26.167 15.5 -42.5s6.5 -36.166 6.5 -59.499z" />
    <glyph glyph-name="odieresis" unicode="&#xf6;" horiz-adv-x="948" 
d="M907 596c0 -100 -6.00098 -188.165 -18.001 -264.498s-33.667 -140.333 -65 -192s-74.333 -90.834 -129 -117.501s-124.667 -40 -210 -40c-82 0 -151.167 11.167 -207.5 33.5s-102 57.333 -137 105s-60.333 108.5 -76 182.5s-23.5 162.667 -23.5 266
c0 220.667 35.667 383 107 487s178.333 156 321 156c84.667 0 155.167 -13.167 211.5 -39.5s101.333 -65.333 135 -117s57.334 -115.834 71.001 -192.501s20.5 -165.667 20.5 -267zM572.999 578.002c0 79.333 -1.33301 144.333 -4 195s-7.5 90.5 -14.5 119.5
s-17.167 49 -30.5 60s-30.333 16.5 -51 16.5c-21.333 0 -38.5 -5.66699 -51.5 -17s-23 -31.5 -30 -60.5s-11.5 -68.833 -13.5 -119.5s-3 -115.334 -3 -194.001c0 -75.333 1.83301 -135 5.5 -179s9.5 -77.333 17.5 -100s18.167 -37.167 30.5 -43.5s27.166 -9.5 44.499 -9.5
c18.667 0 34.334 3.33301 47.001 10s23 21.334 31 44.001s13.667 56 17 100s5 103.333 5 178zM526.999 1282v266h261v-266h-261zM164.999 1282v266h260v-266h-260z" />
    <glyph glyph-name="divide" unicode="&#xf7;" horiz-adv-x="877" 
d="M74 807h729v-242h-729v242zM324 862v228h227v-228h-227zM324 281v227h227v-227h-227z" />
    <glyph glyph-name="oslash" unicode="&#xf8;" horiz-adv-x="948" 
d="M817 1053c33.333 -52 56.666 -115.831 69.999 -191.498s20 -164.167 20 -265.5c0 -100 -6 -188.167 -18 -264.5s-33.667 -140.333 -65 -192s-74.333 -90.834 -129 -117.501s-124.667 -40 -210 -40c-66 0 -123.5 7.16699 -172.5 21.5s-91.167 36.5 -126.5 66.5l-55 -84
h-102l98 151c-30 48 -51.833 107.667 -65.5 179s-20.5 155.666 -20.5 252.999c0 220.667 35.667 383 107 487s178.333 156 321 156c64.667 0 120.834 -7.5 168.501 -22.5s88.5 -37.5 122.5 -67.5l57 90h103zM565 821.002c-2 28.667 -5.16602 52.501 -9.49902 71.501
s-10.333 34.167 -18 45.5s-16.834 19.333 -27.501 24s-23 7 -37 7c-21.333 0 -38.5 -5.66699 -51.5 -17s-23 -31.5 -30 -60.5s-11.5 -68.833 -13.5 -119.5s-3 -115.334 -3 -194.001v-54zM573.001 672.003l-192.003 -295.001c2.66699 -28.667 6.83398 -51.667 12.501 -69
s12.334 -30.5 20.001 -39.5s16.5 -15 26.5 -18s21 -4.5 33 -4.5c18.667 0 34.334 3.33301 47.001 10s23 21.334 31 44.001s13.667 56 17 100s5 103.333 5 178v94z" />
    <glyph glyph-name="ugrave" unicode="&#xf9;" horiz-adv-x="997" 
d="M598 0l0.00195312 190c-18.667 -66.667 -50.834 -118.834 -96.501 -156.501s-102.834 -56.5 -171.501 -56.5c-33.333 0 -65.5 5.5 -96.5 16.5s-58.5 27.833 -82.5 50.5s-43.167 51.334 -57.5 86.001s-21.5 76 -21.5 124v922h323v-832c0 -26.667 5.66699 -47.667 17 -63
s31 -23 59 -23c38 0 68.333 20.5 91 61.5s34 103.167 34 186.5v670h324v-1176h-322zM528.002 1270l-366 280v23h352l148 -303h-134z" />
    <glyph glyph-name="uacute" unicode="&#xfa;" horiz-adv-x="997" 
d="M598 0l0.00195312 190c-18.667 -66.667 -50.834 -118.834 -96.501 -156.501s-102.834 -56.5 -171.501 -56.5c-33.333 0 -65.5 5.5 -96.5 16.5s-58.5 27.833 -82.5 50.5s-43.167 51.334 -57.5 86.001s-21.5 76 -21.5 124v922h323v-832c0 -26.667 5.66699 -47.667 17 -63
s31 -23 59 -23c38 0 68.333 20.5 91 61.5s34 103.167 34 186.5v670h324v-1176h-322zM478.002 1270h-133l148 303h352v-23z" />
    <glyph glyph-name="ucircumflex" unicode="&#xfb;" horiz-adv-x="997" 
d="M598 0l0.00195312 190c-18.667 -66.667 -50.834 -118.834 -96.501 -156.501s-102.834 -56.5 -171.501 -56.5c-33.333 0 -65.5 5.5 -96.5 16.5s-58.5 27.833 -82.5 50.5s-43.167 51.334 -57.5 86.001s-21.5 76 -21.5 124v922h323v-832c0 -26.667 5.66699 -47.667 17 -63
s31 -23 59 -23c38 0 68.333 20.5 91 61.5s34 103.167 34 186.5v670h324v-1176h-322zM706.002 1251l-205 158l-205 -158h-106l170 324h303l149 -324h-106z" />
    <glyph glyph-name="udieresis" unicode="&#xfc;" horiz-adv-x="997" 
d="M598 0l0.00195312 190c-18.667 -66.667 -50.834 -118.834 -96.501 -156.501s-102.834 -56.5 -171.501 -56.5c-33.333 0 -65.5 5.5 -96.5 16.5s-58.5 27.833 -82.5 50.5s-43.167 51.334 -57.5 86.001s-21.5 76 -21.5 124v922h323v-832c0 -26.667 5.66699 -47.667 17 -63
s31 -23 59 -23c38 0 68.333 20.5 91 61.5s34 103.167 34 186.5v670h324v-1176h-322zM549.002 1282v266h261v-266h-261zM187.002 1282v266h260v-266h-260z" />
    <glyph glyph-name="yacute" unicode="&#xfd;" horiz-adv-x="967" 
d="M657 -10c-11.333 -48.667 -23.9971 -94.8311 -37.9971 -138.498s-34 -81.834 -60 -114.501s-60.167 -58.5 -102.5 -77.5s-96.833 -28.5 -163.5 -28.5c-56.667 0 -103.334 6 -140.001 18s-65.834 29 -87.501 51s-36.667 48.333 -45 79s-12.5 64.667 -12.5 102
c0 14.667 0.833008 28.167 2.5 40.5l5.5 41.5h203c-2 -12 -3.83301 -25 -5.5 -39s-2.5 -27.667 -2.5 -41c0 -20.667 6 -37 18 -49s32.667 -18 62 -18c35.333 0 59.833 14 73.5 42s20.5 65 20.5 111c0 16.667 -2.83301 35.667 -8.5 57s-11.834 42.666 -18.501 63.999
l-358 1086h360l164 -691l133 691h310zM503.003 1270h-133l148 303h352v-23z" />
    <glyph glyph-name="thorn" unicode="&#xfe;" horiz-adv-x="999" 
d="M958 555c0 -100 -5.66602 -186.171 -16.999 -258.504s-30 -132 -56 -179s-60 -81.667 -102 -104s-93.333 -33.5 -154 -33.5c-22 0 -42.833 3.16699 -62.5 9.5s-37.834 14.666 -54.501 24.999s-31.167 22 -43.5 35s-22.5 25.833 -30.5 38.5l-49 82v-465h-311v1868h311
v-545l39 59c9.33301 14.667 20.166 28.834 32.499 42.501s26.333 25.834 42 36.501s32.834 19.334 51.501 26.001s38.667 10 60 10c31.333 0 61.5 -3.66699 90.5 -11s56.333 -20.166 82 -38.499s49 -43.166 70 -74.499s39 -71 54 -119s26.667 -105.167 35 -171.5
s12.5 -143.833 12.5 -232.5zM631.001 587.996c0 68.667 -3 125.835 -9 171.502s-14.167 82.167 -24.5 109.5s-22.166 46.666 -35.499 57.999s-27.333 17 -42 17c-18 0 -34.167 -4.5 -48.5 -13.5s-26.833 -26.333 -37.5 -52s-18.834 -61.667 -24.501 -108
s-8.5 -106.5 -8.5 -180.5c0 -70 2.33301 -126.833 7 -170.5s11.834 -78 21.501 -103s22.167 -42 37.5 -51s33.666 -13.5 54.999 -13.5c32.667 0 59 27.667 79 83s30 139.666 30 252.999z" />
    <glyph glyph-name="ydieresis" unicode="&#xff;" horiz-adv-x="967" 
d="M657 -10c-11.333 -48.667 -23.9971 -94.8311 -37.9971 -138.498s-34 -81.834 -60 -114.501s-60.167 -58.5 -102.5 -77.5s-96.833 -28.5 -163.5 -28.5c-56.667 0 -103.334 6 -140.001 18s-65.834 29 -87.501 51s-36.667 48.333 -45 79s-12.5 64.667 -12.5 102
c0 14.667 0.833008 28.167 2.5 40.5l5.5 41.5h203c-2 -12 -3.83301 -25 -5.5 -39s-2.5 -27.667 -2.5 -41c0 -20.667 6 -37 18 -49s32.667 -18 62 -18c35.333 0 59.833 14 73.5 42s20.5 65 20.5 111c0 16.667 -2.83301 35.667 -8.5 57s-11.834 42.666 -18.501 63.999
l-358 1086h360l164 -691l133 691h310zM564.003 1282v266h261v-266h-261zM202.003 1282v266h260v-266h-260z" />
    <glyph glyph-name="Amacron" unicode="&#x100;" horiz-adv-x="1020" 
d="M627 0l-45 272h-232l-41 -272h-295l301 1573h349l333 -1573h-370zM451 987l-70 -495h164zM206 1706v197h607v-197h-607z" />
    <glyph glyph-name="amacron" unicode="&#x101;" horiz-adv-x="1051" 
d="M1030 37c-8 -6 -19.8359 -12.5039 -35.5029 -19.5039s-33.5 -13.667 -53.5 -20s-41.167 -11.666 -63.5 -15.999s-43.833 -6.5 -64.5 -6.5c-41.333 0 -74.166 3.83301 -98.499 11.5s-43.666 18.167 -57.999 31.5s-24.833 29.333 -31.5 48s-13 39 -19 61l-18 -37
c-6.66699 -13.333 -16.667 -26.833 -30 -40.5s-30 -26 -50 -37s-43.167 -20 -69.5 -27s-55.833 -10.5 -88.5 -10.5c-56.667 0 -104.667 10.167 -144 30.5s-71.166 47.333 -95.499 81s-42 71.667 -53 114s-16.5 85.5 -16.5 129.5c0 98.667 23.333 177.167 70 235.5
s121 97.833 223 118.5l123 27c31.333 6.66699 56.666 13.834 75.999 21.501s34.5 17.334 45.5 29.001s18.333 25.834 22 42.501s5.5 37.334 5.5 62.001c0 55.333 -11 94.5 -33 117.5s-54 34.5 -96 34.5c-19.333 0 -37.5 -3 -54.5 -9s-31.833 -14.167 -44.5 -24.5
s-22.5 -23 -29.5 -38s-10.5 -31.5 -10.5 -49.5c0 -20.667 1.33301 -38.5 4 -53.5s6.66699 -30.5 12 -46.5l-270 -6l-7 31c-2 9.33301 -3.66699 18.666 -5 27.999s-2.33301 19.333 -3 30s-1 23.334 -1 38.001c0 52.667 10.833 97.5 32.5 134.5s51.334 67.333 89.001 91
s81.5 41 131.5 52s103.333 16.5 160 16.5c82 0 151.333 -6.5 208 -19.5s102.5 -31 137.5 -54s60.333 -50.833 76 -83.5s23.5 -68.334 23.5 -107.001v-684c0 -21.333 7.5 -37.833 22.5 -49.5s32.5 -17.5 52.5 -17.5c9.33301 0 19 2 29 6v-166zM605.997 583.996
c-14 -8.66699 -29.999 -16.333 -47.999 -23s-34.667 -12 -50 -16c-29.333 -8 -53.333 -17 -72 -27s-33.167 -21.833 -43.5 -35.5s-17.5 -29.834 -21.5 -48.501s-6 -41 -6 -67c0 -51.333 7.16699 -91.166 21.5 -119.499s41.166 -42.5 80.499 -42.5
c18.667 0 36.5 2.66699 53.5 8s31.833 17 44.5 35s22.667 44.167 30 78.5s11 80.5 11 138.5v119zM201.998 1296v197h607v-197h-607z" />
    <glyph glyph-name="Abreve" unicode="&#x102;" horiz-adv-x="1020" 
d="M627 0l-45 272h-232l-41 -272h-295l301 1573h349l333 -1573h-370zM451 987l-70 -495h164zM832 1930c0 -52.667 -6.49805 -96.167 -19.498 -130.5s-33 -61.5 -60 -81.5s-61.5 -33.833 -103.5 -41.5s-91.667 -11.5 -149 -11.5s-106.833 3.66699 -148.5 11
s-76.167 20.833 -103.5 40.5s-47.5 46.667 -60.5 81s-19.5 78.5 -19.5 132.5h209c-0.666992 -15.333 0.833008 -29.666 4.5 -42.999s10.167 -25 19.5 -35s22 -18 38 -24s36.333 -9 61 -9c23.333 0 43.166 3 59.499 9s29.333 14 39 24s16.667 21.667 21 35
s6.16602 27.666 5.49902 42.999h207z" />
    <glyph glyph-name="abreve" unicode="&#x103;" horiz-adv-x="1051" 
d="M1030 37c-8 -6 -19.8359 -12.5039 -35.5029 -19.5039s-33.5 -13.667 -53.5 -20s-41.167 -11.666 -63.5 -15.999s-43.833 -6.5 -64.5 -6.5c-41.333 0 -74.166 3.83301 -98.499 11.5s-43.666 18.167 -57.999 31.5s-24.833 29.333 -31.5 48s-13 39 -19 61l-18 -37
c-6.66699 -13.333 -16.667 -26.833 -30 -40.5s-30 -26 -50 -37s-43.167 -20 -69.5 -27s-55.833 -10.5 -88.5 -10.5c-56.667 0 -104.667 10.167 -144 30.5s-71.166 47.333 -95.499 81s-42 71.667 -53 114s-16.5 85.5 -16.5 129.5c0 98.667 23.333 177.167 70 235.5
s121 97.833 223 118.5l123 27c31.333 6.66699 56.666 13.834 75.999 21.501s34.5 17.334 45.5 29.001s18.333 25.834 22 42.501s5.5 37.334 5.5 62.001c0 55.333 -11 94.5 -33 117.5s-54 34.5 -96 34.5c-19.333 0 -37.5 -3 -54.5 -9s-31.833 -14.167 -44.5 -24.5
s-22.5 -23 -29.5 -38s-10.5 -31.5 -10.5 -49.5c0 -20.667 1.33301 -38.5 4 -53.5s6.66699 -30.5 12 -46.5l-270 -6l-7 31c-2 9.33301 -3.66699 18.666 -5 27.999s-2.33301 19.333 -3 30s-1 23.334 -1 38.001c0 52.667 10.833 97.5 32.5 134.5s51.334 67.333 89.001 91
s81.5 41 131.5 52s103.333 16.5 160 16.5c82 0 151.333 -6.5 208 -19.5s102.5 -31 137.5 -54s60.333 -50.833 76 -83.5s23.5 -68.334 23.5 -107.001v-684c0 -21.333 7.5 -37.833 22.5 -49.5s32.5 -17.5 52.5 -17.5c9.33301 0 19 2 29 6v-166zM605.997 583.996
c-14 -8.66699 -29.999 -16.333 -47.999 -23s-34.667 -12 -50 -16c-29.333 -8 -53.333 -17 -72 -27s-33.167 -21.833 -43.5 -35.5s-17.5 -29.834 -21.5 -48.501s-6 -41 -6 -67c0 -51.333 7.16699 -91.166 21.5 -119.499s41.166 -42.5 80.499 -42.5
c18.667 0 36.5 2.66699 53.5 8s31.833 17 44.5 35s22.667 44.167 30 78.5s11 80.5 11 138.5v119zM816.998 1520c0 -52.667 -6.49805 -96.167 -19.498 -130.5s-33 -61.5 -60 -81.5s-61.5 -33.833 -103.5 -41.5s-91.667 -11.5 -149 -11.5s-106.833 3.66699 -148.5 11
s-76.167 20.833 -103.5 40.5s-47.5 46.667 -60.5 81s-19.5 78.5 -19.5 132.5h209c-0.666992 -15.333 0.833008 -29.666 4.5 -42.999s10.167 -25 19.5 -35s22 -18 38 -24s36.333 -9 61 -9c23.333 0 43.166 3 59.499 9s29.333 14 39 24s16.667 21.667 21 35
s6.16602 27.666 5.49902 42.999h207z" />
    <glyph glyph-name="Aogonek" unicode="&#x104;" horiz-adv-x="1020" 
d="M451 987l-70 -495h164zM852 -14c-10.667 -6.66699 -25.6611 -18.332 -44.9941 -34.999s-38.333 -36.167 -57 -58.5s-35 -46.5 -49 -72.5s-21 -51.333 -21 -76c0 -21.333 3.16699 -38.666 9.5 -51.999s16.833 -20 31.5 -20c21.333 0 36.166 6.5 44.499 19.5
s12.5 27.833 12.5 44.5c0 13.333 -1.5 27.666 -4.5 42.999s-6.16699 28.333 -9.5 39h149c3.33301 -17.333 5.66602 -33.333 6.99902 -48s2 -28.667 2 -42c0 -22.667 -5.16699 -42.834 -15.5 -60.501s-24.833 -32.667 -43.5 -45s-40.5 -21.833 -65.5 -28.5
s-52.5 -10 -82.5 -10c-62.667 0 -109.834 14.333 -141.501 43s-47.5 67.667 -47.5 117c0 25.333 6.16699 49.666 18.5 72.999s28.166 45.5 47.499 66.5s41.166 40.333 65.499 58s48.166 33.834 71.499 48.501l16 10h-118l-45 272h-232l-41 -272h-295l301 1573h349l333 -1573
h-123z" />
    <glyph glyph-name="aogonek" unicode="&#x105;" horiz-adv-x="1051" 
d="M936 -14c-17.333 -12 -36 -26.6699 -56 -44.0029s-38.5 -36.5 -55.5 -57.5s-31.333 -43.5 -43 -67.5s-17.5 -48.333 -17.5 -73c0 -21.333 3.16699 -38.666 9.5 -51.999s16.833 -20 31.5 -20c21.333 0 36.166 6.5 44.499 19.5s12.5 27.833 12.5 44.5
c0 13.333 -1.5 27.666 -4.5 42.999s-6.16699 28.333 -9.5 39h149c3.33301 -17.333 5.66602 -33.333 6.99902 -48s2 -28.667 2 -42c0 -22.667 -5.16699 -42.834 -15.5 -60.501s-24.833 -32.667 -43.5 -45s-40.5 -21.833 -65.5 -28.5s-52.5 -10 -82.5 -10
c-62.667 0 -109.834 14.333 -141.501 43s-47.5 67.667 -47.5 117c0 23.333 5.33301 45.833 16 67.5s24.5 42.334 41.5 62.001s36.333 38 58 55s43.5 32.5 65.5 46.5c-36 2 -64.833 7 -86.5 15s-39 18.667 -52 32s-22.667 28.833 -29 46.5s-12.166 37.167 -17.499 58.5
l-18 -37c-6.66699 -13.333 -16.667 -26.833 -30 -40.5s-30 -26 -50 -37s-43.167 -20 -69.5 -27s-55.833 -10.5 -88.5 -10.5c-56.667 0 -104.667 10.167 -144 30.5s-71.166 47.333 -95.499 81s-42 71.667 -53 114s-16.5 85.5 -16.5 129.5c0 98.667 23.333 177.167 70 235.5
s121 97.833 223 118.5l123 27c31.333 6.66699 56.666 13.834 75.999 21.501s34.5 17.334 45.5 29.001s18.333 25.834 22 42.501s5.5 37.334 5.5 62.001c0 55.333 -11 94.5 -33 117.5s-54 34.5 -96 34.5c-19.333 0 -37.5 -3 -54.5 -9s-31.833 -14.167 -44.5 -24.5
s-22.5 -23 -29.5 -38s-10.5 -31.5 -10.5 -49.5c0 -20.667 1.33301 -38.5 4 -53.5s6.66699 -30.5 12 -46.5l-270 -6l-7 31c-2 9.33301 -3.66699 18.666 -5 27.999s-2.33301 19.333 -3 30s-1 23.334 -1 38.001c0 52.667 10.833 97.5 32.5 134.5s51.334 67.333 89.001 91
s81.5 41 131.5 52s103.333 16.5 160 16.5c82 0 151.333 -6.5 208 -19.5s102.5 -31 137.5 -54s60.333 -50.833 76 -83.5s23.5 -68.334 23.5 -107.001v-684c0 -21.333 7.5 -37.833 22.5 -49.5s32.5 -17.5 52.5 -17.5c9.33301 0 19 2 29 6v-166
c-7.33301 -5.33301 -20.666 -12.333 -39.999 -21s-37.333 -18.667 -54 -30zM606 583.997c-14 -8.66699 -29.999 -16.333 -47.999 -23s-34.667 -12 -50 -16c-29.333 -8 -53.333 -17 -72 -27s-33.167 -21.833 -43.5 -35.5s-17.5 -29.834 -21.5 -48.501s-6 -41 -6 -67
c0 -51.333 7.16699 -91.166 21.5 -119.499s41.166 -42.5 80.499 -42.5c18.667 0 36.5 2.66699 53.5 8s31.833 17 44.5 35s22.667 44.167 30 78.5s11 80.5 11 138.5v119z" />
    <glyph glyph-name="Cacute" unicode="&#x106;" horiz-adv-x="1022" 
d="M973 442c0 -76 -8.33789 -143.668 -25.0049 -203.001s-43.334 -109.333 -80.001 -150s-84.167 -71.5 -142.5 -92.5s-128.833 -31.5 -211.5 -31.5c-80 0 -149.333 11.167 -208 33.5s-107.334 61.333 -146.001 117s-67.5 130.834 -86.5 225.501
s-28.5 214.334 -28.5 359.001c0 161.333 7.33301 298.833 22 412.5s40.5 206.334 77.5 278.001s87 124 150 157s143.167 49.5 240.5 49.5c72.667 0 135.334 -9.33301 188.001 -28s96.334 -45.667 131.001 -81s60.334 -78.166 77.001 -128.499s25 -106.833 25 -169.5
c0 -14 -1 -31.833 -3 -53.5s-4.5 -44.167 -7.5 -67.5s-6.33301 -46.333 -10 -69s-6.83398 -41.334 -9.50098 -56.001l-301 -2l2.5 34l3 42c1 14.667 1.66699 29.5 2 44.5s0.5 28.833 0.5 41.5c0 42 -1.33301 77 -4 105s-7.66699 50.167 -15 66.5s-17.166 28 -29.499 35
s-28.166 10.5 -47.499 10.5c-26 0 -47.167 -8.66699 -63.5 -26s-29 -47 -38 -89s-15.167 -98.167 -18.5 -168.5s-5 -158.166 -5 -263.499c0 -81.333 0.5 -150.833 1.5 -208.5s3.16699 -105.834 6.5 -144.501s7.83301 -69.334 13.5 -92.001s13 -39.834 22 -51.501
s20 -19.167 33 -22.5s28.5 -5 46.5 -5c46.667 0 79 20.667 97 62s27 104 27 188c0 16.667 0.166992 32.5 0.5 47.5s0.5 30.333 0.5 46s-0.166992 32 -0.5 49s-1.16602 36.167 -2.49902 57.5l295 -4c4 -22.667 7.33301 -44 10 -64s4.83398 -40 6.50098 -60
s2.83398 -40.5 3.50098 -61.5s1 -43.833 1 -68.5zM535.995 1680h-133l148 303h352v-23z" />
    <glyph glyph-name="cacute" unicode="&#x107;" horiz-adv-x="946" 
d="M907 358c0 -44 -5.99609 -88.6641 -17.9961 -133.997s-33 -86.5 -63 -123.5s-70.333 -67.167 -121 -90.5s-114.334 -35 -191.001 -35c-75.333 0 -142.333 8.66699 -201 26s-108.167 47.5 -148.5 90.5s-71 101.333 -92 175s-31.5 166.5 -31.5 278.5
c0 127.333 11.333 233.666 34 318.999s54.5 153.833 95.5 205.5s89.833 88.334 146.5 110.001s119 32.5 187 32.5c75.333 0 137.5 -10.167 186.5 -30.5s88 -47.833 117 -82.5s49.167 -75.334 60.5 -122.001s17 -96 17 -148c0 -38.667 -2 -71.334 -6 -98.001l-277 -8
c2 9.33301 3.5 19.5 4.5 30.5s1.5 24.167 1.5 39.5c0 54 -8.83301 96.167 -26.5 126.5s-44.834 45.5 -81.501 45.5c-26 0 -47.5 -5.33301 -64.5 -16s-30.167 -29.5 -39.5 -56.5s-15.833 -63.167 -19.5 -108.5s-5.5 -102.666 -5.5 -171.999c0 -80.667 2 -146 6 -196
s11 -88.833 21 -116.5s23.667 -46.334 41 -56.001s39 -14.5 65 -14.5s46.667 7.5 62 22.5s27.166 34 35.499 57s13.666 48.167 15.999 75.5s3.5 53.666 3.5 78.999c0 28.667 -3 51 -9 67l281 -14c4 -19.333 7.33301 -42.5 10 -69.5s4 -56.5 4 -88.5zM514.004 1270h-133
l148 303h352v-23z" />
    <glyph glyph-name="Ccircumflex" unicode="&#x108;" 
 />
    <glyph glyph-name="ccircumflex" unicode="&#x109;" 
 />
    <glyph glyph-name="Cdotaccent" unicode="&#x10a;" 
 />
    <glyph glyph-name="cdotaccent" unicode="&#x10b;" 
 />
    <glyph glyph-name="Ccaron" unicode="&#x10c;" horiz-adv-x="1022" 
d="M973 442c0 -76 -8.33789 -143.668 -25.0049 -203.001s-43.334 -109.333 -80.001 -150s-84.167 -71.5 -142.5 -92.5s-128.833 -31.5 -211.5 -31.5c-80 0 -149.333 11.167 -208 33.5s-107.334 61.333 -146.001 117s-67.5 130.834 -86.5 225.501
s-28.5 214.334 -28.5 359.001c0 161.333 7.33301 298.833 22 412.5s40.5 206.334 77.5 278.001s87 124 150 157s143.167 49.5 240.5 49.5c72.667 0 135.334 -9.33301 188.001 -28s96.334 -45.667 131.001 -81s60.334 -78.166 77.001 -128.499s25 -106.833 25 -169.5
c0 -14 -1 -31.833 -3 -53.5s-4.5 -44.167 -7.5 -67.5s-6.33301 -46.333 -10 -69s-6.83398 -41.334 -9.50098 -56.001l-301 -2l2.5 34l3 42c1 14.667 1.66699 29.5 2 44.5s0.5 28.833 0.5 41.5c0 42 -1.33301 77 -4 105s-7.66699 50.167 -15 66.5s-17.166 28 -29.499 35
s-28.166 10.5 -47.499 10.5c-26 0 -47.167 -8.66699 -63.5 -26s-29 -47 -38 -89s-15.167 -98.167 -18.5 -168.5s-5 -158.166 -5 -263.499c0 -81.333 0.5 -150.833 1.5 -208.5s3.16699 -105.834 6.5 -144.501s7.83301 -69.334 13.5 -92.001s13 -39.834 22 -51.501
s20 -19.167 33 -22.5s28.5 -5 46.5 -5c46.667 0 79 20.667 97 62s27 104 27 188c0 16.667 0.166992 32.5 0.5 47.5s0.5 30.333 0.5 46s-0.166992 32 -0.5 49s-1.16602 36.167 -2.49902 57.5l295 -4c4 -22.667 7.33301 -44 10 -64s4.83398 -40 6.50098 -60
s2.83398 -40.5 3.50098 -61.5s1 -43.833 1 -68.5zM682.995 1661h-303l-170 324h106l205 -158l205 158h106z" />
    <glyph glyph-name="ccaron" unicode="&#x10d;" horiz-adv-x="946" 
d="M907 358c0 -44 -5.99609 -88.6641 -17.9961 -133.997s-33 -86.5 -63 -123.5s-70.333 -67.167 -121 -90.5s-114.334 -35 -191.001 -35c-75.333 0 -142.333 8.66699 -201 26s-108.167 47.5 -148.5 90.5s-71 101.333 -92 175s-31.5 166.5 -31.5 278.5
c0 127.333 11.333 233.666 34 318.999s54.5 153.833 95.5 205.5s89.833 88.334 146.5 110.001s119 32.5 187 32.5c75.333 0 137.5 -10.167 186.5 -30.5s88 -47.833 117 -82.5s49.167 -75.334 60.5 -122.001s17 -96 17 -148c0 -38.667 -2 -71.334 -6 -98.001l-277 -8
c2 9.33301 3.5 19.5 4.5 30.5s1.5 24.167 1.5 39.5c0 54 -8.83301 96.167 -26.5 126.5s-44.834 45.5 -81.501 45.5c-26 0 -47.5 -5.33301 -64.5 -16s-30.167 -29.5 -39.5 -56.5s-15.833 -63.167 -19.5 -108.5s-5.5 -102.666 -5.5 -171.999c0 -80.667 2 -146 6 -196
s11 -88.833 21 -116.5s23.667 -46.334 41 -56.001s39 -14.5 65 -14.5s46.667 7.5 62 22.5s27.166 34 35.499 57s13.666 48.167 15.999 75.5s3.5 53.666 3.5 78.999c0 28.667 -3 51 -9 67l281 -14c4 -19.333 7.33301 -42.5 10 -69.5s4 -56.5 4 -88.5zM668.004 1251h-303
l-170 324h106l205 -158l205 158h106z" />
    <glyph glyph-name="Dcaron" unicode="&#x10e;" horiz-adv-x="1071" 
d="M1026 713c0 -103.333 -7.16797 -198.669 -21.501 -286.002s-39 -162.666 -74 -225.999s-81.5 -112.666 -139.5 -147.999s-130.667 -53 -218 -53h-481v1573h506c72 0 134.833 -20.5 188.5 -61.5s98.334 -99 134.001 -174s62.167 -165.5 79.5 -271.5s26 -223.667 26 -353z
M677.999 749.997c0 105.333 -2.00098 193.5 -6.00098 264.5s-12 128.167 -24 171.5s-29.167 74.333 -51.5 93s-51.833 28 -88.5 28h-76v-1022h80c28 0 52.5 5.5 73.5 16.5s38.333 33 52 66s23.834 80 30.501 141s10 141.5 10 241.5zM676.998 1661h-303l-170 324h106
l205 -158l205 158h106z" />
    <glyph glyph-name="dcaron" unicode="&#x10f;" horiz-adv-x="1431" 
d="M612 0l0.00195312 151.999l-28 -52c-17.333 -32.667 -42.666 -60.5 -75.999 -83.5s-74.333 -34.5 -123 -34.5c-56.667 0 -106.5 9 -149.5 27s-78.833 49.667 -107.5 95s-50.334 106.5 -65.001 183.5s-22 174.5 -22 292.5c0 200.667 29.167 353.834 87.5 459.501
s143.166 158.5 254.499 158.5c49.333 0 90.666 -11.5 123.999 -34.5s58.333 -52.5 75 -88.5l14 -31v529h324v-1573h-308zM592.002 585.999c0 38 -0.663086 71.5 -1.99609 100.5s-3.33301 55 -6 78s-6 43.5 -10 61.5s-9 35 -15 51c-9.33301 24.667 -20.833 43.667 -34.5 57
s-32.834 20 -57.501 20c-16.667 0 -31.334 -6.5 -44.001 -19.5s-23.334 -34 -32.001 -63s-15.167 -66.833 -19.5 -113.5s-6.5 -103.334 -6.5 -170.001c0 -79.333 3.16699 -142.666 9.5 -189.999s14.666 -83.333 24.999 -108s22.333 -40.667 36 -48s27.5 -11 41.5 -11
c18 0 34.167 5.16699 48.5 15.5s26.333 28.833 36 55.5s17.167 63 22.5 109s8 104.333 8 175zM1362.01 1229c0 -37.333 -3.16699 -72.165 -9.5 -104.498s-17 -62 -32 -89s-34.5 -51.167 -58.5 -72.5s-53.667 -39.333 -89 -54c-19.333 -8 -38.5 -14.167 -57.5 -18.5
s-40.167 -8.16602 -63.5 -11.499l-24 112c22.667 7.33301 43.5 16.166 62.5 26.499s36.167 22.166 51.5 35.499c14 12 25 24.5 33 37.5s13.833 26.833 17.5 41.5s5.5 30.167 5.5 46.5s-0.666992 33.166 -2 50.499h-121v344h287v-344z" />
    <glyph glyph-name="Dcroat" unicode="&#x110;" horiz-adv-x="1071" 
d="M1026 713c0 -103.333 -7.16797 -198.669 -21.501 -286.002s-39 -162.666 -74 -225.999s-81.5 -112.666 -139.5 -147.999s-130.667 -53 -218 -53h-481v670h-92v229h92v674h506c72 0 134.833 -20.5 188.5 -61.5s98.334 -99 134.001 -174s62.167 -165.5 79.5 -271.5
s26 -223.667 26 -353zM677.999 749.997c0 105.333 -2.00098 193.5 -6.00098 264.5s-12 128.167 -24 171.5s-29.167 74.333 -51.5 93s-51.833 28 -88.5 28h-76v-408h160v-229h-160v-385h80c28 0 52.5 5.5 73.5 16.5s38.333 33 52 66s23.834 80 30.501 141s10 141.5 10 241.5z
" />
    <glyph glyph-name="dcroat" unicode="&#x111;" horiz-adv-x="997" 
d="M612 0l0.00195312 151.999l-28 -52c-17.333 -32.667 -42.666 -60.5 -75.999 -83.5s-74.333 -34.5 -123 -34.5c-56.667 0 -106.5 9 -149.5 27s-78.833 49.667 -107.5 95s-50.334 106.5 -65.001 183.5s-22 174.5 -22 292.5c0 200.667 29.167 353.834 87.5 459.501
s143.166 158.5 254.499 158.5c49.333 0 90.666 -11.5 123.999 -34.5s58.333 -52.5 75 -88.5l14 -31v203h-291v242h291v84h324v-84h114v-242h-114v-1247h-308zM592.002 585.999c0 38 -0.663086 71.5 -1.99609 100.5s-3.33301 55 -6 78s-6 43.5 -10 61.5s-9 35 -15 51
c-9.33301 24.667 -20.833 43.667 -34.5 57s-32.834 20 -57.501 20c-16.667 0 -31.334 -6.5 -44.001 -19.5s-23.334 -34 -32.001 -63s-15.167 -66.833 -19.5 -113.5s-6.5 -103.334 -6.5 -170.001c0 -79.333 3.16699 -142.666 9.5 -189.999s14.666 -83.333 24.999 -108
s22.333 -40.667 36 -48s27.5 -11 41.5 -11c18 0 34.167 5.16699 48.5 15.5s26.333 28.833 36 55.5s17.167 63 22.5 109s8 104.333 8 175z" />
    <glyph glyph-name="Emacron" unicode="&#x112;" horiz-adv-x="954" 
d="M92 0v1573h785v-297h-437v-328h389v-289h-389v-358h478v-301h-826zM176 1706v197h607v-197h-607z" />
    <glyph glyph-name="emacron" unicode="&#x113;" horiz-adv-x="946" 
d="M367 524c-0.666992 -65.333 1.66797 -117.498 7.00098 -156.498s13.833 -68.833 25.5 -89.5s26.167 -34.334 43.5 -41.001s37.666 -10 60.999 -10c44 0 74.5 14.5 91.5 43.5s23.167 68.5 18.5 118.5l-4 47l281 -8c4 -22 6 -51.333 6 -88
c0 -50.667 -6.66699 -98.167 -20 -142.5s-35.333 -83 -66 -116s-70.834 -59 -120.501 -78s-110.5 -28.5 -182.5 -28.5c-47.333 0 -91.666 3.33301 -132.999 10s-79.333 18.5 -114 35.5s-65.667 39.833 -93 68.5s-50.333 65 -69 109s-33 96.667 -43 158s-15 133 -15 215
c0 113.333 9.66699 210.5 29 291.5s47.5 147.333 84.5 199s82.833 89.667 137.5 114s117.667 36.5 189 36.5c64 0 119.667 -10.5 167 -31.5s87.333 -51.5 120 -91.5s58.5 -88.833 77.5 -146.5s32.167 -123.5 39.5 -197.5c4 -40.667 7 -79.334 9 -116.001s3.66699 -73 5 -109
zM584.002 690.002c-3.33301 56.667 -6.66699 103.668 -10 141.001s-8.33301 66.666 -15 87.999s-16.167 36.333 -28.5 45s-28.833 13 -49.5 13c-21.333 0 -39 -6.16699 -53 -18.5s-25.333 -30.5 -34 -54.5s-15 -53.833 -19 -89.5s-6.66699 -77.167 -8 -124.5h217z
M188.001 1296v197h607v-197h-607z" />
    <glyph glyph-name="Ebreve" unicode="&#x114;" 
 />
    <glyph glyph-name="ebreve" unicode="&#x115;" 
 />
    <glyph glyph-name="Edotaccent" unicode="&#x116;" horiz-adv-x="954" 
d="M92 0v1573h785v-297h-437v-328h389v-289h-389v-358h478v-301h-826zM350 1682v256h254v-256h-254z" />
    <glyph glyph-name="edotaccent" unicode="&#x117;" horiz-adv-x="946" 
d="M367 524c-0.666992 -65.333 1.66797 -117.498 7.00098 -156.498s13.833 -68.833 25.5 -89.5s26.167 -34.334 43.5 -41.001s37.666 -10 60.999 -10c44 0 74.5 14.5 91.5 43.5s23.167 68.5 18.5 118.5l-4 47l281 -8c4 -22 6 -51.333 6 -88
c0 -50.667 -6.66699 -98.167 -20 -142.5s-35.333 -83 -66 -116s-70.834 -59 -120.501 -78s-110.5 -28.5 -182.5 -28.5c-47.333 0 -91.666 3.33301 -132.999 10s-79.333 18.5 -114 35.5s-65.667 39.833 -93 68.5s-50.333 65 -69 109s-33 96.667 -43 158s-15 133 -15 215
c0 113.333 9.66699 210.5 29 291.5s47.5 147.333 84.5 199s82.833 89.667 137.5 114s117.667 36.5 189 36.5c64 0 119.667 -10.5 167 -31.5s87.333 -51.5 120 -91.5s58.5 -88.833 77.5 -146.5s32.167 -123.5 39.5 -197.5c4 -40.667 7 -79.334 9 -116.001s3.66699 -73 5 -109
zM584.002 690.002c-3.33301 56.667 -6.66699 103.668 -10 141.001s-8.33301 66.666 -15 87.999s-16.167 36.333 -28.5 45s-28.833 13 -49.5 13c-21.333 0 -39 -6.16699 -53 -18.5s-25.333 -30.5 -34 -54.5s-15 -53.833 -19 -89.5s-6.66699 -77.167 -8 -124.5h217z
M350.001 1272v256h254v-256h-254z" />
    <glyph glyph-name="Eogonek" unicode="&#x118;" horiz-adv-x="954" 
d="M92 1573l785.004 0.000976562v-297h-437v-328h389v-289h-389v-358h478v-301c-24 -7.33301 -50.667 -18.833 -80 -34.5s-56.833 -34.667 -82.5 -57s-47 -47.333 -64 -75s-25.5 -57.5 -25.5 -89.5c0 -21.333 3.16699 -38.666 9.5 -51.999s16.833 -20 31.5 -20
c21.333 0 36.166 6.5 44.499 19.5s12.5 27.833 12.5 44.5c0 13.333 -1.5 27.666 -4.5 42.999s-6.16699 28.333 -9.5 39h149c3.33301 -17.333 5.5 -33.333 6.5 -48s1.5 -28.667 1.5 -42c0 -22.667 -5.16699 -42.834 -15.5 -60.501s-24.833 -32.667 -43.5 -45
s-40.5 -21.833 -65.5 -28.5s-52.5 -10 -82.5 -10c-62.667 0 -109.667 14.333 -141 43s-47 67.667 -47 117c0 25.333 6.16699 49.666 18.5 72.999s28.166 45.5 47.499 66.5s41.166 40.333 65.499 58s48.166 33.834 71.499 48.501l16 10h-639v1573z" />
    <glyph glyph-name="eogonek" unicode="&#x119;" horiz-adv-x="946" 
d="M729 0c-48 -40 -82.1621 -80.165 -102.495 -120.498s-30.5 -85.5 -30.5 -135.5c0 -21.333 3.16699 -38.666 9.5 -51.999s16.833 -20 31.5 -20c21.333 0 36.166 6.5 44.499 19.5s12.5 27.833 12.5 44.5c0 13.333 -1.5 27.666 -4.5 42.999s-6.16699 28.333 -9.5 39h149
c3.33301 -17.333 5.66602 -33.333 6.99902 -48s2 -28.667 2 -42c0 -22.667 -5.16699 -42.834 -15.5 -60.501s-24.833 -32.667 -43.5 -45s-40.5 -21.833 -65.5 -28.5s-52.5 -10 -82.5 -10c-62.667 0 -109.834 14.333 -141.501 43s-47.5 67.667 -47.5 117
c0 25.333 4.66699 50 14 74s21.5 46.333 36.5 67s32.167 39.334 51.5 56.001s38.666 31 57.999 43c-10 -2.66699 -18 -4.66699 -24 -6s-12 -2.16602 -18 -2.49902s-13 -0.5 -21 -0.5h-31c-47.333 0 -91.666 3.33301 -132.999 10s-79.333 18.5 -114 35.5
s-65.667 39.833 -93 68.5s-50.333 65 -69 109s-33 96.667 -43 158s-15 133 -15 215c0 113.333 9.66699 210.5 29 291.5s47.5 147.333 84.5 199s82.833 89.667 137.5 114s117.667 36.5 189 36.5c64 0 119.667 -10.5 167 -31.5s87.333 -51.5 120 -91.5
s58.5 -88.833 77.5 -146.5s32.167 -123.5 39.5 -197.5c4 -40.667 7 -79.334 9 -116.001s3.66699 -73 5 -109l-532 4c-0.666992 -65.333 1.66602 -117.5 6.99902 -156.5s13.833 -68.833 25.5 -89.5s26.167 -34.334 43.5 -41.001s37.666 -10 60.999 -10
c44 0 74.5 14.5 91.5 43.5s23.167 68.5 18.5 118.5l-4 47l281 -8c4 -22 6 -51.333 6 -88c0 -39.333 -3.5 -74.833 -10.5 -106.5s-17.5 -61 -31.5 -88s-31.5 -52.333 -52.5 -76s-45.5 -46.834 -73.5 -69.501zM584.005 690.002c-3.33301 56.667 -6.66699 103.668 -10 141.001
s-8.33301 66.666 -15 87.999s-16.167 36.333 -28.5 45s-28.833 13 -49.5 13c-21.333 0 -39 -6.16699 -53 -18.5s-25.333 -30.5 -34 -54.5s-15 -53.833 -19 -89.5s-6.66699 -77.167 -8 -124.5h217z" />
    <glyph glyph-name="Ecaron" unicode="&#x11a;" horiz-adv-x="954" 
d="M92 0v1573h785v-297h-437v-328h389v-289h-389v-358h478v-301h-826zM641 1661h-303l-170 324h106l205 -158l205 158h106z" />
    <glyph glyph-name="ecaron" unicode="&#x11b;" horiz-adv-x="946" 
d="M367 524c-0.666992 -65.333 1.66797 -117.498 7.00098 -156.498s13.833 -68.833 25.5 -89.5s26.167 -34.334 43.5 -41.001s37.666 -10 60.999 -10c44 0 74.5 14.5 91.5 43.5s23.167 68.5 18.5 118.5l-4 47l281 -8c4 -22 6 -51.333 6 -88
c0 -50.667 -6.66699 -98.167 -20 -142.5s-35.333 -83 -66 -116s-70.834 -59 -120.501 -78s-110.5 -28.5 -182.5 -28.5c-47.333 0 -91.666 3.33301 -132.999 10s-79.333 18.5 -114 35.5s-65.667 39.833 -93 68.5s-50.333 65 -69 109s-33 96.667 -43 158s-15 133 -15 215
c0 113.333 9.66699 210.5 29 291.5s47.5 147.333 84.5 199s82.833 89.667 137.5 114s117.667 36.5 189 36.5c64 0 119.667 -10.5 167 -31.5s87.333 -51.5 120 -91.5s58.5 -88.833 77.5 -146.5s32.167 -123.5 39.5 -197.5c4 -40.667 7 -79.334 9 -116.001s3.66699 -73 5 -109
zM584.002 690.002c-3.33301 56.667 -6.66699 103.668 -10 141.001s-8.33301 66.666 -15 87.999s-16.167 36.333 -28.5 45s-28.833 13 -49.5 13c-21.333 0 -39 -6.16699 -53 -18.5s-25.333 -30.5 -34 -54.5s-15 -53.833 -19 -89.5s-6.66699 -77.167 -8 -124.5h217z
M637.001 1251h-303l-170 324h106l205 -158l205 158h106z" />
    <glyph glyph-name="Gcircumflex" unicode="&#x11c;" 
 />
    <glyph glyph-name="gcircumflex" unicode="&#x11d;" 
 />
    <glyph glyph-name="Gbreve" unicode="&#x11e;" horiz-adv-x="1061" 
d="M821 0l-37 104.002l-45 -38c-20.667 -17.333 -40.334 -32.333 -59.001 -45s-38 -23 -58 -31s-41.667 -13.833 -65 -17.5s-50 -5.5 -80 -5.5c-72 0 -135 12.167 -189 36.5s-99 66 -135 125s-63 138.167 -81 237.5s-27 224.333 -27 375
c0 161.333 8.16699 296.666 24.5 405.999s43.5 197.333 81.5 264s88.5 114.334 151.5 143.001s141.167 43 234.5 43c68.667 0 130.334 -8 185.001 -24s101 -40.833 139 -74.5s67.167 -76.834 87.5 -129.501s30.5 -115.667 30.5 -189c0 -14 -0.666992 -31.5 -2 -52.5
s-3.16602 -42.5 -5.49902 -64.5s-5 -43 -8 -63s-6.16699 -36 -9.5 -48l-301 -8c1.33301 11.333 2.66602 25 3.99902 41s2.5 33.333 3.5 52s1.83301 37.667 2.5 57s1 37.666 1 54.999c0 24.667 -2.33301 47.5 -7 68.5s-12 39.333 -22 55s-23.167 28 -39.5 37
s-35.833 13.5 -58.5 13.5c-26 0 -47.667 -7.66699 -65 -23s-31.166 -44.333 -41.499 -87s-17.5 -101.667 -21.5 -177s-6 -173 -6 -293c0 -72.667 1 -135.167 3 -187.5s5.16699 -96.5 9.5 -132.5s10.166 -65 17.499 -87s16.5 -38.833 27.5 -50.5s24 -19.5 39 -23.5
s32.167 -6 51.5 -6c26 0 47.833 4.5 65.5 13.5s31.667 23 42 42s17.833 43.5 22.5 73.5s7 65.667 7 107v94h-160v221h459v-807h-166zM862 1930c0 -52.667 -6.49805 -96.167 -19.498 -130.5s-33 -61.5 -60 -81.5s-61.5 -33.833 -103.5 -41.5s-91.667 -11.5 -149 -11.5
s-106.833 3.66699 -148.5 11s-76.167 20.833 -103.5 40.5s-47.5 46.667 -60.5 81s-19.5 78.5 -19.5 132.5h209c-0.666992 -15.333 0.833008 -29.666 4.5 -42.999s10.167 -25 19.5 -35s22 -18 38 -24s36.333 -9 61 -9c23.333 0 43.166 3 59.499 9s29.333 14 39 24
s16.667 21.667 21 35s6.16602 27.666 5.49902 42.999h207z" />
    <glyph glyph-name="gbreve" unicode="&#x11f;" horiz-adv-x="922" 
d="M928 -20c0 -62.667 -9.16699 -116.83 -27.5 -162.497s-47.166 -83.5 -86.499 -113.5s-89.833 -52.333 -151.5 -67s-135.834 -22 -222.501 -22c-56 0 -110.333 4.16699 -163 12.5s-99.167 22.333 -139.5 42s-72.666 45.834 -96.999 78.501s-36.5 73 -36.5 121
c0 37.333 9.16699 66.833 27.5 88.5s45.5 41.167 81.5 58.5l53 27l-39 23c-40 23.333 -67.333 50.666 -82 81.999s-22 68.666 -22 111.999c0 26.667 4 51 12 73s18.667 42 32 60s28.5 34.167 45.5 48.5s34.167 27.5 51.5 39.5l37 25l-35 31c-16 14 -31 31 -45 51
s-26.167 42 -36.5 66s-18.5 49.167 -24.5 75.5s-9 52.166 -9 77.499c0 63.333 8.33301 120.166 25 170.499s41.667 92.833 75 127.5s74.5 61.167 123.5 79.5s106.167 27.5 171.5 27.5c40 0 72 -2 96 -6s46.667 -10.667 68 -20l31 213h262l-180 -271
c19.333 -16 37.666 -34.5 54.999 -55.5s32.5 -44.667 45.5 -71s23.333 -55.666 31 -87.999s11.5 -67.833 11.5 -106.5c0 -56 -8.5 -106.667 -25.5 -152s-41.167 -84 -72.5 -116s-69.666 -56.833 -114.999 -74.5s-96.333 -26.5 -153 -26.5c-12 0 -25 0.166992 -39 0.5
s-27.833 1 -41.5 2s-26.834 2.33301 -39.501 4s-24 3.83398 -34 6.50098c-8 -5.33301 -16.167 -10.333 -24.5 -15s-15.833 -9.66699 -22.5 -15s-12.167 -11.666 -16.5 -18.999s-6.5 -16.333 -6.5 -27c0 -14.667 3 -25.834 9 -33.501s13.833 -13.334 23.5 -17.001
s20.5 -5.83398 32.5 -6.50098s24 -1 36 -1l194 2c112 1.33301 199.5 -26.167 262.5 -82.5s94.5 -141.833 94.5 -256.5zM561 834.004c0 43.333 -2.33301 78.333 -7 105s-11.5 47.334 -20.5 62.001s-20.167 24.5 -33.5 29.5s-29 7.5 -47 7.5s-33.667 -2.5 -47 -7.5
s-24.5 -14.833 -33.5 -29.5s-15.667 -35.334 -20 -62.001s-6.5 -61.667 -6.5 -105c0 -44 2.16699 -79.333 6.5 -106s11 -47.334 20 -62.001s20.167 -24.5 33.5 -29.5s29 -7.5 47 -7.5s33.667 2.5 47 7.5s24.5 14.833 33.5 29.5s15.833 35.334 20.5 62.001s7 62 7 106z
M639 -81.9961c0 32 -13.835 56.998 -41.502 74.998s-75.167 27 -142.5 27h-144c-14 -12 -27 -27.5 -39 -46.5s-18 -38.833 -18 -59.5c0 -18 4.83301 -34.167 14.5 -48.5s23 -26.666 40 -36.999s37 -18.166 60 -23.499s48.167 -8 75.5 -8c42.667 0 76.834 2.5 102.501 7.5
s45.334 12.667 59.001 23s22.667 23 27 38s6.5 32.5 6.5 52.5zM794.998 1520c0 -52.667 -6.49805 -96.167 -19.498 -130.5s-33 -61.5 -60 -81.5s-61.5 -33.833 -103.5 -41.5s-91.667 -11.5 -149 -11.5s-106.833 3.66699 -148.5 11s-76.167 20.833 -103.5 40.5
s-47.5 46.667 -60.5 81s-19.5 78.5 -19.5 132.5h209c-0.666992 -15.333 0.833008 -29.666 4.5 -42.999s10.167 -25 19.5 -35s22 -18 38 -24s36.333 -9 61 -9c23.333 0 43.166 3 59.499 9s29.333 14 39 24s16.667 21.667 21 35s6.16602 27.666 5.49902 42.999h207z" />
    <glyph glyph-name="Gdotaccent" unicode="&#x120;" 
 />
    <glyph glyph-name="gdotaccent" unicode="&#x121;" 
 />
    <glyph glyph-name="Gcommaaccent" unicode="&#x122;" horiz-adv-x="1061" 
d="M821 0l-37 104.002l-45 -38c-20.667 -17.333 -40.334 -32.333 -59.001 -45s-38 -23 -58 -31s-41.667 -13.833 -65 -17.5s-50 -5.5 -80 -5.5c-72 0 -135 12.167 -189 36.5s-99 66 -135 125s-63 138.167 -81 237.5s-27 224.333 -27 375
c0 161.333 8.16699 296.666 24.5 405.999s43.5 197.333 81.5 264s88.5 114.334 151.5 143.001s141.167 43 234.5 43c68.667 0 130.334 -8 185.001 -24s101 -40.833 139 -74.5s67.167 -76.834 87.5 -129.501s30.5 -115.667 30.5 -189c0 -14 -0.666992 -31.5 -2 -52.5
s-3.16602 -42.5 -5.49902 -64.5s-5 -43 -8 -63s-6.16699 -36 -9.5 -48l-301 -8c1.33301 11.333 2.66602 25 3.99902 41s2.5 33.333 3.5 52s1.83301 37.667 2.5 57s1 37.666 1 54.999c0 24.667 -2.33301 47.5 -7 68.5s-12 39.333 -22 55s-23.167 28 -39.5 37
s-35.833 13.5 -58.5 13.5c-26 0 -47.667 -7.66699 -65 -23s-31.166 -44.333 -41.499 -87s-17.5 -101.667 -21.5 -177s-6 -173 -6 -293c0 -72.667 1 -135.167 3 -187.5s5.16699 -96.5 9.5 -132.5s10.166 -65 17.499 -87s16.5 -38.833 27.5 -50.5s24 -19.5 39 -23.5
s32.167 -6 51.5 -6c26 0 47.833 4.5 65.5 13.5s31.667 23 42 42s17.833 43.5 22.5 73.5s7 65.667 7 107v94h-160v221h459v-807h-166zM639 -390.998c0 -63.333 -11.8311 -118.168 -35.498 -164.501s-65.167 -82.5 -124.5 -108.5c-17.333 -7.33301 -34 -12.666 -50 -15.999
s-34.333 -6.66602 -55 -9.99902l-20 96c19.333 6 37.166 13.5 53.499 22.5s31.166 19.167 44.499 30.5c23.333 19.333 37.5 41.666 42.5 66.999s5.83301 53 2.5 83h-127v293h269v-293z" />
    <glyph glyph-name="gcommaaccent" unicode="&#x123;" horiz-adv-x="922" 
d="M928 -20c0 -62.667 -9.16699 -116.83 -27.5 -162.497s-47.166 -83.5 -86.499 -113.5s-89.833 -52.333 -151.5 -67s-135.834 -22 -222.501 -22c-56 0 -110.333 4.16699 -163 12.5s-99.167 22.333 -139.5 42s-72.666 45.834 -96.999 78.501s-36.5 73 -36.5 121
c0 37.333 9.16699 66.833 27.5 88.5s45.5 41.167 81.5 58.5l53 27l-39 23c-40 23.333 -67.333 50.666 -82 81.999s-22 68.666 -22 111.999c0 26.667 4 51 12 73s18.667 42 32 60s28.5 34.167 45.5 48.5s34.167 27.5 51.5 39.5l37 25l-35 31c-16 14 -31 31 -45 51
s-26.167 42 -36.5 66s-18.5 49.167 -24.5 75.5s-9 52.166 -9 77.499c0 63.333 8.33301 120.166 25 170.499s41.667 92.833 75 127.5s74.5 61.167 123.5 79.5s106.167 27.5 171.5 27.5c40 0 72 -2 96 -6s46.667 -10.667 68 -20l31 213h262l-180 -271
c19.333 -16 37.666 -34.5 54.999 -55.5s32.5 -44.667 45.5 -71s23.333 -55.666 31 -87.999s11.5 -67.833 11.5 -106.5c0 -56 -8.5 -106.667 -25.5 -152s-41.167 -84 -72.5 -116s-69.666 -56.833 -114.999 -74.5s-96.333 -26.5 -153 -26.5c-12 0 -25 0.166992 -39 0.5
s-27.833 1 -41.5 2s-26.834 2.33301 -39.501 4s-24 3.83398 -34 6.50098c-8 -5.33301 -16.167 -10.333 -24.5 -15s-15.833 -9.66699 -22.5 -15s-12.167 -11.666 -16.5 -18.999s-6.5 -16.333 -6.5 -27c0 -14.667 3 -25.834 9 -33.501s13.833 -13.334 23.5 -17.001
s20.5 -5.83398 32.5 -6.50098s24 -1 36 -1l194 2c112 1.33301 199.5 -26.167 262.5 -82.5s94.5 -141.833 94.5 -256.5zM561 834.004c0 43.333 -2.33301 78.333 -7 105s-11.5 47.334 -20.5 62.001s-20.167 24.5 -33.5 29.5s-29 7.5 -47 7.5s-33.667 -2.5 -47 -7.5
s-24.5 -14.833 -33.5 -29.5s-15.667 -35.334 -20 -62.001s-6.5 -61.667 -6.5 -105c0 -44 2.16699 -79.333 6.5 -106s11 -47.334 20 -62.001s20.167 -24.5 33.5 -29.5s29 -7.5 47 -7.5s33.667 2.5 47 7.5s24.5 14.833 33.5 29.5s15.833 35.334 20.5 62.001s7 62 7 106z
M639 -81.9961c0 32 -13.835 56.998 -41.502 74.998s-75.167 27 -142.5 27h-144c-14 -12 -27 -27.5 -39 -46.5s-18 -38.833 -18 -59.5c0 -18 4.83301 -34.167 14.5 -48.5s23 -26.666 40 -36.999s37 -18.166 60 -23.499s48.167 -8 75.5 -8c42.667 0 76.834 2.5 102.501 7.5
s45.334 12.667 59.001 23s22.667 23 27 38s6.5 32.5 6.5 52.5zM638.998 1936c-22.667 -7.33301 -43.501 -16.167 -62.501 -26.5s-36.167 -22.166 -51.5 -35.499c-14 -12 -25 -24.5 -33 -37.5s-13.667 -26.833 -17 -41.5s-5.16602 -30.167 -5.49902 -46.5
s0.5 -33.166 2.5 -50.499h120v-344h-286v344c0 37.333 3.16699 72.166 9.5 104.499s16.833 62 31.5 89s34 51 58 72s53.667 39.167 89 54.5c19.333 8 38.5 14.167 57.5 18.5s40.167 8.16602 63.5 11.499z" />
    <glyph glyph-name="Hcircumflex" unicode="&#x124;" 
 />
    <glyph glyph-name="hcircumflex" unicode="&#x125;" 
 />
    <glyph glyph-name="Hbar" unicode="&#x126;" 
 />
    <glyph glyph-name="hbar" unicode="&#x127;" 
 />
    <glyph glyph-name="Itilde" unicode="&#x128;" 
 />
    <glyph glyph-name="itilde" unicode="&#x129;" 
 />
    <glyph glyph-name="Imacron" unicode="&#x12a;" horiz-adv-x="532" 
d="M92 0v1573h348v-1573h-348zM-35 1706v197h607v-197h-607z" />
    <glyph glyph-name="imacron" unicode="&#x12b;" horiz-adv-x="479" 
d="M78 0v1176h323v-1176h-323zM-62 1296v197h607v-197h-607z" />
    <glyph glyph-name="Ibreve" unicode="&#x12c;" 
 />
    <glyph glyph-name="ibreve" unicode="&#x12d;" 
 />
    <glyph glyph-name="Iogonek" unicode="&#x12e;" horiz-adv-x="532" 
d="M350 -20c-23.333 -10.667 -44.167 -24.3301 -62.5 -40.9971s-34.166 -35.167 -47.499 -55.5s-23.5 -42.5 -30.5 -66.5s-10.5 -48.333 -10.5 -73c0 -21.333 3.16699 -38.666 9.5 -51.999s16.833 -20 31.5 -20c21.333 0 36.166 6.5 44.499 19.5s12.5 27.833 12.5 44.5
c0 13.333 -1.5 27.666 -4.5 42.999s-6.16699 28.333 -9.5 39h149c3.33301 -17.333 5.5 -33.333 6.5 -48s1.5 -28.667 1.5 -42c0 -22.667 -5.16699 -42.834 -15.5 -60.501s-24.833 -32.667 -43.5 -45s-40.5 -21.833 -65.5 -28.5s-52.5 -10 -82.5 -10
c-62.667 0 -109.667 14.333 -141 43s-47 67.667 -47 117c0 34.667 6.5 66.167 19.5 94.5s28.833 53.166 47.5 74.499s38.5 39.333 59.5 54s39.5 25.667 55.5 33h-135v1573h348v-1573c-9.33301 0 -19.333 -1 -30 -3c-9.33301 -1.33301 -19.333 -3.33301 -30 -6
s-20.667 -6.33398 -30 -11.001z" />
    <glyph glyph-name="iogonek" unicode="&#x12f;" horiz-adv-x="479" 
d="M78 1278v295h323v-295h-323zM334 -16c-58.667 -29.333 -100 -64.166 -124 -104.499s-36 -85.5 -36 -135.5c0 -21.333 3.16699 -38.666 9.5 -51.999s16.833 -20 31.5 -20c21.333 0 36.166 6.5 44.499 19.5s12.5 27.833 12.5 44.5c0 13.333 -1.5 27.666 -4.5 42.999
s-6.16699 28.333 -9.5 39h150c3.33301 -17.333 5.5 -33.333 6.5 -48s1.5 -28.667 1.5 -42c0 -22.667 -5.16699 -42.834 -15.5 -60.501s-24.833 -32.667 -43.5 -45s-40.5 -21.833 -65.5 -28.5s-52.5 -10 -82.5 -10c-62.667 0 -109.834 14.333 -141.501 43
s-47.5 67.667 -47.5 117c0 30 5.33301 57.833 16 83.5s24.834 49 42.501 70s37.5 40 59.5 57s44.333 32.167 67 45.5h-127v1176h323v-1176l-25 -4c-7.33301 -1.33301 -14.666 -2.83301 -21.999 -4.5s-14 -4.16699 -20 -7.5z" />
    <glyph glyph-name="Idotaccent" unicode="&#x130;" horiz-adv-x="532" 
d="M92 0v1573h348v-1573h-348zM141 1682v256h254v-256h-254z" />
    <glyph glyph-name="dotlessi" unicode="&#x131;" horiz-adv-x="479" 
d="M78 0v1176h323v-1176h-323z" />
    <glyph glyph-name="IJ" unicode="&#x132;" 
 />
    <glyph glyph-name="ij" unicode="&#x133;" 
 />
    <glyph glyph-name="Jcircumflex" unicode="&#x134;" 
 />
    <glyph glyph-name="jcircumflex" unicode="&#x135;" 
 />
    <glyph glyph-name="Kcommaaccent" unicode="&#x136;" horiz-adv-x="1067" 
d="M684 0l-244 651v-651h-348v1573h348v-578l236 578h354l-303 -699l350 -874h-393zM676 -391c0 -63.333 -11.8311 -118.168 -35.498 -164.501s-65.167 -82.5 -124.5 -108.5c-17.333 -7.33301 -34 -12.666 -50 -15.999s-34.333 -6.66602 -55 -9.99902l-20 96
c19.333 6 37.166 13.5 53.499 22.5s31.166 19.167 44.499 30.5c23.333 19.333 37.5 41.666 42.5 66.999s5.83301 53 2.5 83h-127v293h269v-293z" />
    <glyph glyph-name="kcommaaccent" unicode="&#x137;" horiz-adv-x="993" 
d="M608 0l-127 399l-80 -141v-258h-323v1573h323v-856l232 459h330l-248 -455l264 -721h-371zM639 -391c0 -63.333 -11.8311 -118.168 -35.498 -164.501s-65.167 -82.5 -124.5 -108.5c-17.333 -7.33301 -34 -12.666 -50 -15.999s-34.333 -6.66602 -55 -9.99902l-20 96
c19.333 6 37.166 13.5 53.499 22.5s31.166 19.167 44.499 30.5c23.333 19.333 37.5 41.666 42.5 66.999s5.83301 53 2.5 83h-127v293h269v-293z" />
    <glyph glyph-name="kgreenlandic" unicode="&#x138;" 
 />
    <glyph glyph-name="Lacute" unicode="&#x139;" horiz-adv-x="844" 
d="M92 0v1573h348v-1272h389v-301h-737zM307 1680h-133l148 303h352v-23z" />
    <glyph glyph-name="lacute" unicode="&#x13a;" horiz-adv-x="479" 
d="M78 0v1573h323v-1573h-323zM236 1270h-133l148 303h352v-23z" />
    <glyph glyph-name="Lcommaaccent" unicode="&#x13b;" horiz-adv-x="844" 
d="M92 0v1573h348v-1272h389v-301h-737zM564 -391c0 -63.333 -11.8311 -118.168 -35.498 -164.501s-65.167 -82.5 -124.5 -108.5c-17.333 -7.33301 -34 -12.666 -50 -15.999s-34.333 -6.66602 -55 -9.99902l-20 96c19.333 6 37.166 13.5 53.499 22.5
s31.166 19.167 44.499 30.5c23.333 19.333 37.5 41.666 42.5 66.999s5.83301 53 2.5 83h-127v293h269v-293z" />
    <glyph glyph-name="lcommaaccent" unicode="&#x13c;" horiz-adv-x="479" 
d="M78 0v1573h323v-1573h-323zM382 -391c0 -63.333 -11.8311 -118.168 -35.498 -164.501s-65.167 -82.5 -124.5 -108.5c-17.333 -7.33301 -34 -12.666 -50 -15.999s-34.333 -6.66602 -55 -9.99902l-20 96c19.333 6 37.166 13.5 53.499 22.5s31.166 19.167 44.499 30.5
c23.333 19.333 37.5 41.666 42.5 66.999s5.83301 53 2.5 83h-127v293h269v-293z" />
    <glyph glyph-name="Lcaron" unicode="&#x13d;" horiz-adv-x="844" 
d="M92 0v1573h348v-1272h389v-301h-737zM799 1639c0 -37.333 -3.16699 -72.165 -9.5 -104.498s-17 -62 -32 -89s-34.5 -51.167 -58.5 -72.5s-53.667 -39.333 -89 -54c-19.333 -8 -38.5 -14.167 -57.5 -18.5s-40.167 -8.16602 -63.5 -11.499l-24 112
c22.667 7.33301 43.5 16.166 62.5 26.499s36.167 22.166 51.5 35.499c14 12 25 24.5 33 37.5s13.833 26.833 17.5 41.5s5.5 30.167 5.5 46.5s-0.666992 33.166 -2 50.499h-121v344h287v-344z" />
    <glyph glyph-name="lcaron" unicode="&#x13e;" horiz-adv-x="913" 
d="M78 0v1573h323v-1573h-323zM844 1229c0 -37.333 -3.16699 -72.165 -9.5 -104.498s-17 -62 -32 -89s-34.5 -51.167 -58.5 -72.5s-53.667 -39.333 -89 -54c-19.333 -8 -38.5 -14.167 -57.5 -18.5s-40.167 -8.16602 -63.5 -11.499l-24 112
c22.667 7.33301 43.5 16.166 62.5 26.499s36.167 22.166 51.5 35.499c14 12 25 24.5 33 37.5s13.833 26.833 17.5 41.5s5.5 30.167 5.5 46.5s-0.666992 33.166 -2 50.499h-121v344h287v-344z" />
    <glyph glyph-name="Ldot" unicode="&#x13f;" 
 />
    <glyph glyph-name="ldot" unicode="&#x140;" 
 />
    <glyph glyph-name="Lslash" unicode="&#x141;" horiz-adv-x="844" 
d="M92 0v377l-45 -39l-156 186l201 170v879h348v-580l222 189l155 -187l-377 -321v-373h389v-301h-737z" />
    <glyph glyph-name="lslash" unicode="&#x142;" horiz-adv-x="651" 
d="M487 664v-664h-323v403l-58 -45l-155 187l213 170v858h323v-598l66 53l156 -186z" />
    <glyph glyph-name="Nacute" unicode="&#x143;" horiz-adv-x="1063" 
d="M713 0l-336 831v-831h-285v1573h303l303 -748v748h273v-1573h-258zM505 1680h-133l148 303h352v-23z" />
    <glyph glyph-name="nacute" unicode="&#x144;" horiz-adv-x="997" 
d="M602 0l-0.000976562 831.002c0 27.333 -5.66699 48.666 -17 63.999s-31 23 -59 23c-18.667 0 -35.667 -5.83301 -51 -17.5s-28.5 -28.334 -39.5 -50.001s-19.5 -47.667 -25.5 -78s-9 -64.5 -9 -102.5v-670h-323v1176h321v-191
c18.667 66.667 50.834 118.834 96.501 156.501s103.167 56.5 172.5 56.5c33.333 0 65.5 -5.5 96.5 -16.5s58.5 -27.833 82.5 -50.5s43.167 -51.334 57.5 -86.001s21.5 -75.667 21.5 -123v-922h-324zM423.999 1270h-133l148 303h352v-23z" />
    <glyph glyph-name="Ncommaaccent" unicode="&#x145;" horiz-adv-x="1063" 
d="M713 0l-336 831v-831h-285v1573h303l303 -748v748h273v-1573h-258zM674 -391c0 -63.333 -11.8311 -118.168 -35.498 -164.501s-65.167 -82.5 -124.5 -108.5c-17.333 -7.33301 -34 -12.666 -50 -15.999s-34.333 -6.66602 -55 -9.99902l-20 96
c19.333 6 37.166 13.5 53.499 22.5s31.166 19.167 44.499 30.5c23.333 19.333 37.5 41.666 42.5 66.999s5.83301 53 2.5 83h-127v293h269v-293z" />
    <glyph glyph-name="ncommaaccent" unicode="&#x146;" horiz-adv-x="997" 
d="M602 0l-0.000976562 831.002c0 27.333 -5.66699 48.666 -17 63.999s-31 23 -59 23c-18.667 0 -35.667 -5.83301 -51 -17.5s-28.5 -28.334 -39.5 -50.001s-19.5 -47.667 -25.5 -78s-9 -64.5 -9 -102.5v-670h-323v1176h321v-191
c18.667 66.667 50.834 118.834 96.501 156.501s103.167 56.5 172.5 56.5c33.333 0 65.5 -5.5 96.5 -16.5s58.5 -27.833 82.5 -50.5s43.167 -51.334 57.5 -86.001s21.5 -75.667 21.5 -123v-922h-324zM640.999 -390.998c0 -63.333 -11.8311 -118.168 -35.498 -164.501
s-65.167 -82.5 -124.5 -108.5c-17.333 -7.33301 -34 -12.666 -50 -15.999s-34.333 -6.66602 -55 -9.99902l-20 96c19.333 6 37.166 13.5 53.499 22.5s31.166 19.167 44.499 30.5c23.333 19.333 37.5 41.666 42.5 66.999s5.83301 53 2.5 83h-127v293h269v-293z" />
    <glyph glyph-name="Ncaron" unicode="&#x147;" horiz-adv-x="1063" 
d="M713 0l-336 831v-831h-285v1573h303l303 -748v748h273v-1573h-258zM693 1661h-303l-170 324h106l205 -158l205 158h106z" />
    <glyph glyph-name="ncaron" unicode="&#x148;" horiz-adv-x="997" 
d="M602 0l-0.000976562 831.002c0 27.333 -5.66699 48.666 -17 63.999s-31 23 -59 23c-18.667 0 -35.667 -5.83301 -51 -17.5s-28.5 -28.334 -39.5 -50.001s-19.5 -47.667 -25.5 -78s-9 -64.5 -9 -102.5v-670h-323v1176h321v-191
c18.667 66.667 50.834 118.834 96.501 156.501s103.167 56.5 172.5 56.5c33.333 0 65.5 -5.5 96.5 -16.5s58.5 -27.833 82.5 -50.5s43.167 -51.334 57.5 -86.001s21.5 -75.667 21.5 -123v-922h-324zM642.999 1251h-303l-170 324h106l205 -158l205 158h106z" />
    <glyph glyph-name="napostrophe" unicode="&#x149;" 
 />
    <glyph glyph-name="Eng" unicode="&#x14a;" 
 />
    <glyph glyph-name="eng" unicode="&#x14b;" 
 />
    <glyph glyph-name="Omacron" unicode="&#x14c;" horiz-adv-x="1012" 
d="M967 788c0 -100.667 -2.5 -190.667 -7.5 -270s-14 -149.166 -27 -209.499s-30.5 -111.5 -52.5 -153.5s-50 -76.333 -84 -103s-74.833 -46.167 -122.5 -58.5s-103.5 -18.5 -167.5 -18.5c-56.667 0 -107.334 4.66699 -152.001 14s-84 25.833 -118 49.5
s-63.167 55.167 -87.5 94.5s-44.166 89.166 -59.499 149.499s-26.5 132 -33.5 215s-10.5 179.833 -10.5 290.5c0 136.667 7 255.667 21 357s38.5 185.5 73.5 252.5s82.167 117 141.5 150s134.333 49.5 225 49.5c88 0 161.5 -14.5 220.5 -43.5s106.333 -75.667 142 -140
s61 -147.833 76 -250.5s22.5 -227.667 22.5 -375zM610 784c0 108.667 -0.335938 198.166 -1.00293 268.499s-4.16699 126 -10.5 167s-16.666 69.5 -30.999 85.5s-34.833 24 -61.5 24c-26 0 -46.167 -8.16699 -60.5 -24.5s-24.833 -45 -31.5 -86s-10.5 -96.667 -11.5 -167
s-1.5 -159.5 -1.5 -267.5c0 -76 0.333008 -141.833 1 -197.5s2.33398 -102.834 5.00098 -141.501s6.16699 -70 10.5 -94s10.5 -42.5 18.5 -55.5s17.667 -21.833 29 -26.5s25 -7 41 -7c24.667 0 43.834 5.83301 57.501 17.5s24 35.834 31 72.501s11.333 89.334 13 158.001
s2.5 160 2.5 274zM201.997 1706v197h607v-197h-607z" />
    <glyph glyph-name="omacron" unicode="&#x14d;" horiz-adv-x="948" 
d="M907 596c0 -100 -6.00098 -188.165 -18.001 -264.498s-33.667 -140.333 -65 -192s-74.333 -90.834 -129 -117.501s-124.667 -40 -210 -40c-82 0 -151.167 11.167 -207.5 33.5s-102 57.333 -137 105s-60.333 108.5 -76 182.5s-23.5 162.667 -23.5 266
c0 220.667 35.667 383 107 487s178.333 156 321 156c84.667 0 155.167 -13.167 211.5 -39.5s101.333 -65.333 135 -117s57.334 -115.834 71.001 -192.501s20.5 -165.667 20.5 -267zM572.999 578.002c0 79.333 -1.33301 144.333 -4 195s-7.5 90.5 -14.5 119.5
s-17.167 49 -30.5 60s-30.333 16.5 -51 16.5c-21.333 0 -38.5 -5.66699 -51.5 -17s-23 -31.5 -30 -60.5s-11.5 -68.833 -13.5 -119.5s-3 -115.334 -3 -194.001c0 -75.333 1.83301 -135 5.5 -179s9.5 -77.333 17.5 -100s18.167 -37.167 30.5 -43.5s27.166 -9.5 44.499 -9.5
c18.667 0 34.334 3.33301 47.001 10s23 21.334 31 44.001s13.667 56 17 100s5 103.333 5 178zM172.999 1296v197h607v-197h-607z" />
    <glyph glyph-name="Obreve" unicode="&#x14e;" 
 />
    <glyph glyph-name="obreve" unicode="&#x14f;" 
 />
    <glyph glyph-name="Ohungarumlaut" unicode="&#x150;" horiz-adv-x="1012" 
d="M967 788c0 -100.667 -2.5 -190.667 -7.5 -270s-14 -149.166 -27 -209.499s-30.5 -111.5 -52.5 -153.5s-50 -76.333 -84 -103s-74.833 -46.167 -122.5 -58.5s-103.5 -18.5 -167.5 -18.5c-56.667 0 -107.334 4.66699 -152.001 14s-84 25.833 -118 49.5
s-63.167 55.167 -87.5 94.5s-44.166 89.166 -59.499 149.499s-26.5 132 -33.5 215s-10.5 179.833 -10.5 290.5c0 136.667 7 255.667 21 357s38.5 185.5 73.5 252.5s82.167 117 141.5 150s134.333 49.5 225 49.5c88 0 161.5 -14.5 220.5 -43.5s106.333 -75.667 142 -140
s61 -147.833 76 -250.5s22.5 -227.667 22.5 -375zM610 784c0 108.667 -0.335938 198.166 -1.00293 268.499s-4.16699 126 -10.5 167s-16.666 69.5 -30.999 85.5s-34.833 24 -61.5 24c-26 0 -46.167 -8.16699 -60.5 -24.5s-24.833 -45 -31.5 -86s-10.5 -96.667 -11.5 -167
s-1.5 -159.5 -1.5 -267.5c0 -76 0.333008 -141.833 1 -197.5s2.33398 -102.834 5.00098 -141.501s6.16699 -70 10.5 -94s10.5 -42.5 18.5 -55.5s17.667 -21.833 29 -26.5s25 -7 41 -7c24.667 0 43.834 5.83301 57.501 17.5s24 35.834 31 72.501s11.333 89.334 13 158.001
s2.5 160 2.5 274zM733.997 1672h-106l143 266h272v-23zM383.997 1672h-107l144 266h248v-23z" />
    <glyph glyph-name="ohungarumlaut" unicode="&#x151;" horiz-adv-x="948" 
d="M907 596c0 -100 -6.00098 -188.165 -18.001 -264.498s-33.667 -140.333 -65 -192s-74.333 -90.834 -129 -117.501s-124.667 -40 -210 -40c-82 0 -151.167 11.167 -207.5 33.5s-102 57.333 -137 105s-60.333 108.5 -76 182.5s-23.5 162.667 -23.5 266
c0 220.667 35.667 383 107 487s178.333 156 321 156c84.667 0 155.167 -13.167 211.5 -39.5s101.333 -65.333 135 -117s57.334 -115.834 71.001 -192.501s20.5 -165.667 20.5 -267zM572.999 578.002c0 79.333 -1.33301 144.333 -4 195s-7.5 90.5 -14.5 119.5
s-17.167 49 -30.5 60s-30.333 16.5 -51 16.5c-21.333 0 -38.5 -5.66699 -51.5 -17s-23 -31.5 -30 -60.5s-11.5 -68.833 -13.5 -119.5s-3 -115.334 -3 -194.001c0 -75.333 1.83301 -135 5.5 -179s9.5 -77.333 17.5 -100s18.167 -37.167 30.5 -43.5s27.166 -9.5 44.499 -9.5
c18.667 0 34.334 3.33301 47.001 10s23 21.334 31 44.001s13.667 56 17 100s5 103.333 5 178zM698.999 1262h-106l143 266h272v-23zM348.999 1262h-107l144 266h248v-23z" />
    <glyph glyph-name="OE" unicode="&#x152;" horiz-adv-x="1382" 
d="M680 0c-28 -9.33301 -56.832 -15.833 -86.499 -19.5s-58.834 -5.5 -87.501 -5.5c-55.333 0 -105.166 5.16699 -149.499 15.5s-83.5 27.833 -117.5 52.5s-63.333 57.167 -88 97.5s-44.834 90.666 -60.501 150.999s-27.167 131.333 -34.5 213s-11 176.167 -11 283.5
c0 136.667 7 255.667 21 357s38.5 185.5 73.5 252.5s82.167 117 141.5 150s134.333 49.5 225 49.5c30 0 59 -1.66699 87 -5s56.333 -9.66602 85 -18.999h627v-297h-355v-328h307v-289h-307v-346h396v-313h-666zM610.001 1010c0 62 -2.00098 113.33 -6.00098 153.997
s-10.333 73.334 -19 98.001s-19.5 42 -32.5 52s-28.5 15 -46.5 15c-26 0 -46.167 -8.5 -60.5 -25.5s-24.833 -46.333 -31.5 -88s-10.5 -97.5 -11.5 -167.5s-1.5 -158 -1.5 -264c0 -75.333 0.333008 -140.666 1 -195.999s2.33398 -102.333 5.00098 -141s6.16699 -70 10.5 -94
s10.5 -42.833 18.5 -56.5s17.667 -22.834 29 -27.501s25 -7 41 -7c18 0 33.5 3.83301 46.5 11.5s23.833 22.334 32.5 44.001s15 51.834 19 90.501s6 89 6 151v451z" />
    <glyph glyph-name="oe" unicode="&#x153;" horiz-adv-x="1483" 
d="M903 524c-0.666992 -65.333 1.66895 -117.167 7.00195 -155.5s13.833 -67.833 25.5 -88.5s26.167 -34 43.5 -40s37.666 -9 60.999 -9c44 0 74.5 13.833 91.5 41.5s23.5 66.5 19.5 116.5l-4 47l280 -8c2.66699 -11.333 4.5 -24.5 5.5 -39.5s1.5 -31.167 1.5 -48.5
c0 -50.667 -6.83301 -98 -20.5 -142s-35.834 -82.167 -66.501 -114.5s-70.834 -57.666 -120.501 -75.999s-110.5 -27.5 -182.5 -27.5c-25.333 0 -50.333 0.666992 -75 2s-49.167 4.5 -73.5 9.5s-48.666 12.167 -72.999 21.5s-48.5 22 -72.5 38
c-20 -13.333 -39.833 -24.333 -59.5 -33s-40 -15.667 -61 -21s-43 -9.16602 -66 -11.499s-47.833 -3.5 -74.5 -3.5c-82 0 -151.167 11.167 -207.5 33.5s-102 57.333 -137 105s-60.333 108.5 -76 182.5s-23.5 162.667 -23.5 266c0 220.667 35.667 383 107 487
s178.333 156 321 156c38 0 71.5 -2.33301 100.5 -7s54.833 -11 77.5 -19s42.5 -17 59.5 -27s32.167 -20.333 45.5 -31c13.333 11.333 28.166 22.166 44.499 32.499s35 19.333 56 27s44.667 13.667 71 18s56.5 6.5 90.5 6.5c64 0 119.667 -10.5 167 -31.5
s87.333 -51.5 120 -91.5s58.334 -88.833 77.001 -146.5s31.667 -123.5 39 -197.5c4.66699 -40.667 8 -79.334 10 -116.001s3.66699 -73 5 -109zM1120 689.999c-3.33301 56.667 -6.50391 103.668 -9.50391 141.001s-7.83301 66.666 -14.5 87.999s-16.167 36.333 -28.5 45
s-28.833 13 -49.5 13c-21.333 0 -39.166 -6.16699 -53.499 -18.5s-25.666 -30.5 -33.999 -54.5s-14.666 -53.833 -18.999 -89.5s-7.16602 -77.167 -8.49902 -124.5h217zM577.999 578c0 79.333 -1.33398 144.333 -4.00098 195s-7.66699 90.5 -15 119.5s-17.666 49 -30.999 60
s-30.333 16.5 -51 16.5c-21.333 0 -38.5 -5.66699 -51.5 -17s-23 -31.5 -30 -60.5s-11.5 -68.833 -13.5 -119.5s-3 -115.334 -3 -194.001c0 -75.333 1.83301 -135 5.5 -179s9.5 -77.333 17.5 -100s18.167 -37.167 30.5 -43.5s27.166 -9.5 44.499 -9.5
c18.667 0 34.334 3.33301 47.001 10s23 21.334 31 44.001s13.833 56 17.5 100s5.5 103.333 5.5 178z" />
    <glyph glyph-name="Racute" unicode="&#x154;" horiz-adv-x="1044" 
d="M987 1087c0 -64.667 -5.50293 -118.999 -16.5029 -162.999s-26.833 -80.5 -47.5 -109.5s-45.334 -51.333 -74.001 -67s-61 -27.167 -97 -34.5c34 -8.66699 63.333 -21.334 88 -38.001s45.334 -39.5 62.001 -68.5s29.334 -65.167 38.001 -108.5s14.667 -96 18 -158
c1.33301 -30.667 2.5 -60.834 3.5 -90.501s1.5 -54.167 1.5 -73.5c0.666992 -16 2 -33.5 4 -52.5s4.16699 -37 6.5 -54s4.5 -31.833 6.5 -44.5s3.66699 -21 5 -25h-356c-9.33301 24.667 -16.833 51.834 -22.5 81.501s-8.5 62.5 -8.5 98.5v121
c0 26 -0.166992 51.833 -0.5 77.5s-0.833008 48.167 -1.5 67.5c-0.666992 24.667 -2.16699 47.5 -4.5 68.5s-7.16602 39.167 -14.499 54.5s-17.666 27.333 -30.999 36s-31.333 13 -54 13h-52v-618h-348v1573h514c68 0 126.167 -10.333 174.5 -31s87.833 -51.5 118.5 -92.5
s53 -91.833 67 -152.5s21 -130.667 21 -210zM638.997 1085c0 44.667 -2.66797 81.6689 -8.00098 111.002s-13.333 52.5 -24 69.5s-23.5 28.833 -38.5 35.5s-31.833 10 -50.5 10h-78v-451h82c22.667 0 41.667 4.33301 57 13s27.333 22.167 36 40.5
s14.834 41.666 18.501 69.999s5.5 62.166 5.5 101.499zM555.996 1680h-133l148 303h352v-23z" />
    <glyph glyph-name="racute" unicode="&#x155;" horiz-adv-x="901" 
d="M879 895c0 -54 -1.83594 -101.168 -5.50293 -141.501s-7.5 -74.5 -11.5 -102.5l-276 -51c3.33301 20.667 5.83301 43.334 7.5 68.001s2.5 52.667 2.5 84c0 54 -7.33301 91.667 -22 113s-36 32 -64 32c-21.333 0 -39 -8.33301 -53 -25s-25.167 -39.167 -33.5 -67.5
s-14.166 -61 -17.499 -98s-5 -75.833 -5 -116.5v-590h-323v1176h317l2 -80c0.666992 -22 1.16699 -45.333 1.5 -70s0.5 -45.667 0.5 -63l15 41c8.66699 24.667 19.834 48.667 33.501 72s29.834 44 48.501 62s39.5 32.5 62.5 43.5s48.5 16.5 76.5 16.5
c83.333 0 144.833 -24.5 184.5 -73.5s59.5 -125.5 59.5 -229.5zM475.997 1270h-133l148 303h352v-23z" />
    <glyph glyph-name="Rcommaaccent" unicode="&#x156;" horiz-adv-x="1044" 
d="M987 1087c0 -64.667 -5.50293 -118.999 -16.5029 -162.999s-26.833 -80.5 -47.5 -109.5s-45.334 -51.333 -74.001 -67s-61 -27.167 -97 -34.5c34 -8.66699 63.333 -21.334 88 -38.001s45.334 -39.5 62.001 -68.5s29.334 -65.167 38.001 -108.5s14.667 -96 18 -158
c1.33301 -30.667 2.5 -60.834 3.5 -90.501s1.5 -54.167 1.5 -73.5c0.666992 -16 2 -33.5 4 -52.5s4.16699 -37 6.5 -54s4.5 -31.833 6.5 -44.5s3.66699 -21 5 -25h-356c-9.33301 24.667 -16.833 51.834 -22.5 81.501s-8.5 62.5 -8.5 98.5v121
c0 26 -0.166992 51.833 -0.5 77.5s-0.833008 48.167 -1.5 67.5c-0.666992 24.667 -2.16699 47.5 -4.5 68.5s-7.16602 39.167 -14.499 54.5s-17.666 27.333 -30.999 36s-31.333 13 -54 13h-52v-618h-348v1573h514c68 0 126.167 -10.333 174.5 -31s87.833 -51.5 118.5 -92.5
s53 -91.833 67 -152.5s21 -130.667 21 -210zM638.997 1085c0 44.667 -2.66797 81.6689 -8.00098 111.002s-13.333 52.5 -24 69.5s-23.5 28.833 -38.5 35.5s-31.833 10 -50.5 10h-78v-451h82c22.667 0 41.667 4.33301 57 13s27.333 22.167 36 40.5
s14.834 41.666 18.501 69.999s5.5 62.166 5.5 101.499zM663.996 -390.997c0 -63.333 -11.8311 -118.168 -35.498 -164.501s-65.167 -82.5 -124.5 -108.5c-17.333 -7.33301 -34 -12.666 -50 -15.999s-34.333 -6.66602 -55 -9.99902l-20 96c19.333 6 37.166 13.5 53.499 22.5
s31.166 19.167 44.499 30.5c23.333 19.333 37.5 41.666 42.5 66.999s5.83301 53 2.5 83h-127v293h269v-293z" />
    <glyph glyph-name="rcommaaccent" unicode="&#x157;" horiz-adv-x="901" 
d="M879 895c0 -54 -1.83594 -101.168 -5.50293 -141.501s-7.5 -74.5 -11.5 -102.5l-276 -51c3.33301 20.667 5.83301 43.334 7.5 68.001s2.5 52.667 2.5 84c0 54 -7.33301 91.667 -22 113s-36 32 -64 32c-21.333 0 -39 -8.33301 -53 -25s-25.167 -39.167 -33.5 -67.5
s-14.166 -61 -17.499 -98s-5 -75.833 -5 -116.5v-590h-323v1176h317l2 -80c0.666992 -22 1.16699 -45.333 1.5 -70s0.5 -45.667 0.5 -63l15 41c8.66699 24.667 19.834 48.667 33.501 72s29.834 44 48.501 62s39.5 32.5 62.5 43.5s48.5 16.5 76.5 16.5
c83.333 0 144.833 -24.5 184.5 -73.5s59.5 -125.5 59.5 -229.5zM368.997 -391.001c0 -63.333 -11.8311 -118.168 -35.498 -164.501s-65.167 -82.5 -124.5 -108.5c-17.333 -7.33301 -34 -12.666 -50 -15.999s-34.333 -6.66602 -55 -9.99902l-20 96
c19.333 6 37.166 13.5 53.499 22.5s31.166 19.167 44.499 30.5c23.333 19.333 37.5 41.666 42.5 66.999s5.83301 53 2.5 83h-127v293h269v-293z" />
    <glyph glyph-name="Rcaron" unicode="&#x158;" horiz-adv-x="1044" 
d="M987 1087c0 -64.667 -5.50293 -118.999 -16.5029 -162.999s-26.833 -80.5 -47.5 -109.5s-45.334 -51.333 -74.001 -67s-61 -27.167 -97 -34.5c34 -8.66699 63.333 -21.334 88 -38.001s45.334 -39.5 62.001 -68.5s29.334 -65.167 38.001 -108.5s14.667 -96 18 -158
c1.33301 -30.667 2.5 -60.834 3.5 -90.501s1.5 -54.167 1.5 -73.5c0.666992 -16 2 -33.5 4 -52.5s4.16699 -37 6.5 -54s4.5 -31.833 6.5 -44.5s3.66699 -21 5 -25h-356c-9.33301 24.667 -16.833 51.834 -22.5 81.501s-8.5 62.5 -8.5 98.5v121
c0 26 -0.166992 51.833 -0.5 77.5s-0.833008 48.167 -1.5 67.5c-0.666992 24.667 -2.16699 47.5 -4.5 68.5s-7.16602 39.167 -14.499 54.5s-17.666 27.333 -30.999 36s-31.333 13 -54 13h-52v-618h-348v1573h514c68 0 126.167 -10.333 174.5 -31s87.833 -51.5 118.5 -92.5
s53 -91.833 67 -152.5s21 -130.667 21 -210zM638.997 1085c0 44.667 -2.66797 81.6689 -8.00098 111.002s-13.333 52.5 -24 69.5s-23.5 28.833 -38.5 35.5s-31.833 10 -50.5 10h-78v-451h82c22.667 0 41.667 4.33301 57 13s27.333 22.167 36 40.5
s14.834 41.666 18.501 69.999s5.5 62.166 5.5 101.499zM683.996 1661h-303l-170 324h106l205 -158l205 158h106z" />
    <glyph glyph-name="rcaron" unicode="&#x159;" horiz-adv-x="901" 
d="M879 895c0 -54 -1.83594 -101.168 -5.50293 -141.501s-7.5 -74.5 -11.5 -102.5l-276 -51c3.33301 20.667 5.83301 43.334 7.5 68.001s2.5 52.667 2.5 84c0 54 -7.33301 91.667 -22 113s-36 32 -64 32c-21.333 0 -39 -8.33301 -53 -25s-25.167 -39.167 -33.5 -67.5
s-14.166 -61 -17.499 -98s-5 -75.833 -5 -116.5v-590h-323v1176h317l2 -80c0.666992 -22 1.16699 -45.333 1.5 -70s0.5 -45.667 0.5 -63l15 41c8.66699 24.667 19.834 48.667 33.501 72s29.834 44 48.501 62s39.5 32.5 62.5 43.5s48.5 16.5 76.5 16.5
c83.333 0 144.833 -24.5 184.5 -73.5s59.5 -125.5 59.5 -229.5zM614.997 1251h-303l-170 324h106l205 -158l205 158h106z" />
    <glyph glyph-name="Sacute" unicode="&#x15a;" horiz-adv-x="1042" 
d="M1006 477c0 -73.333 -8.5 -140.662 -25.5 -201.995s-45 -114.333 -84 -159s-90.167 -79.334 -153.5 -104.001s-141.666 -37 -234.999 -37c-84 0 -155.833 9.5 -215.5 28.5s-108.334 46 -146.001 81s-65.334 77 -83.001 126s-26.5 103.833 -26.5 164.5c0 32 2 64.667 6 98
s10.667 62.666 20 87.999l302 10c-7.33301 -18 -12.666 -41.167 -15.999 -69.5s-5 -54.833 -5 -79.5c0 -49.333 13 -88.666 39 -117.999s63 -44 111 -44c22.667 0 43.334 2.83301 62.001 8.5s34.667 14.834 48 27.501s23.833 29.167 31.5 49.5s11.5 45.166 11.5 74.499
c0 26.667 -4 50.667 -12 72s-19.667 41 -35 59s-34.166 35 -56.499 51s-47.833 32.333 -76.5 49l-186 111c-32.667 18.667 -63 41.5 -91 68.5s-52.333 57.167 -73 90.5s-36.834 69.666 -48.501 108.999s-17.5 81 -17.5 125c0 64 10.333 123 31 177s51.5 100.667 92.5 140
s92 70 153 92s132.167 33 213.5 33c70 0 129.667 -9.16699 179 -27.5s89.833 -44 121.5 -77s54.667 -72.833 69 -119.5s21.5 -98 21.5 -154c0 -28 -1.83301 -54 -5.5 -78s-8.16699 -44.667 -13.5 -62l-297 -8c5.33301 11.333 10.5 26 15.5 44s7.5 39 7.5 63
c0 52 -10.167 88.5 -30.5 109.5s-49.166 31.5 -86.499 31.5c-32.667 0 -59.834 -10.833 -81.501 -32.5s-32.5 -57.167 -32.5 -106.5c0 -26.667 6 -50.834 18 -72.501s27.833 -41.167 47.5 -58.5s41.667 -33 66 -47s49.166 -27 74.499 -39l134 -66
c42 -20.667 79 -44.334 111 -71.001s58.833 -57.334 80.5 -92.001s38.167 -73.167 49.5 -115.5s17 -89.5 17 -141.5zM536 1680h-133l148 303h352v-23z" />
    <glyph glyph-name="sacute" unicode="&#x15b;" horiz-adv-x="918" 
d="M895 354c0 -62 -7.83203 -116.333 -23.499 -163s-41.167 -85.667 -76.5 -117s-81.666 -54.833 -138.999 -70.5s-127.333 -23.5 -210 -23.5c-72 0 -133.833 6.33301 -185.5 19s-94 31.5 -127 56.5s-57.333 56 -73 93s-23.5 79.5 -23.5 127.5c0 26 2.16699 51.5 6.5 76.5
s10.166 48.167 17.499 69.5l248 -16c-3.33301 -14.667 -5.5 -28 -6.5 -40s-1.5 -24 -1.5 -36c0 -43.333 9.66699 -76.666 29 -99.999s50.666 -35 93.999 -35c24.667 0 44.667 4.16699 60 12.5s27.333 18.833 36 31.5s14.667 26 18 40s5 26.667 5 38
c0 30.667 -9.16699 56.5 -27.5 77.5s-49.5 41.167 -93.5 60.5l-127 59c-25.333 12 -52.833 26.833 -82.5 44.5s-57.167 40.167 -82.5 67.5s-46.5 60.666 -63.5 99.999s-25.5 86 -25.5 140c0 56 11 105.5 33 148.5s52 79.167 90 108.5s82 51.5 132 66.5s103 22.5 159 22.5
c54 0 104.167 -5.66699 150.5 -17s86.833 -29 121.5 -53s61.834 -54.167 81.501 -90.5s29.5 -79.5 29.5 -129.5c0 -21.333 -1.66699 -40.333 -5 -57s-8 -33.334 -14 -50.001l-244 4c4.66699 12.667 7.66699 24.667 9 36s2 26.666 2 45.999c0 33.333 -10 58.333 -30 75
s-47 25 -81 25c-34.667 0 -60.334 -9.66699 -77.001 -29s-25 -44.333 -25 -75c0 -17.333 3 -32.333 9 -45s14.5 -24 25.5 -34s24.5 -19.333 40.5 -28s34 -17.334 54 -26.001l157 -68c33.333 -14.667 64.5 -31.167 93.5 -49.5s54 -40.666 75 -66.999
s37.5 -57.666 49.5 -93.999s18 -80.166 18 -131.499zM456.001 1270h-133l148 303h352v-23z" />
    <glyph glyph-name="Scircumflex" unicode="&#x15c;" 
 />
    <glyph glyph-name="scircumflex" unicode="&#x15d;" 
 />
    <glyph glyph-name="Scedilla" unicode="&#x15e;" horiz-adv-x="1042" 
d="M1006 477c0 -73.333 -8.5 -140.662 -25.5 -201.995s-45 -114.333 -84 -159s-90.167 -79.334 -153.5 -104.001s-141.666 -37 -234.999 -37c-84 0 -155.833 9.5 -215.5 28.5s-108.334 46 -146.001 81s-65.334 77 -83.001 126s-26.5 103.833 -26.5 164.5c0 32 2 64.667 6 98
s10.667 62.666 20 87.999l302 10c-7.33301 -18 -12.666 -41.167 -15.999 -69.5s-5 -54.833 -5 -79.5c0 -49.333 13 -88.666 39 -117.999s63 -44 111 -44c22.667 0 43.334 2.83301 62.001 8.5s34.667 14.834 48 27.501s23.833 29.167 31.5 49.5s11.5 45.166 11.5 74.499
c0 26.667 -4 50.667 -12 72s-19.667 41 -35 59s-34.166 35 -56.499 51s-47.833 32.333 -76.5 49l-186 111c-32.667 18.667 -63 41.5 -91 68.5s-52.333 57.167 -73 90.5s-36.834 69.666 -48.501 108.999s-17.5 81 -17.5 125c0 64 10.333 123 31 177s51.5 100.667 92.5 140
s92 70 153 92s132.167 33 213.5 33c70 0 129.667 -9.16699 179 -27.5s89.833 -44 121.5 -77s54.667 -72.833 69 -119.5s21.5 -98 21.5 -154c0 -28 -1.83301 -54 -5.5 -78s-8.16699 -44.667 -13.5 -62l-297 -8c5.33301 11.333 10.5 26 15.5 44s7.5 39 7.5 63
c0 52 -10.167 88.5 -30.5 109.5s-49.166 31.5 -86.499 31.5c-32.667 0 -59.834 -10.833 -81.501 -32.5s-32.5 -57.167 -32.5 -106.5c0 -26.667 6 -50.834 18 -72.501s27.833 -41.167 47.5 -58.5s41.667 -33 66 -47s49.166 -27 74.499 -39l134 -66
c42 -20.667 79 -44.334 111 -71.001s58.833 -57.334 80.5 -92.001s38.167 -73.167 49.5 -115.5s17 -89.5 17 -141.5zM750 -220.996c0 -58 -20.8359 -104 -62.5029 -138s-99.834 -51 -174.501 -51c-30 0 -58.5 2 -85.5 6s-51.667 9.5 -74 16.5s-42.333 14.833 -60 23.5
s-31.834 18 -42.501 28l65 111c10.667 -8.66699 21.834 -17 33.501 -25s24.834 -15 39.501 -21s31.334 -10.833 50.001 -14.5s40.667 -5.5 66 -5.5c16 0 28.333 2 37 6s15.334 9.16699 20.001 15.5s7.5 13.333 8.5 21s1.5 14.834 1.5 21.501
c0 16.667 -4.16699 30.167 -12.5 40.5s-19.166 17.5 -32.499 21.5s-29 4.66699 -47 2s-36.333 -8.33398 -55 -17.001l37 139h77c32 0 61 -4.5 87 -13.5s48.167 -21.5 66.5 -37.5s32.5 -35 42.5 -57s15 -46 15 -72z" />
    <glyph glyph-name="scedilla" unicode="&#x15f;" horiz-adv-x="918" 
d="M895 354c0 -62 -7.83203 -116.333 -23.499 -163s-41.167 -85.667 -76.5 -117s-81.666 -54.833 -138.999 -70.5s-127.333 -23.5 -210 -23.5c-72 0 -133.833 6.33301 -185.5 19s-94 31.5 -127 56.5s-57.333 56 -73 93s-23.5 79.5 -23.5 127.5c0 26 2.16699 51.5 6.5 76.5
s10.166 48.167 17.499 69.5l248 -16c-3.33301 -14.667 -5.5 -28 -6.5 -40s-1.5 -24 -1.5 -36c0 -43.333 9.66699 -76.666 29 -99.999s50.666 -35 93.999 -35c24.667 0 44.667 4.16699 60 12.5s27.333 18.833 36 31.5s14.667 26 18 40s5 26.667 5 38
c0 30.667 -9.16699 56.5 -27.5 77.5s-49.5 41.167 -93.5 60.5l-127 59c-25.333 12 -52.833 26.833 -82.5 44.5s-57.167 40.167 -82.5 67.5s-46.5 60.666 -63.5 99.999s-25.5 86 -25.5 140c0 56 11 105.5 33 148.5s52 79.167 90 108.5s82 51.5 132 66.5s103 22.5 159 22.5
c54 0 104.167 -5.66699 150.5 -17s86.833 -29 121.5 -53s61.834 -54.167 81.501 -90.5s29.5 -79.5 29.5 -129.5c0 -21.333 -1.66699 -40.333 -5 -57s-8 -33.334 -14 -50.001l-244 4c4.66699 12.667 7.66699 24.667 9 36s2 26.666 2 45.999c0 33.333 -10 58.333 -30 75
s-47 25 -81 25c-34.667 0 -60.334 -9.66699 -77.001 -29s-25 -44.333 -25 -75c0 -17.333 3 -32.333 9 -45s14.5 -24 25.5 -34s24.5 -19.333 40.5 -28s34 -17.334 54 -26.001l157 -68c33.333 -14.667 64.5 -31.167 93.5 -49.5s54 -40.666 75 -66.999
s37.5 -57.666 49.5 -93.999s18 -80.166 18 -131.499zM692.001 -221c0 -58 -20.8359 -104 -62.5029 -138s-99.834 -51 -174.501 -51c-30 0 -58.5 2 -85.5 6s-51.667 9.5 -74 16.5s-42.333 14.833 -60 23.5s-31.834 18 -42.501 28l65 111
c10.667 -8.66699 21.834 -17 33.501 -25s24.834 -15 39.501 -21s31.334 -10.833 50.001 -14.5s40.667 -5.5 66 -5.5c16 0 28.333 2 37 6s15.334 9.16699 20.001 15.5s7.5 13.333 8.5 21s1.5 14.834 1.5 21.501c0 16.667 -4.16699 30.167 -12.5 40.5
s-19.166 17.5 -32.499 21.5s-29 4.66699 -47 2s-36.333 -8.33398 -55 -17.001l37 139h77c32 0 61 -4.5 87 -13.5s48.167 -21.5 66.5 -37.5s32.5 -35 42.5 -57s15 -46 15 -72z" />
    <glyph glyph-name="Scaron" unicode="&#x160;" horiz-adv-x="1042" 
d="M1006 477c0 -73.333 -8.5 -140.662 -25.5 -201.995s-45 -114.333 -84 -159s-90.167 -79.334 -153.5 -104.001s-141.666 -37 -234.999 -37c-84 0 -155.833 9.5 -215.5 28.5s-108.334 46 -146.001 81s-65.334 77 -83.001 126s-26.5 103.833 -26.5 164.5c0 32 2 64.667 6 98
s10.667 62.666 20 87.999l302 10c-7.33301 -18 -12.666 -41.167 -15.999 -69.5s-5 -54.833 -5 -79.5c0 -49.333 13 -88.666 39 -117.999s63 -44 111 -44c22.667 0 43.334 2.83301 62.001 8.5s34.667 14.834 48 27.501s23.833 29.167 31.5 49.5s11.5 45.166 11.5 74.499
c0 26.667 -4 50.667 -12 72s-19.667 41 -35 59s-34.166 35 -56.499 51s-47.833 32.333 -76.5 49l-186 111c-32.667 18.667 -63 41.5 -91 68.5s-52.333 57.167 -73 90.5s-36.834 69.666 -48.501 108.999s-17.5 81 -17.5 125c0 64 10.333 123 31 177s51.5 100.667 92.5 140
s92 70 153 92s132.167 33 213.5 33c70 0 129.667 -9.16699 179 -27.5s89.833 -44 121.5 -77s54.667 -72.833 69 -119.5s21.5 -98 21.5 -154c0 -28 -1.83301 -54 -5.5 -78s-8.16699 -44.667 -13.5 -62l-297 -8c5.33301 11.333 10.5 26 15.5 44s7.5 39 7.5 63
c0 52 -10.167 88.5 -30.5 109.5s-49.166 31.5 -86.499 31.5c-32.667 0 -59.834 -10.833 -81.501 -32.5s-32.5 -57.167 -32.5 -106.5c0 -26.667 6 -50.834 18 -72.501s27.833 -41.167 47.5 -58.5s41.667 -33 66 -47s49.166 -27 74.499 -39l134 -66
c42 -20.667 79 -44.334 111 -71.001s58.833 -57.334 80.5 -92.001s38.167 -73.167 49.5 -115.5s17 -89.5 17 -141.5zM683 1661h-303l-170 324h106l205 -158l205 158h106z" />
    <glyph glyph-name="scaron" unicode="&#x161;" horiz-adv-x="918" 
d="M895 354c0 -62 -7.83203 -116.333 -23.499 -163s-41.167 -85.667 -76.5 -117s-81.666 -54.833 -138.999 -70.5s-127.333 -23.5 -210 -23.5c-72 0 -133.833 6.33301 -185.5 19s-94 31.5 -127 56.5s-57.333 56 -73 93s-23.5 79.5 -23.5 127.5c0 26 2.16699 51.5 6.5 76.5
s10.166 48.167 17.499 69.5l248 -16c-3.33301 -14.667 -5.5 -28 -6.5 -40s-1.5 -24 -1.5 -36c0 -43.333 9.66699 -76.666 29 -99.999s50.666 -35 93.999 -35c24.667 0 44.667 4.16699 60 12.5s27.333 18.833 36 31.5s14.667 26 18 40s5 26.667 5 38
c0 30.667 -9.16699 56.5 -27.5 77.5s-49.5 41.167 -93.5 60.5l-127 59c-25.333 12 -52.833 26.833 -82.5 44.5s-57.167 40.167 -82.5 67.5s-46.5 60.666 -63.5 99.999s-25.5 86 -25.5 140c0 56 11 105.5 33 148.5s52 79.167 90 108.5s82 51.5 132 66.5s103 22.5 159 22.5
c54 0 104.167 -5.66699 150.5 -17s86.833 -29 121.5 -53s61.834 -54.167 81.501 -90.5s29.5 -79.5 29.5 -129.5c0 -21.333 -1.66699 -40.333 -5 -57s-8 -33.334 -14 -50.001l-244 4c4.66699 12.667 7.66699 24.667 9 36s2 26.666 2 45.999c0 33.333 -10 58.333 -30 75
s-47 25 -81 25c-34.667 0 -60.334 -9.66699 -77.001 -29s-25 -44.333 -25 -75c0 -17.333 3 -32.333 9 -45s14.5 -24 25.5 -34s24.5 -19.333 40.5 -28s34 -17.334 54 -26.001l157 -68c33.333 -14.667 64.5 -31.167 93.5 -49.5s54 -40.666 75 -66.999
s37.5 -57.666 49.5 -93.999s18 -80.166 18 -131.499zM623.001 1251h-303l-170 324h106l205 -158l205 158h106z" />
    <glyph glyph-name="Tcommaaccent" unicode="&#x162;" horiz-adv-x="934" 
d="M641 1284v-1284h-348v1284h-279v289h906v-289h-279zM602 -391c0 -63.333 -11.8311 -118.168 -35.498 -164.501s-65.167 -82.5 -124.5 -108.5c-17.333 -7.33301 -34 -12.666 -50 -15.999s-34.333 -6.66602 -55 -9.99902l-20 96c19.333 6 37.166 13.5 53.499 22.5
s31.166 19.167 44.499 30.5c23.333 19.333 37.5 41.666 42.5 66.999s5.83301 53 2.5 83h-127v293h269v-293z" />
    <glyph glyph-name="Tcommaaccent" unicode="&#x21a;" horiz-adv-x="934" 
d="M641 1284v-1284h-348v1284h-279v289h906v-289h-279zM602 -391c0 -63.333 -11.8311 -118.168 -35.498 -164.501s-65.167 -82.5 -124.5 -108.5c-17.333 -7.33301 -34 -12.666 -50 -15.999s-34.333 -6.66602 -55 -9.99902l-20 96c19.333 6 37.166 13.5 53.499 22.5
s31.166 19.167 44.499 30.5c23.333 19.333 37.5 41.666 42.5 66.999s5.83301 53 2.5 83h-127v293h269v-293z" />
    <glyph glyph-name="tcommaaccent" unicode="&#x163;" horiz-adv-x="799" 
d="M758 51c-10 -7.33301 -26.1689 -14.833 -48.502 -22.5s-47.666 -14.834 -75.999 -21.501s-58.833 -12.167 -91.5 -16.5s-64.667 -6.5 -96 -6.5c-42 0 -80 4.16699 -114 12.5s-63.167 22 -87.5 41s-43 44.167 -56 75.5s-19.167 70 -18.5 116l4 725h-174v222h178l8 323h308
v-323h245v-222h-245v-594c0 -23.333 4.5 -41.666 13.5 -54.999s20.667 -23.5 35 -30.5s30 -11.5 47 -13.5s33.5 -3 49.5 -3c25.333 0 47.333 2.33301 66 7s36.334 10.667 53.001 18v-232zM585.998 -391c0 -63.333 -11.8311 -118.168 -35.498 -164.501
s-65.167 -82.5 -124.5 -108.5c-17.333 -7.33301 -34 -12.666 -50 -15.999s-34.333 -6.66602 -55 -9.99902l-20 96c19.333 6 37.166 13.5 53.499 22.5s31.166 19.167 44.499 30.5c23.333 19.333 37.5 41.666 42.5 66.999s5.83301 53 2.5 83h-127v293h269v-293z" />
    <glyph glyph-name="tcommaaccent" unicode="&#x21b;" horiz-adv-x="799" 
d="M758 51c-10 -7.33301 -26.1689 -14.833 -48.502 -22.5s-47.666 -14.834 -75.999 -21.501s-58.833 -12.167 -91.5 -16.5s-64.667 -6.5 -96 -6.5c-42 0 -80 4.16699 -114 12.5s-63.167 22 -87.5 41s-43 44.167 -56 75.5s-19.167 70 -18.5 116l4 725h-174v222h178l8 323h308
v-323h245v-222h-245v-594c0 -23.333 4.5 -41.666 13.5 -54.999s20.667 -23.5 35 -30.5s30 -11.5 47 -13.5s33.5 -3 49.5 -3c25.333 0 47.333 2.33301 66 7s36.334 10.667 53.001 18v-232zM585.998 -391c0 -63.333 -11.8311 -118.168 -35.498 -164.501
s-65.167 -82.5 -124.5 -108.5c-17.333 -7.33301 -34 -12.666 -50 -15.999s-34.333 -6.66602 -55 -9.99902l-20 96c19.333 6 37.166 13.5 53.499 22.5s31.166 19.167 44.499 30.5c23.333 19.333 37.5 41.666 42.5 66.999s5.83301 53 2.5 83h-127v293h269v-293z" />
    <glyph glyph-name="Tcaron" unicode="&#x164;" horiz-adv-x="934" 
d="M641 1284v-1284h-348v1284h-279v289h906v-289h-279zM631 1661h-303l-170 324h106l205 -158l205 158h106z" />
    <glyph glyph-name="tcaron" unicode="&#x165;" horiz-adv-x="799" 
d="M758 51c-10 -7.33301 -26.1689 -14.833 -48.502 -22.5s-47.666 -14.834 -75.999 -21.501s-58.833 -12.167 -91.5 -16.5s-64.667 -6.5 -96 -6.5c-42 0 -80 4.16699 -114 12.5s-63.167 22 -87.5 41s-43 44.167 -56 75.5s-19.167 70 -18.5 116l4 725h-174v222h178l8 323h308
v-323h245v-222h-245v-594c0 -23.333 4.5 -41.666 13.5 -54.999s20.667 -23.5 35 -30.5s30 -11.5 47 -13.5s33.5 -3 49.5 -3c25.333 0 47.333 2.33301 66 7s36.334 10.667 53.001 18v-232zM945.998 1630c0 -37.333 -3.16699 -72.165 -9.5 -104.498s-17 -62 -32 -89
s-34.5 -51.167 -58.5 -72.5s-53.667 -39.333 -89 -54c-19.333 -8 -38.5 -14.167 -57.5 -18.5s-40.167 -8.16602 -63.5 -11.499l-24 112c22.667 7.33301 43.5 16.166 62.5 26.499s36.167 22.166 51.5 35.499c14 12 25 24.5 33 37.5s13.833 26.833 17.5 41.5
s5.5 30.167 5.5 46.5s-0.666992 33.166 -2 50.499h-121v344h287v-344z" />
    <glyph glyph-name="Tbar" unicode="&#x166;" 
 />
    <glyph glyph-name="tbar" unicode="&#x167;" 
 />
    <glyph glyph-name="Utilde" unicode="&#x168;" 
 />
    <glyph glyph-name="utilde" unicode="&#x169;" 
 />
    <glyph glyph-name="Umacron" unicode="&#x16a;" horiz-adv-x="1096" 
d="M1008 451c0 -66 -6.16504 -127.832 -18.498 -185.499s-35.5 -108 -69.5 -151s-81 -77 -141 -102s-137.333 -37.5 -232 -37.5c-88 0 -161.333 11.833 -220 35.5s-105.834 56.667 -141.501 99s-60.834 92.666 -75.501 150.999s-22 121.833 -22 190.5v1122h346v-1163
c0 -35.333 9.33301 -63.333 28 -84s47 -31 85 -31c39.333 0 68.333 10.833 87 32.5s28 49.167 28 82.5v1163h346v-1122zM244.002 1706v197h607v-197h-607z" />
    <glyph glyph-name="umacron" unicode="&#x16b;" horiz-adv-x="997" 
d="M598 0l0.00195312 190c-18.667 -66.667 -50.834 -118.834 -96.501 -156.501s-102.834 -56.5 -171.501 -56.5c-33.333 0 -65.5 5.5 -96.5 16.5s-58.5 27.833 -82.5 50.5s-43.167 51.334 -57.5 86.001s-21.5 76 -21.5 124v922h323v-832c0 -26.667 5.66699 -47.667 17 -63
s31 -23 59 -23c38 0 68.333 20.5 91 61.5s34 103.167 34 186.5v670h324v-1176h-322zM195.002 1296v197h607v-197h-607z" />
    <glyph glyph-name="Ubreve" unicode="&#x16c;" 
 />
    <glyph glyph-name="ubreve" unicode="&#x16d;" 
 />
    </font>
</defs>
</svg>
